<?xml version="1.0" standalone="no"?>
<!DOCTYPE svg PUBLIC "-//W3C//DTD SVG 1.1//EN" "http://www.w3.org/Graphics/SVG/1.1/DTD/svg11.dtd" >
<svg xmlns="http://www.w3.org/2000/svg">
<metadata></metadata>
<defs>
<font id="oswaldbook" horiz-adv-x="992" >
<font-face units-per-em="2048" ascent="1638" descent="-410" />
<missing-glyph horiz-adv-x="350" />
<glyph unicode="&#xfb00;" horiz-adv-x="1220" d="M174 1329q0 81 6 137.5t24.5 109t50 84t84 50t125.5 18.5q62 0 158 -12v-190q-10 1 -41 5.5t-45 4.5q-64 0 -85 -40.5t-21 -119.5v-96h344v49q0 81 6 137.5t24.5 109t50 84t84 50t125.5 18.5q62 0 158 -12v-190q-10 1 -41 5.5t-45 4.5q-64 0 -85 -40.5t-21 -119.5v-96 h192v-192h-192v-1088h-256v1088h-344v-1088h-256v1088h-128v192h128v49z" />
<glyph unicode="&#xfb01;" horiz-adv-x="1186" d="M802 1728h256v-256h-256v256zM174 1329q0 81 6 137.5t24.5 109t50 84t84 50t125.5 18.5q62 0 158 -12v-190q-10 1 -41 5.5t-45 4.5q-64 0 -85 -40.5t-21 -119.5v-96h628v-1280h-256v1088h-372v-1088h-256v1088h-128v192h128v49z" />
<glyph unicode="&#xfb02;" horiz-adv-x="1161" d="M1042 0h-256v1522q-167 14 -250 14q-64 0 -85 -40.5t-21 -119.5v-96h192v-192h-192v-1088h-256v1088h-128v192h128v49q0 81 6 137.5t24.5 109t50 84t84 50t125.5 18.5q67 0 127 -2t104.5 -5t109.5 -10.5t106.5 -12.5t130.5 -17v-1681z" />
<glyph unicode="&#xfb03;" horiz-adv-x="1718" d="M736 1329q0 81 6 137.5t24.5 109t50 84t84 50t125.5 18.5q62 0 158 -12v-190q-10 1 -41 5.5t-45 4.5q-64 0 -85 -40.5t-21 -119.5v-96h598v-1280h-256v1088h-342v-1088h-256v1088h-306v-1088h-256v1088h-128v192h128v49q0 81 6 137.5t24.5 109t50 84t84 50t125.5 18.5 q62 0 158 -12v-190q-10 1 -41 5.5t-45 4.5q-64 0 -85 -40.5t-21 -119.5v-96h306v49zM1334 1728h256v-256h-256v256z" />
<glyph unicode="&#xfb04;" horiz-adv-x="1677" d="M1558 0h-256v1522q-142 14 -228 14q-64 0 -85 -40.5t-21 -119.5v-96h192v-192h-192v-1088h-256v1088h-282v-1088h-256v1088h-128v192h128v49q0 81 6 137.5t24.5 109t50 84t84 50t125.5 18.5q62 0 158 -12v-190q-10 1 -41 5.5t-45 4.5q-64 0 -85 -40.5t-21 -119.5v-96h282 v49q0 81 6 137.5t24.5 109t50 84t84 50t125.5 18.5q105 0 198 -6t155.5 -14t202.5 -27v-1681z" />
<glyph unicode="&#xd;" horiz-adv-x="537" />
<glyph unicode=" "  horiz-adv-x="350" />
<glyph unicode="&#x09;" horiz-adv-x="350" />
<glyph unicode="&#xa0;" horiz-adv-x="350" />
<glyph unicode="!" horiz-adv-x="375" d="M64 1792h256l-46 -1408h-146zM64 256h256v-256h-256v256z" />
<glyph unicode="&#x22;" horiz-adv-x="704" d="M62 1792h256l-64 -464h-128zM385 1792h256l-64 -464h-128z" />
<glyph unicode="#" horiz-adv-x="1088" d="M1024 1024h-111l-28 -192h139v-192h-166l-90 -640h-256l90 640h-192l-90 -640h-256l90 640h-90v192h117l28 192h-145v192h172l82 576h256l-82 -576h192l82 576h256l-82 -576h84v-192zM437 832h193l27 192h-192z" />
<glyph unicode="$" horiz-adv-x="1216" d="M127 1378q0 198 123 315t326 117v110h128v-121l41 -9q316 -86 343 -446l-256 -64q-9 188 -108 269l-20 15v-566l128 -102q113 -88 184.5 -212.5t71.5 -282.5q0 -181 -104 -289t-280 -127v-113h-128v113q-208 15 -321.5 157.5t-126.5 369.5l256 64q10 -293 171 -368l21 -8 v555l-256 205q-88 71 -140.5 176.5t-52.5 241.5zM384 1405q0 -152 128 -253l64 -51v499q-92 0 -142 -52t-50 -143zM832 384q0 78 -28 135t-80 109l-20 20v-450q128 29 128 186z" />
<glyph unicode="%" horiz-adv-x="1999" d="M444 541q-95 0 -166.5 38.5t-114.5 106.5t-64 155t-21 191q0 106 20 192t62.5 152.5t114.5 103t169 36.5q78 0 140 -24.5t104 -67.5t70 -104t40.5 -132.5t12.5 -155.5q0 -104 -21.5 -191.5t-64.5 -155.5t-114.5 -106t-166.5 -38zM578 1032q0 289 -134 289 q-133 0 -133 -289q0 -52 5 -97.5t18 -94t41 -77t69 -28.5q134 0 134 297zM1554 0q-95 0 -166.5 38.5t-114.5 107t-64 155.5t-21 191q0 106 20.5 191.5t63 152t114 103t168.5 36.5t169 -36.5t114.5 -103t63 -152t20.5 -191.5q0 -105 -21 -192t-64 -155.5t-115 -106.5 t-167 -38zM1688 492q0 288 -134 288q-133 0 -133 -288q0 -52 5 -97t18 -94t41 -77.5t69 -28.5q134 0 134 297zM1034 1518h219l-282 -1518h-220z" />
<glyph unicode="&#x26;" horiz-adv-x="1344" d="M1216 -18q-25 0 -47.5 2.5t-45.5 11t-39 14t-38.5 21t-32.5 21t-33 26.5t-28 25t-30 28.5t-26 25.5q-63 -80 -160.5 -127.5t-223.5 -47.5q-178 0 -281 110t-103 292q0 286 256 512q-14 29 -58 109.5t-67 129t-45 126t-22 147.5q0 180 104 291t280 111q165 0 274.5 -91.5 t109.5 -246.5q0 -70 -22 -142t-52.5 -128t-78.5 -118.5t-83.5 -101t-83.5 -86.5l256 -384q18 40 31 100t17.5 93.5t15.5 126.5h256q0 -122 -47 -253t-112 -229q75 -94 159 -94v-274zM545 1024q64 80 111.5 205.5t47.5 242.5q0 58 -35 93t-93 35q-65 0 -96.5 -56.5 t-31.5 -135.5q0 -65 17 -141t34 -124.5t46 -118.5zM384 384q0 -84 30 -138t98 -54q122 0 224 128l-123 183q-13 21 -44.5 61.5t-54.5 75t-33 64.5q-44 -58 -70.5 -143t-26.5 -177z" />
<glyph unicode="'" horiz-adv-x="384" d="M62 1792h256l-64 -464h-128z" />
<glyph unicode="(" horiz-adv-x="640" d="M576 -64q-80 0 -145 21.5t-110.5 67t-79 95.5t-54 129.5t-33.5 144t-18 165t-6.5 166t-1.5 171.5q0 122 1.5 196.5t10.5 188t26 184t49.5 153t79.5 129t118.5 78t162.5 31.5v-192q-50 0 -86.5 -31.5t-57 -79.5t-32.5 -121t-15.5 -139t-3.5 -150q0 -48 1.5 -131.5 t1.5 -115.5t-1.5 -117t-1.5 -134q0 -84 3.5 -149.5t15.5 -137.5t32.5 -120t57 -79t86.5 -31v-192z" />
<glyph unicode=")" horiz-adv-x="640" d="M64 1856q80 0 145 -21.5t110.5 -67t79 -95.5t54 -129.5t33.5 -144t18 -165t6.5 -166t1.5 -171.5q0 -122 -1.5 -196.5t-10.5 -188t-26 -184t-49.5 -153t-79.5 -129t-118.5 -78t-162.5 -31.5v192q50 0 86.5 31.5t57 79.5t32.5 121t15.5 139t3.5 150q0 48 -1.5 131.5 t-1.5 115.5t1.5 117t1.5 134q0 84 -3.5 149.5t-15.5 137.5t-32.5 120t-57 79t-86.5 31v192z" />
<glyph unicode="*" horiz-adv-x="896" d="M343 904l-152 90l172 243l-257 98l61 161l245 -132l-28 300h192l-29 -300l246 132l61 -161l-257 -99l172 -242l-152 -90l-137 277z" />
<glyph unicode="+" horiz-adv-x="704" d="M256 384v192h-192v192h192v192h192v-192h192v-192h-192v-192h-192z" />
<glyph unicode="," horiz-adv-x="408" d="M76 256h256q0 -144 -3 -242q-2 -54 -6 -91t-16 -73.5t-32 -58t-53.5 -34.5t-81.5 -13l-64 128q69 0 98.5 30t29.5 98h-128v256z" />
<glyph unicode="-" horiz-adv-x="384" d="M0 640h384v-192h-384v192z" />
<glyph unicode="." horiz-adv-x="384" d="M64 256h256v-256h-256v256z" />
<glyph unicode="/" horiz-adv-x="832" d="M575 1792h257l-576 -1792h-256z" />
<glyph unicode="0" horiz-adv-x="1088" d="M992 512q0 -241 -114.5 -385.5t-333.5 -144.5q-146 0 -248.5 69t-151 186.5t-48.5 274.5v768q0 247 112 388.5t336 141.5q223 0 335.5 -142t112.5 -388v-768zM352 512q0 -63 8.5 -116t29 -101t59.5 -75.5t95 -27.5q192 0 192 320v768q0 54 -4 96.5t-16.5 86t-33 72.5 t-55.5 47t-83 18t-83 -18t-55.5 -47t-33 -72.5t-16.5 -86t-4 -96.5v-768z" />
<glyph unicode="1" horiz-adv-x="640" d="M64 1600q193 69 256 192h192v-1792h-256v1408h-192v192z" />
<glyph unicode="2" horiz-adv-x="1020" d="M712 1344q0 107 -49.5 181.5t-142.5 74.5q-55 0 -94 -27t-59.5 -75t-29.5 -101.5t-9 -116.5v-64h-256v64q0 252 108 391t340 139q218 0 333 -122.5t115 -343.5q0 -83 -14.5 -155t-46 -138t-58 -109t-73.5 -110l-448 -576h640v-256h-897v256l449 640q8 11 35 48.5t36 51 t31 48t30.5 53t23 52.5t20.5 60.5t11 62t5 72.5z" />
<glyph unicode="3" horiz-adv-x="1027" d="M78 1344q0 220 115.5 343t332.5 123q218 0 333 -122.5t115 -343.5q0 -152 -68 -249.5t-188 -134.5q125 -42 190.5 -157t65.5 -291q0 -252 -108 -391t-340 -139q-218 0 -333 122.5t-115 343.5v64h256q0 -60 3.5 -102.5t15 -86.5t31.5 -70.5t56 -43.5t86 -17t86 17t56 43.5 t31.5 70.5t15 86.5t3.5 102.5q0 154 -59.5 237t-196.5 83v256q140 0 198 57.5t58 198.5q0 127 -42 191.5t-150 64.5q-50 0 -86 -17t-56 -43.5t-31.5 -70.5t-15 -86.5t-3.5 -102.5h-256v64z" />
<glyph unicode="4" horiz-adv-x="1087" d="M595 460h-512v285l448 1048h320v-1091h198v-242h-198v-460h-256v460zM595 702v770l-256 -770h256z" />
<glyph unicode="5" horiz-adv-x="1050" d="M521 186q31 0 57.5 6.5t46 18.5t35.5 29t27 38t19.5 46t13 52.5t7.5 57.5t3.5 61.5t1.5 64t0 65.5v33q0 43 -1 73.5t-5.5 66t-12.5 59.5t-22 48t-34 38t-49.5 22.5t-66.5 8.5q-68 0 -118 -44t-73 -104h-218v966h792v-256h-560l-16 -434q108 64 256 64q87 0 153.5 -26.5 t109.5 -72.5t70.5 -114t39 -144t11.5 -169q0 -115 -12 -208t-43 -179t-81 -144t-130.5 -92.5t-186.5 -34.5q-239 0 -341 134.5t-102 395.5h256v-40q0 -51 3.5 -88.5t14 -77t29 -64t50.5 -40.5t76 -16z" />
<glyph unicode="6" horiz-adv-x="1083" d="M112 1152q0 110 13 203.5t45 179t82 145.5t128.5 95t179.5 35q216 0 332 -122.5t116 -343.5h-256q0 128 -41.5 192t-150.5 64q-192 0 -192 -384v-256q74 128 256 128q108 0 184.5 -37.5t119 -109t61.5 -160.5t19 -205q0 -126 -25 -230.5t-77 -187.5t-140 -129.5 t-206 -46.5q-92 0 -167 31t-126.5 85t-87 129.5t-51.5 163t-16 185.5v576zM368 512q0 -64 9 -117t29.5 -101t59.5 -75t94 -27t94 27t59.5 75t29.5 101.5t9 116.5v57.5t-1.5 55.5t-4 55.5t-7 49.5t-11.5 46.5t-17.5 39t-24.5 34.5t-32 24t-42 17t-52 5q-124 0 -192 -128v-256 z" />
<glyph unicode="7" horiz-adv-x="826" d="M45 1792h717v-123l-326 -1669h-246l328 1579h-473v213z" />
<glyph unicode="8" horiz-adv-x="1024" d="M673 1344q0 256 -160 256q-162 0 -162 -256q0 -60 6 -104.5t22 -87.5t49.5 -66t84.5 -23q50 0 83.5 23t49.5 66.5t21.5 87.5t5.5 104zM64 511q0 167 46 268.5t148 166.5q-86 65 -127 160t-41 238q0 222 106 344t317 122q210 0 315.5 -122.5t105.5 -343.5 q0 -144 -40.5 -238.5t-126.5 -159.5q101 -66 147 -168t46 -267q0 -256 -106 -392.5t-341 -136.5q-236 0 -342.5 136.5t-106.5 392.5zM320 511q0 -58 3.5 -99.5t15 -86t32 -71.5t56.5 -44.5t86 -17.5t86 18t56 45t31.5 71.5t14.5 85.5t3 99q0 64 -8 114.5t-28 96.5t-59 71 t-96 25t-96.5 -25t-60 -70.5t-28.5 -96t-8 -115.5z" />
<glyph unicode="9" horiz-adv-x="1083" d="M988 640q0 -110 -13 -203.5t-45 -179t-82 -145.5t-128.5 -95t-179.5 -35q-216 0 -332 122.5t-116 343.5h256q0 -128 41.5 -192t150.5 -64q192 0 192 384v256q-76 -128 -256 -128q-108 0 -184.5 37.5t-119 109t-61.5 160.5t-19 205q0 126 25 230.5t77 187.5t140 129.5 t206 46.5q92 0 167 -31t126.5 -85t87 -129.5t51.5 -163t16 -185.5v-576zM732 1280q0 64 -9 117t-29.5 101t-59.5 75t-94 27t-94 -27t-59.5 -75t-29.5 -101.5t-9 -116.5v-57.5t1.5 -55.5t4 -55.5t7 -49.5t11.5 -46.5t17.5 -39t24.5 -34.5t32 -24t42 -17t52 -5q122 0 192 128 v256z" />
<glyph unicode=":" horiz-adv-x="439" d="M128 1088h256v-256h-256v256zM128 512h256v-256h-256v256z" />
<glyph unicode=";" horiz-adv-x="384" d="M64 1088h256v-256h-256v256zM64 512h256q0 -144 -3 -242q-2 -54 -6 -91t-16 -73.5t-32 -58t-53.5 -34.5t-81.5 -13l-64 128q69 0 98.5 30t29.5 98h-128v256z" />
<glyph unicode="&#x3c;" horiz-adv-x="832" d="M64 768l640 448v-256l-448 -319l448 -321v-256l-640 448v256z" />
<glyph unicode="=" horiz-adv-x="704" d="M64 576v192h576v-192h-576zM64 255v192h576v-192h-576z" />
<glyph unicode="&#x3e;" horiz-adv-x="832" d="M768 512l-640 -448v256l448 321l-448 319v256l640 -448v-256z" />
<glyph unicode="?" horiz-adv-x="1152" d="M384 704q63 38 109.5 70t102 81.5t90 99.5t58.5 118t24 143q0 192 -192 192q-108 0 -150 -64.5t-42 -191.5h-256v64q0 219 115.5 333.5t332.5 114.5q219 0 334 -115.5t115 -332.5q0 -212 -101.5 -350.5t-283.5 -225.5v-256h-256v320zM384 256h256v-256h-256v256z" />
<glyph unicode="@" horiz-adv-x="1782" d="M884 502q69 0 74 40v403q-7 51 -54 51q-20 0 -37 -4t-30 -14.5t-23 -20t-17.5 -28.5t-12.5 -31.5t-8 -38t-4.5 -39t-2.5 -43t-1 -41.5v-43q0 -191 116 -191zM1654 768q0 -101 -22 -186.5t-66 -150.5t-115.5 -102t-164.5 -37q-96 0 -167.5 34t-107.5 94 q-57 -128 -171 -128q-106 0 -181.5 56t-111 145t-35.5 200q0 77 9 146.5t31.5 136t56.5 114.5t87 77.5t120 29.5q66 0 102.5 -36.5t39.5 -99.5v127h256v-568q0 -38 3 -60t19 -40t46 -18q116 0 116 266q0 148 -26 257.5t-84 191t-156 122.5t-236 41q-129 0 -228 -45 t-160.5 -127t-92.5 -193t-31 -247q0 -172 29 -297.5t94 -219t177.5 -140.5t273.5 -47q125 0 296 55l94 -196q-223 -51 -390 -51q-434 0 -632 221.5t-198 674.5q0 372 203 588t565 216q371 0 564.5 -211.5t193.5 -592.5z" />
<glyph unicode="A" horiz-adv-x="1038" d="M359 448l-96 -448h-256l384 1792h256l384 -1792h-256l-96 448h-320zM647 640l-128 768l-128 -768h256z" />
<glyph unicode="B" horiz-adv-x="1136" d="M1088 512q0 -237 -137.5 -374.5t-374.5 -137.5h-448v1792h384q124 0 222 -26t171.5 -79t113 -140t39.5 -203q0 -168 -71 -255.5t-219 -128.5q160 -53 240 -155.5t80 -292.5zM832 512q0 167 -77 243.5t-243 76.5h-128v-640h128q166 0 243 76.5t77 243.5zM512 1024 q320 0 320 320q0 53 -13 93.5t-31 67.5t-54.5 45.5t-66.5 28.5t-85.5 14.5t-92.5 5.5t-105 1v-576h128z" />
<glyph unicode="C" horiz-adv-x="1107" d="M1065 576q0 -139 -24.5 -244t-79 -185.5t-148 -122.5t-225.5 -42q-113 0 -199 32t-141 88.5t-89.5 141t-48.5 180.5t-14 217v511q0 121 14 217t48.5 180.5t89.5 140.5t141 88t199 32q132 0 226 -41.5t148.5 -121.5t78.5 -185.5t24 -245.5h-256q0 43 -0.5 71t-2.5 65 t-6.5 61t-12.5 52.5t-19 46.5t-27.5 36.5t-38 28.5t-50.5 16.5t-64 6.5q-62 0 -106.5 -20t-69.5 -51.5t-38.5 -84.5t-17.5 -103.5t-4 -124.5v-640q0 -64 5.5 -116t21.5 -103.5t41.5 -86.5t68 -56.5t99.5 -21.5t98 22t64.5 56t37 87t17.5 103t4 116v64h256v-64z" />
<glyph unicode="D" horiz-adv-x="1133" d="M1037 576q0 -295 -117.5 -435.5t-396.5 -140.5h-395v1792h397q281 0 396.5 -115t115.5 -397v-704zM781 1216q0 49 -0.5 78t-3 68.5t-7.5 62.5t-14 51.5t-22.5 44.5t-33 33.5t-45 26t-59.5 14t-76 5.5h-136v-1408h141q38 0 69.5 5t56 14.5t43.5 23t32.5 31.5t23.5 39.5 t15.5 46.5t9 53.5t4.5 59.5t2 65t0 71v13v12.5v13.5v576z" />
<glyph unicode="E" horiz-adv-x="861" d="M704 832h-320v-640h448v-192h-704v1792h704v-192h-448v-576h320v-192z" />
<glyph unicode="F" horiz-adv-x="821" d="M832 1600h-448v-576h320v-192h-320v-832h-256v1792h704v-192z" />
<glyph unicode="G" horiz-adv-x="1199" d="M608 192q64 0 111 25t74.5 64.5t43.5 100.5t21.5 121t5.5 137v64h-256v190h512v-894h-192l-64 192q-75 -210 -256 -210q-123 0 -213.5 35t-147.5 95t-91 153t-47 196t-13 237v454q0 658 522 658q132 0 227 -41.5t151.5 -121t82.5 -186t26 -245.5h-256q0 53 -1.5 90.5 t-7 80.5t-15 72t-26.5 58t-41.5 45.5t-59.5 27t-80 10.5q-78 0 -131.5 -28.5t-82 -83t-40.5 -120t-12 -152.5v-576q0 -64 4 -115.5t13.5 -105t28 -92.5t46 -70.5t69 -48t95.5 -16.5z" />
<glyph unicode="H" horiz-adv-x="1216" d="M832 832h-448v-832h-256v1792h256v-768h448v768h256v-1792h-256v832z" />
<glyph unicode="I" horiz-adv-x="542" d="M140 1792h256v-1792h-256v1792z" />
<glyph unicode="J" horiz-adv-x="640" d="M0 192q83 0 129.5 9t76.5 38.5t40 77t10 131.5v1344h256v-1344q0 -122 -16 -201.5t-58.5 -137.5t-118 -83.5t-191.5 -25.5h-128v192z" />
<glyph unicode="K" horiz-adv-x="1118" d="M1152 0h-320l-320 832l-128 -256v-576h-256v1792h256v-768l384 768h320l-385 -704z" />
<glyph unicode="L" horiz-adv-x="823" d="M128 0v1792h256v-1600h448v-192h-704z" />
<glyph unicode="M" horiz-adv-x="1472" d="M640 0l-256 1414v-1414h-256v1792h354l254 -1372l254 1372h354v-1792h-256v1414l-256 -1414h-192z" />
<glyph unicode="N" horiz-adv-x="1152" d="M842 0l-458 1192v-1192h-256v1792h192l448 -1108v1108h256v-1792h-182z" />
<glyph unicode="O" horiz-adv-x="1180" d="M590 1810q262 0 378 -150t116 -434v-650q0 -139 -26.5 -245.5t-83.5 -186t-153.5 -121t-230.5 -41.5q-135 0 -231.5 41t-153.5 120t-83 185.5t-26 247.5v650q0 141 26 246t83 182.5t153.5 116.5t231.5 39zM590 1600q-136 0 -187 -77t-51 -233v-778q0 -158 51.5 -239 t186.5 -81t186.5 81t51.5 239v778q0 156 -51 233t-187 77z" />
<glyph unicode="P" horiz-adv-x="1041" d="M1024 1280q0 -219 -115.5 -333.5t-332.5 -114.5h-192v-832h-256v1792h448q448 0 448 -512zM768 1280q0 96 -14 155.5t-51.5 97.5t-97 52.5t-157.5 14.5h-64v-576h64q87 0 142.5 10t98 37.5t61 78.5t18.5 130z" />
<glyph unicode="Q" horiz-adv-x="1180" d="M1063 -256q-109 0 -216.5 76t-156.5 169q-43 -7 -100 -7q-135 0 -231.5 41t-153.5 120t-83 185.5t-26 247.5v650q0 141 26 246t83 182.5t153.5 116.5t231.5 39q262 0 378 -150t116 -434v-650q0 -396 -215 -527q29 -42 87.5 -68.5t106.5 -26.5v-210zM828 1290 q0 156 -51 233t-187 77t-187 -77t-51 -233v-778q0 -158 51.5 -239t186.5 -81t186.5 81t51.5 239v778z" />
<glyph unicode="R" horiz-adv-x="1108" d="M1024 1312q0 -160 -57 -268t-167 -148l288 -896h-254l-258 832h-192v-832h-256v1792h320q286 0 431 -111t145 -369zM768 1312q0 153 -80 220.5t-240 67.5h-64v-576h64q160 0 240 67.5t80 220.5z" />
<glyph unicode="S" horiz-adv-x="1102" d="M787 1280q-4 67 -19.5 122t-44.5 101t-78 71.5t-114 25.5q-92 0 -142 -51.5t-50 -143.5q0 -151 128 -253l320 -256q256 -207 256 -495q0 -197 -121.5 -308t-326.5 -111q-242 0 -369.5 142t-142.5 388l256 64q19 -384 256 -384q192 0 192 192q0 57 -15.5 105.5t-47.5 89 t-58 65t-71 60.5l-320 256q-88 69 -140.5 175.5t-52.5 242.5q0 198 123 315t326 117q234 0 364 -122t148 -344z" />
<glyph unicode="T" horiz-adv-x="888" d="M892 1792v-228h-320v-1564h-256v1564h-320v228h896z" />
<glyph unicode="U" horiz-adv-x="1252" d="M1138 640q0 -123 -15 -220.5t-51 -181.5t-93.5 -139.5t-146.5 -86.5t-206 -31t-206 31t-146.5 86.5t-93.5 139.5t-51 181.5t-15 220.5v1152h256v-1152q0 -83 3.5 -139t18.5 -119.5t41.5 -101.5t75 -63t117.5 -25t117.5 25t75 63t41.5 101.5t18.5 119.5t3.5 139v1152h256 v-1152z" />
<glyph unicode="V" horiz-adv-x="1048" d="M591 832l189 960h256l-384 -1792h-256l-384 1792h256l189 -960l66 -448z" />
<glyph unicode="W" horiz-adv-x="1558" d="M907 1792l128 -832l63 -512l65 512l128 832h256l-320 -1792h-256l-128 832l-64 512l-64 -512l-128 -832h-256l-320 1792h256l128 -832l65 -512l63 512l128 832h256z" />
<glyph unicode="X" horiz-adv-x="1070" d="M535 768l-254 -768h-256l318 929l-320 863h256l256 -704l256 704h256l-320 -859l316 -933h-254z" />
<glyph unicode="Y" horiz-adv-x="1018" d="M381 0v576l-384 1216h256l256 -896l256 896h256l-384 -1216v-576h-256z" />
<glyph unicode="Z" horiz-adv-x="951" d="M318 192h576v-192h-832v192l576 1408h-512v192h768v-192z" />
<glyph unicode="[" horiz-adv-x="768" d="M128 1856h512v-128h-256v-1664h256v-128h-512v1920z" />
<glyph unicode="\" horiz-adv-x="576" d="M512 0h-256l-192 1792h256z" />
<glyph unicode="]" horiz-adv-x="768" d="M640 -64h-512v128h256v1664h-256v128h512v-1920z" />
<glyph unicode="^" horiz-adv-x="896" d="M576 1536l256 -640h-256l-129 448l-127 -448h-256l256 640h256z" />
<glyph unicode="_" horiz-adv-x="768" d="M0 192h768v-192h-768v192z" />
<glyph unicode="`" horiz-adv-x="640" d="M128 1792h256l128 -384h-128z" />
<glyph unicode="a" horiz-adv-x="922" d="M439 1298q179 0 281.5 -110.5t102.5 -291.5v-576q0 -200 33 -320h-255l-34 192q-20 -40 -32.5 -62t-36.5 -54.5t-48 -50t-60 -30.5t-79 -13q-107 0 -181.5 92.5t-74.5 208.5q0 93 31.5 169t66.5 121.5t117 94t124 67t146 58.5q18 7 27 11v92q0 97 -27 150.5t-101 53.5 q-50 0 -79.5 -29t-39 -71t-9.5 -104h-256q2 184 103 293t281 109zM567 640q-16 -11 -53 -34t-59 -37.5t-53 -40t-48 -49t-30 -57.5t-13 -71q0 -159 128 -159q27 0 52.5 16t39 31.5t31.5 39.5q3 5 5 7v354z" />
<glyph unicode="b" horiz-adv-x="1042" d="M693 705q0 17 0.5 57t0.5 61q0 45 -2 78.5t-10 70.5t-21.5 61t-37.5 39.5t-58 15.5q-106 0 -192 -51v-805q99 -40 192 -40q41 0 68.5 30t40 85.5t17 110.5t4.5 128q0 31 -1 84.5t-1 74.5zM949 577q0 -84 -8.5 -162t-31 -159t-57 -140t-92 -96.5t-131.5 -37.5 q-78 0 -138 37t-118 97v-116h-256v1791h256v-638q36 38 54 55t52.5 43t71.5 36.5t82 10.5q65 0 116 -23.5t84 -56.5t56 -95t34.5 -112t17.5 -135t7 -137.5t1 -144.5v-17z" />
<glyph unicode="c" horiz-adv-x="901" d="M349 640q0 -20 -1 -57.5t-1 -64.5t0.5 -65t3.5 -66.5t8 -60.5t15 -54t23.5 -41.5t34 -29t45.5 -9.5q27 0 47.5 8t34 19.5t22.5 34t14 39.5t7 49t2.5 50.5t0.5 55.5h256q0 -224 -90 -345t-294 -121q-73 0 -130.5 19t-97.5 50.5t-69 81.5t-45.5 102t-26 124t-12.5 135 t-3 146t3 146t12.5 135t26 124t45.5 102t69 81.5t97.5 50.5t130.5 19q108 0 183.5 -31t119 -93.5t62.5 -145.5t19 -196h-256q0 43 -2 74.5t-9.5 70.5t-20.5 63.5t-37.5 41.5t-58.5 17q-25 0 -45 -10t-33.5 -30t-23 -42.5t-15 -56t-8.5 -62t-4 -68t-0.5 -66.5t1 -66t0.5 -58z " />
<glyph unicode="d" horiz-adv-x="1042" d="M349 705q0 -21 -0.5 -63t-1 -72.5t0 -74.5t4 -76.5t8.5 -69.5t15 -63t23.5 -48.5t33.5 -34t45 -11.5q93 0 192 40v805q-86 51 -192 51q-24 0 -43.5 -7.5t-33 -23.5t-23.5 -33.5t-15.5 -45t-8.5 -49.5t-4 -56.5t-1 -56.5t0.5 -58t0.5 -53zM409 1298q43 0 80.5 -11.5 t71.5 -36t54.5 -43.5t53.5 -54v638h256v-1791h-256v116q-58 -60 -118 -97t-138 -37q-74 0 -131.5 37.5t-92.5 96.5t-57 140t-30.5 159t-8.5 162v12q0 96 1 146t6.5 138t17 136.5t34.5 112t56 96t84 56.5t117 24z" />
<glyph unicode="e" horiz-adv-x="910" d="M349 576q0 -158 3 -196q23 -182 125 -188q31 0 54 9t37 30t22 39.5t11.5 54.5t4 58t0.5 65h255q0 -230 -91 -348t-294 -118q-73 0 -131 20t-97.5 52.5t-68.5 85t-45.5 106.5t-25.5 129.5t-12 141.5t-3 153q0 95 5.5 168t19.5 148.5t41.5 128.5t69 96.5t104 65t144.5 21.5 t144.5 -21.5t104 -65t69 -96.5t41.5 -128.5t19.5 -148.5t5.5 -168v-30h-512v-64zM605 768q0 156 -17 218q-28 102 -111 102q-27 0 -47.5 -11t-34 -26.5t-23 -43.5t-14 -50t-6.5 -60t-2.5 -58.5t-0.5 -59.5v-11h256z" />
<glyph unicode="f" horiz-adv-x="620" d="M174 1329q0 81 6 137.5t24.5 109t50 84t84 50t125.5 18.5q62 0 158 -12v-190q-10 1 -41 5.5t-45 4.5q-64 0 -85 -40.5t-21 -119.5v-96h192v-192h-192v-1088h-256v1088h-128v192h128v49z" />
<glyph unicode="g" horiz-adv-x="968" d="M82 832q0 133 42 237t130.5 166.5t211.5 62.5q71 0 124 -20t86.5 -50.5t65.5 -80.5q81 151 236 151v-210q-96 0 -160 -64q32 -94 32 -192q0 -134 -40.5 -237t-129 -165t-214.5 -62q-37 0 -81 7l-48 8q-2 -5 -10 -17.5t-12.5 -20.5t-8.5 -20.5t-4 -23.5q0 -26 25 -44 t69 -26.5t84.5 -12.5t90.5 -6.5t69 -5.5q57 -8 101.5 -18.5t91 -30.5t76.5 -48t49.5 -72t19.5 -101q0 -70 -24.5 -125t-65.5 -91t-99 -59.5t-122 -33.5t-137 -10q-48 0 -78 0.5t-82 2.5t-87 7.5t-80 14t-74.5 22.5t-56.5 33t-40.5 46.5t-13.5 61.5q0 100 53.5 171t138.5 113 q-52 14 -90 42.5t-38 69.5q0 17 4 36t9 34.5t16 35.5t17.5 31.5t21.5 32t20.5 28t21.5 27t18 22.5q-128 152 -128 384zM530 -194q27 0 48.5 1t49.5 4t48.5 9.5t39 16.5t28.5 26.5t10 37.5q0 18 -4 33q-14 76 -201 98l-211 25q-39 -28 -66.5 -81t-27.5 -111q0 -16 11 -27.5 t32.5 -17.5t44 -10t53.5 -5t53 -1t51.5 1t40.5 1zM626 832q0 55 -7 101.5t-24 91t-50 70t-79 25.5q-47 0 -80 -25.5t-49.5 -70t-23.5 -91t-7 -101.5q0 -272 160 -272t160 272z" />
<glyph unicode="h" d="M373 1142q57 52 93 79.5t99.5 52t135.5 24.5q82 0 133 -60t51 -147v-1091h-256v960q0 66 -16.5 97t-71.5 31q-78 0 -168 -75v-1013h-256v1792h256v-650z" />
<glyph unicode="i" horiz-adv-x="512" d="M128 1280h256v-1280h-256v1280zM128 1728h256v-256h-256v256z" />
<glyph unicode="j" horiz-adv-x="507" d="M86 -320q-84 0 -128 17v182q35 -7 64 -7q128 0 128 149v1259h256v-1287q0 -148 -85.5 -230.5t-234.5 -82.5zM150 1728h256v-256h-256v256z" />
<glyph unicode="k" horiz-adv-x="943" d="M373 1792v-985l320 473h256l-287 -447l287 -833h-256l-192 619l-128 -171v-448h-256v1792h256z" />
<glyph unicode="l" horiz-adv-x="497" d="M378 0h-256v1792h256v-1792z" />
<glyph unicode="m" horiz-adv-x="1504" d="M1077 1088q-39 0 -78 -15.5t-60.5 -30t-53.5 -40.5v-1002h-256v929v18v42t-3.5 36.5t-9.5 33.5t-19 20t-32 9q-94 0 -192 -81v-1007h-256v1280h256v-145q137 163 319 163q92 0 135 -40.5t58 -128.5q63 83 136 126t184 43q32 0 57.5 -6.5t44.5 -15.5t33.5 -28t24 -34 t16 -44t9.5 -48t5 -56t2 -57.5v-63.5v-14v-931h-256v934q0 87 -8 111q-15 42 -56 43z" />
<glyph unicode="n" d="M373 1142q57 52 93 79.5t99.5 52t135.5 24.5q82 0 133 -60t51 -147v-1091h-256v960q0 67 -19 97.5t-77 30.5q-33 0 -65.5 -13.5t-48.5 -25t-46 -36.5v-1013h-256v1280h256v-138z" />
<glyph unicode="o" horiz-adv-x="954" d="M477 -18q-206 0 -295 120t-89 346v384q0 226 89 346t295 120t295 -120t89 -346v-384q0 -226 -89 -346t-295 -120zM477 1088q-27 0 -47.5 -8t-34 -19.5t-22.5 -34t-14 -39.5t-7 -49t-2.5 -50.5t-0.5 -55.5v-384q0 -37 0.5 -55.5t2.5 -50.5t7 -49t14 -39.5t22.5 -34 t34 -19.5t47.5 -8t47.5 8t34 19.5t22.5 34t14 39.5t7 49t2.5 50.5t0.5 55.5v384q0 37 -0.5 55.5t-2.5 50.5t-7 49t-14 39.5t-22.5 34t-34 19.5t-47.5 8z" />
<glyph unicode="p" horiz-adv-x="1042" d="M949 576q0 -84 -8.5 -162t-31 -158.5t-57 -139.5t-92 -96.5t-131.5 -37.5q-130 0 -256 133v-499h-256v1664h256v-128q31 33 43 45t41.5 37t51 35t55 19.5t69.5 9.5q65 0 116 -23.5t84 -56.5t56 -94.5t34.5 -111.5t17.5 -135t7 -137.5t1 -144.5v-19zM693 704v10 q0 45 -0.5 72.5t-3.5 73t-8.5 74.5t-16.5 64t-26.5 55t-40 34t-55.5 14q-15 0 -28.5 -2t-28 -6.5t-24 -8t-24.5 -11.5t-21.5 -11.5t-22.5 -13.5t-20 -12v-792q88 -52 192 -52q41 0 68.5 30t40 85.5t17 110t4.5 127.5q0 31 -1 84.5t-1 74.5z" />
<glyph unicode="q" horiz-adv-x="1042" d="M409 1298q43 0 80.5 -11.5t72 -36.5t54 -43.5t53.5 -54.5v128h256v-1664h-256v499q-57 -59 -117.5 -96t-138.5 -37q-74 0 -131.5 37.5t-92 96.5t-57 139.5t-31 158.5t-8.5 162v12q0 96 1 146.5t6.5 138.5t17 136.5t34.5 112t56 96t84 56.5t117 24zM349 704 q0 -21 -0.5 -63.5t-1 -73t0 -74t4 -76t8.5 -69.5t15 -63t23.5 -48.5t33.5 -33.5t45 -11q101 0 192 52v792q-4 2 -20 12t-22.5 13.5t-21.5 11.5t-24.5 11.5t-24 8t-28 6.5t-28.5 2q-31 0 -55.5 -14t-40.5 -34t-27 -56t-16.5 -64t-8 -75t-3 -72.5t-0.5 -72.5v-9z" />
<glyph unicode="r" horiz-adv-x="680" d="M373 1109q39 76 113.5 132.5t165.5 56.5q3 0 41 -4v-283q-71 28 -142 28q-80 0 -129 -48t-49 -127v-864h-256v1280h256v-171z" />
<glyph unicode="s" horiz-adv-x="872" d="M632 896q-14 38 -28 65.5t-37.5 59.5t-55.5 49.5t-71 17.5q-61 0 -94.5 -33.5t-33.5 -94.5q0 -60 64 -108l256 -192q43 -34 73.5 -65.5t59.5 -73t44 -92.5t15 -109q0 -164 -104.5 -251t-279.5 -87q-158 0 -253.5 94t-130.5 244l192 64q69 -192 192 -192q61 0 94.5 33.5 t33.5 94.5q0 89 -64 148l-256 192q-43 29 -72 54.5t-59 62.5t-45.5 83t-15.5 100q0 164 104.5 251t279.5 87q83 0 150 -26.5t112.5 -74.5t75 -106.5t46.5 -130.5z" />
<glyph unicode="t" horiz-adv-x="658" d="M617 -6q-96 -12 -158 -12q-151 0 -219.5 77t-70.5 233v796h-128v192h128v448h256v-448h192v-192h-192v-747q0 -77 21 -113t85 -36q29 0 86 10v-208z" />
<glyph unicode="u" d="M619 138q-38 -33 -55.5 -48t-53.5 -40.5t-63.5 -37t-68.5 -21t-85 -9.5q-84 0 -135 59.5t-51 147.5v1091h256v-1013q0 -40 24.5 -65t63.5 -25q21 0 41 5t39.5 17.5t30.5 20t31.5 25.5t25.5 22v1013h256v-1280h-256v138z" />
<glyph unicode="v" horiz-adv-x="864" d="M304 0l-288 1280h256l160 -960l160 960h256l-286 -1280h-258z" />
<glyph unicode="w" horiz-adv-x="1269" d="M635 882l-138 -882h-246l-237 1280h227l142 -972l134 972h234l136 -962l140 962h228l-248 -1280h-236z" />
<glyph unicode="x" horiz-adv-x="838" d="M259 640v64l-256 576h256l152 -503l168 503h256l-256 -576v-64l256 -640h-256l-152 503l-168 -503h-256z" />
<glyph unicode="y" horiz-adv-x="842" d="M74 -128q104 0 165 46t61 140l-290 1222h256q149 -823 161 -896q21 135 47.5 284.5t60 330t51.5 281.5h256l-320 -1344q-33 -142 -142.5 -199t-305.5 -57v192z" />
<glyph unicode="z" horiz-adv-x="782" d="M489 1088h-384v192h640v-192l-448 -896h448v-192h-704v192z" />
<glyph unicode="{" horiz-adv-x="704" d="M448 1408q0 -422 -192 -512q95 -41 143.5 -139.5t48.5 -244.5q0 -172 15 -237q28 -124 131 -143q21 -4 46 -4v-192q-132 0 -221 37t-138 114t-69 178t-20 247q0 13 0.5 42.5t0 41t-1.5 36.5t-3 35t-6.5 28t-11 26t-16 19.5t-22.5 16t-30 8t-38 3.5v256q24 0 43 7t32 23.5 t23 32.5t15.5 45.5t9 49.5t4.5 56.5t1.5 56t0 59t-0.5 54.5q0 131 21.5 214.5t75 137t137 75t214.5 21.5v-192q-39 0 -68 -5t-49.5 -13t-34.5 -25t-22 -34t-12 -47.5t-5 -58t-1 -73.5z" />
<glyph unicode="|" horiz-adv-x="384" d="M128 1920h192v-2048h-192v2048z" />
<glyph unicode="}" horiz-adv-x="704" d="M64 128q28 0 52 4.5t42 16t32 23t24.5 33t17.5 37.5t11.5 45.5t7 48.5t4 55t1.5 55.5v59.5v6q0 145 48.5 244.5t143.5 139.5q-192 86 -192 512q0 36 -0.5 58.5t-2.5 49t-6 42t-10.5 33.5t-16.5 28t-24 20t-33.5 14.5t-43.5 7.5t-55 3v192q173 0 268.5 -42t137.5 -137.5 t42 -268.5q0 -16 -0.5 -54.5t-0.5 -58.5t1.5 -56.5t4.5 -57t9 -49t15.5 -45t23 -33t32.5 -23.5t43 -7v-256q-32 0 -55 -7.5t-36.5 -21t-22 -33t-11 -44t-3.5 -53t0 -60.5v-37q0 -117 -12 -203t-42 -159t-80.5 -118.5t-128.5 -70.5t-185 -25v192z" />
<glyph unicode="~" horiz-adv-x="960" d="M613 812q-48 0 -98.5 22t-97.5 43.5t-88 21.5q-48 0 -48 -67h-154q0 116 57.5 194.5t162.5 78.5q58 0 145 -43t136 -43q51 0 51 69h154q0 -119 -56.5 -197.5t-163.5 -78.5z" />
<glyph unicode="&#xa1;" horiz-adv-x="384" d="M128 1152h128v-1152h-192zM64 1536h256v-256h-256v256z" />
<glyph unicode="&#xa2;" horiz-adv-x="1027" d="M479 -15q-88 7 -151 36t-101 73t-60.5 114t-30 145t-7.5 179v201q0 100 8.5 177t32 147.5t62 118t100.5 79t147 39.5v114h78v-114q178 -20 259 -137t81 -326l-256 1q0 101 -16 159t-68 82v-866q24 12 40.5 32.5t25 42.5t12.5 58t5 62t1 71h256q0 -5 0.5 -20t0.5 -23 q0 -191 -86.5 -308t-254.5 -136v-114h-78v113zM479 1071q-23 -11 -40.5 -30.5t-27.5 -50t-16.5 -56.5t-8.5 -71t-2.5 -70.5t0.5 -79t1 -73.5q0 -24 -1 -73t-1 -79t1.5 -73.5t7.5 -72t16 -58.5t28 -49t43 -29v865z" />
<glyph unicode="&#xa3;" horiz-adv-x="896" d="M640 1344q0 53 -4 91t-16 79.5t-39 63.5t-69 22q-33 0 -57 -17.5t-36.5 -42.5t-20.5 -65t-10.5 -71t-3.5 -74v-370h256v-192h-256v-576h448v-192h-832v128l128 63v577h-128v192h128v192q0 83 3 146t12.5 135t26 124t45.5 102t69 81.5t97.5 50.5t130.5 19 q165 0 241.5 -104t78.5 -284v-78h-192z" />
<glyph unicode="&#xa4;" horiz-adv-x="1024" d="M281 1217q97 63 231 63t231 -63l86 86l90 -90l-87 -87q64 -98 64 -229q0 -132 -64 -232l87 -86l-90 -90l-86 86q-97 -63 -231 -63t-231 63l-86 -86l-90 90l86 86q-63 96 -63 232q0 133 63 230l-86 86l90 90zM320 897q0 -96 50.5 -155.5t141.5 -59.5t141.5 59t50.5 155 t-50.5 155t-141.5 59q-92 0 -142 -58.5t-50 -154.5z" />
<glyph unicode="&#xa5;" horiz-adv-x="1024" d="M384 0v256h-192v168h192v129h-192v166h149l-293 1073h260l204 -944l202 944h260l-295 -1073h153v-166h-192v-129h192v-168h-192v-256h-256z" />
<glyph unicode="&#xa6;" horiz-adv-x="395" d="M94 614h203v-628h-203v628zM94 1518h203v-629h-203v629z" />
<glyph unicode="&#xa7;" horiz-adv-x="960" d="M672 1408q-14 38 -28 65.5t-37.5 59.5t-55.5 49.5t-71 17.5q-61 0 -94.5 -33.5t-33.5 -94.5q0 -60 64 -108q16 -9 49 -27q53 -28 81 -44t77.5 -47t77 -54.5t63 -60.5t54.5 -72t32.5 -81t13.5 -96q0 -195 -158 -286q73 -59 115.5 -123t42.5 -152q0 -164 -104.5 -251 t-279.5 -87q-82 0 -149 27t-112.5 75t-75.5 106.5t-47 129.5l192 64q69 -192 192 -192q61 0 94.5 33.5t33.5 94.5q0 49 -17.5 90t-46.5 58l-256 156q-60 36 -98.5 71t-66 94t-27.5 135q0 110 49.5 186t136.5 115q-43 25 -69 43.5t-56.5 48.5t-45.5 68.5t-15 85.5 q0 164 104.5 251t279.5 87q83 0 149.5 -26.5t112.5 -74.5t75.5 -107t46.5 -130zM512 754q96 45 96 128q0 24 -10 47t-33.5 47t-36.5 36t-45.5 36.5t-34.5 25.5q-96 -57 -96 -149q0 -34 19 -63t45 -45z" />
<glyph unicode="&#xa8;" horiz-adv-x="896" d="M128 1792h256v-256h-256v256zM512 1792h256v-256h-256v256z" />
<glyph unicode="&#xa9;" horiz-adv-x="1528" d="M655 721q0 -18 -0.5 -50t-1 -54t0 -52.5t3 -52t7.5 -46.5t13.5 -41.5t20.5 -31t30 -21.5t40 -7q35 0 58 18t32.5 52.5t12.5 65.5t3 77h179v-16q0 -156 -70.5 -250.5t-214.5 -94.5q-58 0 -103.5 14.5t-76 37t-52 61.5t-33.5 77t-18.5 95.5t-8 104.5t-1.5 116q0 87 6 149 t24 123.5t50 99.5t87 61.5t132 23.5q281 0 281 -340h-183q0 41 -3 70t-12 61t-29.5 48.5t-51.5 16.5q-23 0 -41.5 -5t-31.5 -17t-22 -24.5t-14.5 -34t-8.5 -38.5t-3.5 -46t-0.5 -47.5t0.5 -51.5t0.5 -51zM764 1260q-153 0 -273.5 -75.5t-184.5 -203.5t-64 -285 q0 -155 65 -283.5t185 -204t272 -75.5t272 75.5t185 203.5t65 284q0 117 -38 221t-105.5 179.5t-165.5 119.5t-213 44zM70 700q0 202 88 365t247 256.5t359 93.5q150 0 279.5 -55t220 -150t142.5 -227.5t52 -282.5q0 -201 -88.5 -364t-247.5 -256.5t-358 -93.5 q-150 0 -279.5 55t-220 150t-142.5 227t-52 282z" />
<glyph unicode="&#xaa;" horiz-adv-x="842" d="M141 568q2 134 73 214.5t199 80.5q79 0 132 -22.5t81.5 -69t40 -105.5t11.5 -145v-521h-177v111q-29 -53 -82.5 -87t-117.5 -34q-83 0 -138 55t-55 138q0 68 26.5 117.5t90 84.5t101 49.5t124.5 40.5q24 7 35 11v94q0 139 -76 139q-90 0 -90 -151h-178zM485 408 q-95 -51 -124 -76q-58 -47 -58 -104q0 -39 18.5 -61.5t52.5 -22.5q36 0 66 22t45 53v189z" />
<glyph unicode="&#xab;" horiz-adv-x="1024" d="M64 704l448 512v-320l-256 -255l256 -257v-320l-448 512v128zM512 704l448 512v-320l-256 -255l256 -257v-320l-448 512v128z" />
<glyph unicode="&#xac;" horiz-adv-x="768" d="M128 640h512v-384h-128v192h-384v192z" />
<glyph unicode="&#xad;" horiz-adv-x="768" d="M128 640h512v-192h-512v192z" />
<glyph unicode="&#xae;" horiz-adv-x="1528" d="M764 1260q-153 0 -273.5 -75.5t-184.5 -203.5t-64 -285q0 -155 65 -283.5t185 -204t272 -75.5t272 75.5t185 203.5t65 284q0 117 -38 221t-105.5 179.5t-165.5 119.5t-213 44zM70 700q0 202 88 365t247 256.5t359 93.5q150 0 279.5 -55t220 -150t142.5 -227.5t52 -282.5 q0 -201 -88.5 -364t-247.5 -256.5t-358 -93.5q-150 0 -279.5 55t-220 150t-142.5 227t-52 282zM1049 248h-168l-127 385h-82v-385h-156v919h240q270 0 270 -274q0 -155 -125 -223zM705 729q93 0 127 35.5t34 132.5q0 75 -28.5 113.5t-94.5 38.5h-71v-320h33z" />
<glyph unicode="&#xaf;" horiz-adv-x="640" d="M123 1559h434v-152h-434v152z" />
<glyph unicode="&#xb0;" horiz-adv-x="1024" d="M512 1810q180 0 282 -102.5t102 -280.5q0 -179 -102 -282t-282 -103t-282 103t-102 282q0 178 102 280.5t282 102.5zM320 1427q0 -96 50.5 -155.5t141.5 -59.5t141.5 59t50.5 155t-50.5 155t-141.5 59q-92 0 -142 -58.5t-50 -154.5z" />
<glyph unicode="&#xb1;" horiz-adv-x="832" d="M128 192h576v-192h-576v192zM320 384v192h-192v192h192v192h192v-192h192v-192h-192v-192h-192z" />
<glyph unicode="&#xb2;" horiz-adv-x="640" d="M576 1216q0 -71 -37.5 -148.5t-81.5 -130.5t-109.5 -125.5t-91.5 -107.5h320v-128h-512v128l192 256q7 9 27.5 35.5t30 39t26 38.5t24 45t14 45.5t6.5 52.5q0 21 -0.5 32t-2 29t-5.5 27.5t-11 20t-18 15t-27 4.5t-27 -4.5t-18 -15t-11 -20t-5.5 -27.5t-2 -29t-0.5 -32 h-192q0 121 66.5 188.5t189.5 67.5t189.5 -67.5t66.5 -188.5z" />
<glyph unicode="&#xb3;" horiz-adv-x="768" d="M320 1152q73 0 100.5 28t27.5 100q0 21 -0.5 32t-2 29t-5.5 27.5t-11 20t-18 15t-27 4.5t-27 -4.5t-18 -15t-11 -20t-5.5 -27.5t-2 -29t-0.5 -32h-192q0 121 66.5 188.5t189.5 67.5t189.5 -67.5t66.5 -188.5q0 -91 -51.5 -140t-140.5 -52q90 -6 141 -53t51 -139 q0 -121 -66.5 -188.5t-189.5 -67.5t-189.5 67t-66.5 189h192q0 -21 0.5 -32t2 -29t5.5 -27.5t11 -20t18 -15t27 -4.5t27 4.5t18 15t11 20t5.5 27.5t2 29t0.5 32q0 71 -28 99.5t-100 28.5v128z" />
<glyph unicode="&#xb4;" horiz-adv-x="640" d="M256 1408h-128l128 384h256z" />
<glyph unicode="&#xb5;" horiz-adv-x="1024" d="M640 138q-60 -132 -256 -138v-256h-256v1536h256v-1013q0 -40 24.5 -65t63.5 -25q21 0 41 5t39.5 17.5t30.5 20t31.5 25.5t25.5 22v1013h256v-1280h-256v138z" />
<glyph unicode="&#xb6;" horiz-adv-x="952" d="M382 876q-164 0 -265 86t-101 242q0 169 107 250.5t300 81.5h473v-1536h-178v876h-139v-876h-197v876z" />
<glyph unicode="&#xb7;" horiz-adv-x="0" />
<glyph unicode="&#xb8;" horiz-adv-x="576" d="M256 -128q47 -13 81.5 -26t79.5 -36t70 -56t25 -74q0 -38 -11 -67.5t-28.5 -49.5t-46 -34t-56.5 -22t-69 -12.5t-73.5 -5.5t-78.5 -1h-85v128q15 0 51.5 -1t56.5 -1q68 0 108 13.5t40 52.5q0 14 -7.5 27t-22 24.5t-29 20.5t-36.5 18.5t-35 15t-35 13t-27 9.5v192h128 v-128z" />
<glyph unicode="&#xb9;" horiz-adv-x="512" d="M64 1344q168 83 256 192h64v-896h-192v576h-128v128z" />
<glyph unicode="&#xba;" horiz-adv-x="899" d="M450 -14q-189 0 -270 108t-81 316v319q0 208 81 316t270 108q180 0 265 -113t85 -311v-319q0 -198 -85 -311t-265 -113zM574 688q0 132 -12 177q-24 87 -117 87q-27 0 -48 -8t-35 -19.5t-24 -33.5t-15 -40.5t-7.5 -50t-3 -53.5t-0.5 -59v-237q0 -43 1 -68.5t4.5 -61 t12.5 -56t23 -41t37 -29.5t55 -9q19 0 35.5 3t28.5 11.5t21.5 16t16.5 23.5t11.5 26t7.5 32.5t5 33.5t2.5 38.5t0.5 38.5v42v237z" />
<glyph unicode="&#xbb;" horiz-adv-x="1024" d="M960 576l-448 -512v320l256 257l-256 255v320l448 -512v-128zM512 576l-448 -512v320l256 257l-256 255v320l448 -512v-128z" />
<glyph unicode="&#xbc;" horiz-adv-x="1601" d="M1216 258h-320v128l340 576h172v-576h128v-128h-128v-256h-192v256zM1216 386v256l-128 -256h128zM895 1792h257l-576 -1792h-256zM64 1344q168 83 256 192h64v-896h-192v576h-128v128z" />
<glyph unicode="&#xbd;" horiz-adv-x="1600" d="M1536 642q0 -71 -37.5 -148.5t-81.5 -130.5t-109.5 -125.5t-91.5 -107.5h320v-128h-512v128l192 256q7 9 27.5 35.5t30 39t26 38.5t24 45t14 45.5t6.5 52.5q0 21 -0.5 32t-2 29t-5.5 27.5t-11 20t-18 15t-27 4.5t-27 -4.5t-18 -15t-11 -20t-5.5 -27.5t-2 -29t-0.5 -32 h-192q0 121 66.5 188.5t189.5 67.5t189.5 -67.5t66.5 -188.5zM895 1792h257l-576 -1792h-256zM64 1344q168 83 256 192h64v-896h-192v576h-128v128z" />
<glyph unicode="&#xbe;" horiz-adv-x="1793" d="M1344 258h-320v128l340 576h172v-576h128v-128h-128v-256h-192v256zM1344 386v256l-128 -256h128zM1023 1792h257l-576 -1792h-256zM320 1152q73 0 100.5 28t27.5 100q0 21 -0.5 32t-2 29t-5.5 27.5t-11 20t-18 15t-27 4.5t-27 -4.5t-18 -15t-11 -20t-5.5 -27.5t-2 -29 t-0.5 -32h-192q0 121 66.5 188.5t189.5 67.5t189.5 -67.5t66.5 -188.5q0 -91 -51.5 -140t-140.5 -52q90 -6 141 -53t51 -139q0 -121 -66.5 -188.5t-189.5 -67.5t-189.5 67t-66.5 189h192q0 -21 0.5 -32t2 -29t5.5 -27.5t11 -20t18 -15t27 -4.5t27 4.5t18 15t11 20t5.5 27.5 t2 29t0.5 32q0 71 -28 99.5t-100 28.5v128z" />
<glyph unicode="&#xbf;" horiz-adv-x="891" d="M80 346q0 41 10.5 84t23 75.5t40.5 75t43.5 64.5t53.5 63.5t48.5 53t49.5 50.5v217h216v-269q-12 -15 -55 -65.5t-68.5 -84.5t-58 -84.5t-49 -100.5t-16.5 -97q0 -126 112 -126q42 0 71 17.5t43.5 49.5t20.5 68.5t6 83.5h219v-25q0 -186 -91.5 -293.5t-268.5 -107.5 q-350 0 -350 351zM564 1106h-221v223h221v-223z" />
<glyph unicode="&#xc0;" horiz-adv-x="1038" d="M199 2296h256l128 -384h-128zM359 448l-96 -448h-256l384 1792h256l384 -1792h-256l-96 448h-320zM647 640l-128 768l-128 -768h256z" />
<glyph unicode="&#xc1;" horiz-adv-x="1038" d="M583 1912h-128l128 384h256zM359 448l-96 -448h-256l384 1792h256l384 -1792h-256l-96 448h-320zM647 640l-128 768l-128 -768h256z" />
<glyph unicode="&#xc2;" horiz-adv-x="1038" d="M519 2168l-128 -256h-192l192 384h256l192 -384h-192zM359 448l-96 -448h-256l384 1792h256l384 -1792h-256l-96 448h-320zM647 640l-128 768l-128 -768h256z" />
<glyph unicode="&#xc3;" horiz-adv-x="1038" d="M652 1912q-60 0 -148 43.5t-136 43.5t-48 -67h-154q0 116 57.5 194.5t162.5 78.5q58 0 145 -43t136 -43q51 0 51 69h154q0 -117 -57.5 -196.5t-162.5 -79.5zM359 448l-96 -448h-256l384 1792h256l384 -1792h-256l-96 448h-320zM647 640l-128 768l-128 -768h256z" />
<glyph unicode="&#xc4;" horiz-adv-x="1038" d="M199 2168h256v-256h-256v256zM583 2168h256v-256h-256v256zM359 448l-96 -448h-256l384 1792h256l384 -1792h-256l-96 448h-320zM647 640l-128 768l-128 -768h256z" />
<glyph unicode="&#xc5;" horiz-adv-x="1038" d="M647 2113q0 29 -9 53t-25 40.5t-40 25.5t-54 9q-60 0 -94 -34t-34 -94t34 -94t94 -34t94 34.5t34 93.5zM263 2113q0 116 69.5 186t186.5 70q78 0 136 -32t89 -90t31 -134q0 -116 -69.5 -186t-186.5 -70t-186.5 70t-69.5 186zM359 448l-96 -448h-256l384 1792h256 l384 -1792h-256l-96 448h-320zM647 640l-128 768l-128 -768h256z" />
<glyph unicode="&#xc6;" horiz-adv-x="1408" d="M1216 832h-320v-640h448v-192h-704v448h-320l-191 -448h-255l764 1792h706v-192h-448v-576h320v-192zM640 640v658l-247 -658h247z" />
<glyph unicode="&#xc7;" horiz-adv-x="1107" d="M644 -129q25 -7 44.5 -13t47.5 -16.5t49 -21t44 -26t37.5 -32t24 -38t9.5 -45.5q0 -26 -4.5 -49t-15 -40.5t-23.5 -31.5t-31.5 -24.5t-37 -18t-43.5 -12.5t-47.5 -8.5t-52 -5t-53 -2t-54.5 -0.5h-86v128q15 0 52 -1t56 -1q33 0 56.5 2.5t46 9t34 20.5t11.5 34q0 14 -7 27 t-22 24.5t-29 20.5t-36 18.5t-35.5 15t-35 13t-27.5 9.5v192h128v-128zM1065 576q0 -139 -24.5 -244t-79 -185.5t-148 -122.5t-225.5 -42q-113 0 -199 32t-141 88.5t-89.5 141t-48.5 180.5t-14 217v511q0 121 14 217t48.5 180.5t89.5 140.5t141 88t199 32q132 0 226 -41.5 t148.5 -121.5t78.5 -185.5t24 -245.5h-256q0 43 -0.5 71t-2.5 65t-6.5 61t-12.5 52.5t-19 46.5t-27.5 36.5t-38 28.5t-50.5 16.5t-64 6.5q-62 0 -106.5 -20t-69.5 -51.5t-38.5 -84.5t-17.5 -103.5t-4 -124.5v-640q0 -64 5.5 -116t21.5 -103.5t41.5 -86.5t68 -56.5 t99.5 -21.5t98 22t64.5 56t37 87t17.5 103t4 116v64h256v-64z" />
<glyph unicode="&#xc8;" horiz-adv-x="861" d="M160 2296h256l128 -384h-128zM704 832h-320v-640h448v-192h-704v1792h704v-192h-448v-576h320v-192z" />
<glyph unicode="&#xc9;" horiz-adv-x="861" d="M544 1912h-128l128 384h256zM704 832h-320v-640h448v-192h-704v1792h704v-192h-448v-576h320v-192z" />
<glyph unicode="&#xca;" horiz-adv-x="861" d="M480 2168l-128 -256h-192l192 384h256l192 -384h-192zM704 832h-320v-640h448v-192h-704v1792h704v-192h-448v-576h320v-192z" />
<glyph unicode="&#xcb;" horiz-adv-x="861" d="M160 2168h256v-256h-256v256zM544 2168h256v-256h-256v256zM704 832h-320v-640h448v-192h-704v1792h704v-192h-448v-576h320v-192z" />
<glyph unicode="&#xcc;" horiz-adv-x="542" d="M-52 2296h256l128 -384h-128zM140 1792h256v-1792h-256v1792z" />
<glyph unicode="&#xcd;" horiz-adv-x="542" d="M332 1912h-128l128 384h256zM140 1792h256v-1792h-256v1792z" />
<glyph unicode="&#xce;" horiz-adv-x="542" d="M268 2168l-128 -256h-192l192 384h256l192 -384h-192zM140 1792h256v-1792h-256v1792z" />
<glyph unicode="&#xcf;" horiz-adv-x="542" d="M-52 2168h256v-256h-256v256zM332 2168h256v-256h-256v256zM140 1792h256v-1792h-256v1792z" />
<glyph unicode="&#xd0;" horiz-adv-x="1152" d="M1024 576q0 -295 -117.5 -435.5t-396.5 -140.5h-382v852h-94v152h94v788h384q281 0 396.5 -115t115.5 -397v-704zM768 1216q0 49 -0.5 78t-3 68.5t-7.5 62.5t-14 51.5t-22.5 44.5t-33 33.5t-45 26t-59.5 14t-76 5.5h-123v-596h144v-152h-144v-660h128q38 0 69.5 5 t56 14.5t43.5 23t32.5 31.5t23.5 39.5t15.5 46.5t9 53.5t4.5 59.5t2 65t0 71v13v12.5v13.5v576z" />
<glyph unicode="&#xd1;" horiz-adv-x="1152" d="M709 1912q-48 0 -98.5 22t-97.5 43.5t-88 21.5q-48 0 -48 -67h-154q0 116 57.5 194.5t162.5 78.5q58 0 145 -43t136 -43q51 0 51 69h154q0 -117 -57.5 -196.5t-162.5 -79.5zM842 0l-458 1192v-1192h-256v1792h192l448 -1108v1108h256v-1792h-182z" />
<glyph unicode="&#xd2;" horiz-adv-x="1180" d="M270 2296h256l128 -384h-128zM590 1810q262 0 378 -150t116 -434v-650q0 -139 -26.5 -245.5t-83.5 -186t-153.5 -121t-230.5 -41.5q-135 0 -231.5 41t-153.5 120t-83 185.5t-26 247.5v650q0 141 26 246t83 182.5t153.5 116.5t231.5 39zM590 1600q-136 0 -187 -77 t-51 -233v-778q0 -158 51.5 -239t186.5 -81t186.5 81t51.5 239v778q0 156 -51 233t-187 77z" />
<glyph unicode="&#xd3;" horiz-adv-x="1180" d="M654 1912h-128l128 384h256zM590 1810q262 0 378 -150t116 -434v-650q0 -139 -26.5 -245.5t-83.5 -186t-153.5 -121t-230.5 -41.5q-135 0 -231.5 41t-153.5 120t-83 185.5t-26 247.5v650q0 141 26 246t83 182.5t153.5 116.5t231.5 39zM590 1600q-136 0 -187 -77t-51 -233 v-778q0 -158 51.5 -239t186.5 -81t186.5 81t51.5 239v778q0 156 -51 233t-187 77z" />
<glyph unicode="&#xd4;" horiz-adv-x="1180" d="M590 2168l-128 -256h-192l192 384h256l192 -384h-192zM590 1810q262 0 378 -150t116 -434v-650q0 -139 -26.5 -245.5t-83.5 -186t-153.5 -121t-230.5 -41.5q-135 0 -231.5 41t-153.5 120t-83 185.5t-26 247.5v650q0 141 26 246t83 182.5t153.5 116.5t231.5 39zM590 1600 q-136 0 -187 -77t-51 -233v-778q0 -158 51.5 -239t186.5 -81t186.5 81t51.5 239v778q0 156 -51 233t-187 77z" />
<glyph unicode="&#xd5;" horiz-adv-x="1180" d="M723 1912q-48 0 -98.5 22t-97.5 43.5t-88 21.5q-48 0 -48 -67h-154q0 116 57.5 194.5t162.5 78.5q58 0 145 -43t136 -43q51 0 51 69h154q0 -117 -57.5 -196.5t-162.5 -79.5zM590 1810q262 0 378 -150t116 -434v-650q0 -139 -26.5 -245.5t-83.5 -186t-153.5 -121 t-230.5 -41.5q-135 0 -231.5 41t-153.5 120t-83 185.5t-26 247.5v650q0 141 26 246t83 182.5t153.5 116.5t231.5 39zM590 1600q-136 0 -187 -77t-51 -233v-778q0 -158 51.5 -239t186.5 -81t186.5 81t51.5 239v778q0 156 -51 233t-187 77z" />
<glyph unicode="&#xd6;" horiz-adv-x="1180" d="M270 2168h256v-256h-256v256zM654 2168h256v-256h-256v256zM590 1810q262 0 378 -150t116 -434v-650q0 -139 -26.5 -245.5t-83.5 -186t-153.5 -121t-230.5 -41.5q-135 0 -231.5 41t-153.5 120t-83 185.5t-26 247.5v650q0 141 26 246t83 182.5t153.5 116.5t231.5 39z M590 1600q-136 0 -187 -77t-51 -233v-778q0 -158 51.5 -239t186.5 -81t186.5 81t51.5 239v778q0 156 -51 233t-187 77z" />
<glyph unicode="&#xd7;" horiz-adv-x="768" d="M384 512l-192 -192l-128 128l192 192l-192 192l128 128l192 -192l192 192l128 -128l-192 -192l192 -192l-128 -128z" />
<glyph unicode="&#xd8;" horiz-adv-x="1180" d="M364 -156l-90 28l45 171q-117 66 -170 200t-53 333v650q0 141 26 246t83 182.5t153.5 116.5t231.5 39q106 0 189 -25l42 159l93 -24l-46 -174q216 -126 216 -520v-650q0 -139 -26.5 -245.5t-83.5 -186t-153.5 -121t-230.5 -41.5q-103 0 -183 24zM590 1600 q-70 0 -117.5 -20.5t-73.5 -63t-36.5 -96.5t-10.5 -130v-778q0 -138 35 -211l336 1270q-52 29 -133 29zM799 1484l-336 -1265q51 -27 127 -27q135 0 186.5 81t51.5 239v778q0 126 -29 194z" />
<glyph unicode="&#xd9;" horiz-adv-x="1252" d="M306 2296h256l128 -384h-128zM1138 640q0 -123 -15 -220.5t-51 -181.5t-93.5 -139.5t-146.5 -86.5t-206 -31t-206 31t-146.5 86.5t-93.5 139.5t-51 181.5t-15 220.5v1152h256v-1152q0 -83 3.5 -139t18.5 -119.5t41.5 -101.5t75 -63t117.5 -25t117.5 25t75 63t41.5 101.5 t18.5 119.5t3.5 139v1152h256v-1152z" />
<glyph unicode="&#xda;" horiz-adv-x="1252" d="M690 1912h-128l128 384h256zM1138 640q0 -123 -15 -220.5t-51 -181.5t-93.5 -139.5t-146.5 -86.5t-206 -31t-206 31t-146.5 86.5t-93.5 139.5t-51 181.5t-15 220.5v1152h256v-1152q0 -83 3.5 -139t18.5 -119.5t41.5 -101.5t75 -63t117.5 -25t117.5 25t75 63t41.5 101.5 t18.5 119.5t3.5 139v1152h256v-1152z" />
<glyph unicode="&#xdb;" horiz-adv-x="1252" d="M626 2168l-128 -256h-192l192 384h256l192 -384h-192zM1138 640q0 -123 -15 -220.5t-51 -181.5t-93.5 -139.5t-146.5 -86.5t-206 -31t-206 31t-146.5 86.5t-93.5 139.5t-51 181.5t-15 220.5v1152h256v-1152q0 -83 3.5 -139t18.5 -119.5t41.5 -101.5t75 -63t117.5 -25 t117.5 25t75 63t41.5 101.5t18.5 119.5t3.5 139v1152h256v-1152z" />
<glyph unicode="&#xdc;" horiz-adv-x="1252" d="M306 2168h256v-256h-256v256zM690 2168h256v-256h-256v256zM1138 640q0 -123 -15 -220.5t-51 -181.5t-93.5 -139.5t-146.5 -86.5t-206 -31t-206 31t-146.5 86.5t-93.5 139.5t-51 181.5t-15 220.5v1152h256v-1152q0 -83 3.5 -139t18.5 -119.5t41.5 -101.5t75 -63 t117.5 -25t117.5 25t75 63t41.5 101.5t18.5 119.5t3.5 139v1152h256v-1152z" />
<glyph unicode="&#xdd;" horiz-adv-x="1018" d="M573 1912h-128l128 384h256zM381 0v576l-384 1216h256l256 -896l256 896h256l-384 -1216v-576h-256z" />
<glyph unicode="&#xde;" horiz-adv-x="952" d="M457 364h-131v-364h-254v1792h252v-381h180q216 0 321.5 -137.5t105.5 -387.5q0 -264 -118.5 -393t-355.5 -129zM369 581q155 0 227.5 65.5t72.5 241.5q0 164 -63.5 232t-204.5 68h-77v-607h45z" />
<glyph unicode="&#xdf;" horiz-adv-x="1152" d="M512 192q79 0 129.5 18.5t78.5 61t38 98.5t10 142q0 141 -64.5 220.5t-191.5 79.5v212q56 0 96 27t62 74.5t31.5 101t9.5 117.5q0 60 -6.5 102t-23.5 79t-51 56t-86 19q-49 0 -81.5 -17.5t-49 -52.5t-23 -75t-6.5 -96v-1359h-256v1354q0 207 98.5 331.5t285.5 124.5 q223 0 335.5 -120t112.5 -346q0 -153 -54 -248.5t-165 -156.5q132 -36 207.5 -148t75.5 -279q0 -265 -125 -397.5t-387 -132.5v210z" />
<glyph unicode="&#xe0;" horiz-adv-x="922" d="M136 1784h256l128 -384h-128zM439 1298q179 0 281.5 -110.5t102.5 -291.5v-576q0 -200 33 -320h-255l-34 192q-20 -40 -32.5 -62t-36.5 -54.5t-48 -50t-60 -30.5t-79 -13q-107 0 -181.5 92.5t-74.5 208.5q0 93 31.5 169t66.5 121.5t117 94t124 67t146 58.5q18 7 27 11v92 q0 97 -27 150.5t-101 53.5q-50 0 -79.5 -29t-39 -71t-9.5 -104h-256q2 184 103 293t281 109zM567 640q-16 -11 -53 -34t-59 -37.5t-53 -40t-48 -49t-30 -57.5t-13 -71q0 -159 128 -159q27 0 52.5 16t39 31.5t31.5 39.5q3 5 5 7v354z" />
<glyph unicode="&#xe1;" horiz-adv-x="922" d="M520 1400h-128l128 384h256zM439 1298q179 0 281.5 -110.5t102.5 -291.5v-576q0 -200 33 -320h-255l-34 192q-20 -40 -32.5 -62t-36.5 -54.5t-48 -50t-60 -30.5t-79 -13q-107 0 -181.5 92.5t-74.5 208.5q0 93 31.5 169t66.5 121.5t117 94t124 67t146 58.5q18 7 27 11v92 q0 97 -27 150.5t-101 53.5q-50 0 -79.5 -29t-39 -71t-9.5 -104h-256q2 184 103 293t281 109zM567 640q-16 -11 -53 -34t-59 -37.5t-53 -40t-48 -49t-30 -57.5t-13 -71q0 -159 128 -159q27 0 52.5 16t39 31.5t31.5 39.5q3 5 5 7v354z" />
<glyph unicode="&#xe2;" horiz-adv-x="922" d="M456 1656l-128 -256h-192l192 384h256l192 -384h-192zM439 1298q179 0 281.5 -110.5t102.5 -291.5v-576q0 -200 33 -320h-255l-34 192q-20 -40 -32.5 -62t-36.5 -54.5t-48 -50t-60 -30.5t-79 -13q-107 0 -181.5 92.5t-74.5 208.5q0 93 31.5 169t66.5 121.5t117 94t124 67 t146 58.5q18 7 27 11v92q0 97 -27 150.5t-101 53.5q-50 0 -79.5 -29t-39 -71t-9.5 -104h-256q2 184 103 293t281 109zM567 640q-16 -11 -53 -34t-59 -37.5t-53 -40t-48 -49t-30 -57.5t-13 -71q0 -159 128 -159q27 0 52.5 16t39 31.5t31.5 39.5q3 5 5 7v354z" />
<glyph unicode="&#xe3;" horiz-adv-x="922" d="M588 1400q-59 0 -147.5 43.5t-136.5 43.5q-26 0 -37 -17t-11 -50h-154q0 55 14 104t41 87t69.5 60t95.5 22q58 0 145 -43t137 -43t50 69h154q0 -75 -23.5 -136.5t-74.5 -100.5t-122 -39zM439 1298q179 0 281.5 -110.5t102.5 -291.5v-576q0 -200 33 -320h-255l-34 192 q-20 -40 -32.5 -62t-36.5 -54.5t-48 -50t-60 -30.5t-79 -13q-107 0 -181.5 92.5t-74.5 208.5q0 93 31.5 169t66.5 121.5t117 94t124 67t146 58.5q18 7 27 11v92q0 97 -27 150.5t-101 53.5q-50 0 -79.5 -29t-39 -71t-9.5 -104h-256q2 184 103 293t281 109zM567 640 q-16 -11 -53 -34t-59 -37.5t-53 -40t-48 -49t-30 -57.5t-13 -71q0 -159 128 -159q27 0 52.5 16t39 31.5t31.5 39.5q3 5 5 7v354z" />
<glyph unicode="&#xe4;" horiz-adv-x="922" d="M136 1656h256v-256h-256v256zM520 1656h256v-256h-256v256zM439 1298q179 0 281.5 -110.5t102.5 -291.5v-576q0 -200 33 -320h-255l-34 192q-20 -40 -32.5 -62t-36.5 -54.5t-48 -50t-60 -30.5t-79 -13q-107 0 -181.5 92.5t-74.5 208.5q0 93 31.5 169t66.5 121.5t117 94 t124 67t146 58.5q18 7 27 11v92q0 97 -27 150.5t-101 53.5q-50 0 -79.5 -29t-39 -71t-9.5 -104h-256q2 184 103 293t281 109zM567 640q-16 -11 -53 -34t-59 -37.5t-53 -40t-48 -49t-30 -57.5t-13 -71q0 -159 128 -159q27 0 52.5 16t39 31.5t31.5 39.5q3 5 5 7v354z" />
<glyph unicode="&#xe5;" horiz-adv-x="922" d="M584 1656q0 59 -34.5 93.5t-93.5 34.5q-61 0 -94.5 -34t-33.5 -94t33.5 -94t94.5 -34q59 0 93.5 34.5t34.5 93.5zM200 1656q0 116 69.5 186t186.5 70t186.5 -70t69.5 -186t-70 -186t-186 -70q-118 0 -187 70t-69 186zM439 1298q179 0 281.5 -110.5t102.5 -291.5v-576 q0 -200 33 -320h-255l-34 192q-20 -40 -32.5 -62t-36.5 -54.5t-48 -50t-60 -30.5t-79 -13q-107 0 -181.5 92.5t-74.5 208.5q0 93 31.5 169t66.5 121.5t117 94t124 67t146 58.5q18 7 27 11v92q0 97 -27 150.5t-101 53.5q-50 0 -79.5 -29t-39 -71t-9.5 -104h-256 q2 184 103 293t281 109zM567 640q-16 -11 -53 -34t-59 -37.5t-53 -40t-48 -49t-30 -57.5t-13 -71q0 -159 128 -159q27 0 52.5 16t39 31.5t31.5 39.5q3 5 5 7v354z" />
<glyph unicode="&#xe6;" horiz-adv-x="1465" d="M609 580q-56 -15 -94.5 -29.5t-79 -40.5t-61.5 -66t-21 -93q0 -159 128 -159q84 0 171 99q-39 142 -43 289zM864 576q0 -160 3 -194q14 -188 114 -197h11q24 0 43 8.5t31 20.5t20.5 34.5t12.5 40t6 49.5t2.5 49.5t0.5 51.5v5v4h255q0 -228 -87.5 -347t-284.5 -119 q-224 0 -307 197q-32 -46 -59 -76.5t-66.5 -60.5t-91 -45t-114.5 -15q-107 0 -181.5 92.5t-74.5 208.5q0 65 15.5 120t39.5 94.5t65 73t79.5 55t97 41.5t103.5 31.5t112 26.5v171q0 97 -27 150.5t-101 53.5q-50 0 -79.5 -29t-39 -71t-9.5 -104h-256q2 184 103.5 293 t280.5 109q95 0 163.5 -40t92.5 -112q38 67 102.5 109.5t152.5 42.5q177 0 269.5 -113t92.5 -305q0 -39 -7.5 -71t-20 -55.5t-33.5 -42t-42 -31t-52 -22t-58 -14.5t-65.5 -9t-67.5 -6t-72 -4.5t-72 -5.5v-43zM1120 904q0 79 -31 131.5t-97 52.5q-27 0 -47.5 -11.5t-34 -27 t-23 -44t-14 -51t-6.5 -60.5t-2.5 -59t-0.5 -60v-11h117q40 6 62 12.5t41.5 21t27.5 40t8 66.5z" />
<glyph unicode="&#xe7;" horiz-adv-x="901" d="M541 -129q25 -7 44.5 -13t47 -16.5t49 -21t44 -26t37.5 -32t24.5 -38t9.5 -45.5q0 -38 -11 -67.5t-28.5 -49.5t-46 -34t-56.5 -22t-69 -12.5t-73.5 -5.5t-78.5 -1h-85v128q15 0 51.5 -1t56.5 -1q32 0 55.5 2.5t46 9t34.5 20.5t12 34q0 14 -7.5 27t-22 24.5t-29 20.5 t-36.5 18.5t-35 15t-35 13t-27 9.5v192h128v-128zM349 640q0 -20 -1 -57.5t-1 -64.5t0.5 -65t3.5 -66.5t8 -60.5t15 -54t23.5 -41.5t34 -29t45.5 -9.5q27 0 47.5 8t34 19.5t22.5 34t14 39.5t7 49t2.5 50.5t0.5 55.5h256q0 -224 -90 -345t-294 -121q-73 0 -130.5 19 t-97.5 50.5t-69 81.5t-45.5 102t-26 124t-12.5 135t-3 146t3 146t12.5 135t26 124t45.5 102t69 81.5t97.5 50.5t130.5 19q108 0 183.5 -31t119 -93.5t62.5 -145.5t19 -196h-256q0 43 -2 74.5t-9.5 70.5t-20.5 63.5t-37.5 41.5t-58.5 17q-25 0 -45 -10t-33.5 -30t-23 -42.5 t-15 -56t-8.5 -62t-4 -68t-0.5 -66.5t1 -66t0.5 -58z" />
<glyph unicode="&#xe8;" horiz-adv-x="910" d="M157 1784h256l128 -384h-128zM349 576q0 -158 3 -196q23 -182 125 -188q31 0 54 9t37 30t22 39.5t11.5 54.5t4 58t0.5 65h255q0 -230 -91 -348t-294 -118q-73 0 -131 20t-97.5 52.5t-68.5 85t-45.5 106.5t-25.5 129.5t-12 141.5t-3 153q0 95 5.5 168t19.5 148.5 t41.5 128.5t69 96.5t104 65t144.5 21.5t144.5 -21.5t104 -65t69 -96.5t41.5 -128.5t19.5 -148.5t5.5 -168v-30h-512v-64zM605 768q0 156 -17 218q-28 102 -111 102q-27 0 -47.5 -11t-34 -26.5t-23 -43.5t-14 -50t-6.5 -60t-2.5 -58.5t-0.5 -59.5v-11h256z" />
<glyph unicode="&#xe9;" horiz-adv-x="910" d="M541 1400h-128l128 384h256zM349 576q0 -158 3 -196q23 -182 125 -188q31 0 54 9t37 30t22 39.5t11.5 54.5t4 58t0.5 65h255q0 -230 -91 -348t-294 -118q-73 0 -131 20t-97.5 52.5t-68.5 85t-45.5 106.5t-25.5 129.5t-12 141.5t-3 153q0 95 5.5 168t19.5 148.5 t41.5 128.5t69 96.5t104 65t144.5 21.5t144.5 -21.5t104 -65t69 -96.5t41.5 -128.5t19.5 -148.5t5.5 -168v-30h-512v-64zM605 768q0 156 -17 218q-28 102 -111 102q-27 0 -47.5 -11t-34 -26.5t-23 -43.5t-14 -50t-6.5 -60t-2.5 -58.5t-0.5 -59.5v-11h256z" />
<glyph unicode="&#xea;" horiz-adv-x="910" d="M477 1656l-128 -256h-192l192 384h256l192 -384h-192zM349 576q0 -158 3 -196q23 -182 125 -188q31 0 54 9t37 30t22 39.5t11.5 54.5t4 58t0.5 65h255q0 -230 -91 -348t-294 -118q-73 0 -131 20t-97.5 52.5t-68.5 85t-45.5 106.5t-25.5 129.5t-12 141.5t-3 153 q0 95 5.5 168t19.5 148.5t41.5 128.5t69 96.5t104 65t144.5 21.5t144.5 -21.5t104 -65t69 -96.5t41.5 -128.5t19.5 -148.5t5.5 -168v-30h-512v-64zM605 768q0 156 -17 218q-28 102 -111 102q-27 0 -47.5 -11t-34 -26.5t-23 -43.5t-14 -50t-6.5 -60t-2.5 -58.5t-0.5 -59.5 v-11h256z" />
<glyph unicode="&#xeb;" horiz-adv-x="910" d="M157 1656h256v-256h-256v256zM541 1656h256v-256h-256v256zM349 576q0 -158 3 -196q23 -182 125 -188q31 0 54 9t37 30t22 39.5t11.5 54.5t4 58t0.5 65h255q0 -230 -91 -348t-294 -118q-73 0 -131 20t-97.5 52.5t-68.5 85t-45.5 106.5t-25.5 129.5t-12 141.5t-3 153 q0 95 5.5 168t19.5 148.5t41.5 128.5t69 96.5t104 65t144.5 21.5t144.5 -21.5t104 -65t69 -96.5t41.5 -128.5t19.5 -148.5t5.5 -168v-30h-512v-64zM605 768q0 156 -17 218q-28 102 -111 102q-27 0 -47.5 -11t-34 -26.5t-23 -43.5t-14 -50t-6.5 -60t-2.5 -58.5t-0.5 -59.5 v-11h256z" />
<glyph unicode="&#xec;" horiz-adv-x="512" d="M-64 1784h256l128 -384h-128zM128 1280h256v-1280h-256v1280z" />
<glyph unicode="&#xed;" horiz-adv-x="512" d="M320 1400h-128l128 384h256zM128 1280h256v-1280h-256v1280z" />
<glyph unicode="&#xee;" horiz-adv-x="512" d="M256 1656l-128 -256h-192l192 384h256l192 -384h-192zM128 1280h256v-1280h-256v1280z" />
<glyph unicode="&#xef;" horiz-adv-x="512" d="M-64 1656h256v-256h-256v256zM320 1656h256v-256h-256v256zM128 1280h256v-1280h-256v1280z" />
<glyph unicode="&#xf0;" horiz-adv-x="1152" d="M1024 576q0 -124 -26.5 -229.5t-79 -188t-140.5 -129.5t-202 -47q-106 0 -186 34t-129 91.5t-79 143.5t-41.5 179t-11.5 210q0 101 10 190t37 177t69 150.5t110.5 101.5t156.5 39q90 0 162 -41t94 -105q0 193 -69 294l-443 -102v128l320 74q-72 32 -162.5 43t-221.5 11 v210q242 0 407 -44t261 -155l228 53v-128l-156 -36q92 -189 92 -540v-384zM384 704v-6q0 -73 1 -113t6 -110.5t17.5 -111t32.5 -85t54.5 -65.5t80.5 -21q55 0 94 27t59.5 75t29.5 101.5t9 116.5v466q-75 110 -192 110q-192 0 -192 -384z" />
<glyph unicode="&#xf1;" d="M634 1400q-60 0 -148 43.5t-136 43.5t-48 -67h-154q0 116 57.5 194.5t162.5 78.5q58 0 145 -43t136 -43q51 0 51 69h154q0 -117 -57.5 -196.5t-162.5 -79.5zM373 1142q57 52 93 79.5t99.5 52t135.5 24.5q82 0 133 -60t51 -147v-1091h-256v960q0 67 -19 97.5t-77 30.5 q-33 0 -65.5 -13.5t-48.5 -25t-46 -36.5v-1013h-256v1280h256v-138z" />
<glyph unicode="&#xf2;" horiz-adv-x="954" d="M157 1784h256l128 -384h-128zM477 -18q-206 0 -295 120t-89 346v384q0 226 89 346t295 120t295 -120t89 -346v-384q0 -226 -89 -346t-295 -120zM477 1088q-27 0 -47.5 -8t-34 -19.5t-22.5 -34t-14 -39.5t-7 -49t-2.5 -50.5t-0.5 -55.5v-384q0 -37 0.5 -55.5t2.5 -50.5 t7 -49t14 -39.5t22.5 -34t34 -19.5t47.5 -8t47.5 8t34 19.5t22.5 34t14 39.5t7 49t2.5 50.5t0.5 55.5v384q0 37 -0.5 55.5t-2.5 50.5t-7 49t-14 39.5t-22.5 34t-34 19.5t-47.5 8z" />
<glyph unicode="&#xf3;" horiz-adv-x="954" d="M541 1400h-128l128 384h256zM477 -18q-206 0 -295 120t-89 346v384q0 226 89 346t295 120t295 -120t89 -346v-384q0 -226 -89 -346t-295 -120zM477 1088q-27 0 -47.5 -8t-34 -19.5t-22.5 -34t-14 -39.5t-7 -49t-2.5 -50.5t-0.5 -55.5v-384q0 -37 0.5 -55.5t2.5 -50.5 t7 -49t14 -39.5t22.5 -34t34 -19.5t47.5 -8t47.5 8t34 19.5t22.5 34t14 39.5t7 49t2.5 50.5t0.5 55.5v384q0 37 -0.5 55.5t-2.5 50.5t-7 49t-14 39.5t-22.5 34t-34 19.5t-47.5 8z" />
<glyph unicode="&#xf4;" horiz-adv-x="954" d="M477 1656l-128 -256h-192l192 384h256l192 -384h-192zM477 -18q-206 0 -295 120t-89 346v384q0 226 89 346t295 120t295 -120t89 -346v-384q0 -226 -89 -346t-295 -120zM477 1088q-27 0 -47.5 -8t-34 -19.5t-22.5 -34t-14 -39.5t-7 -49t-2.5 -50.5t-0.5 -55.5v-384 q0 -37 0.5 -55.5t2.5 -50.5t7 -49t14 -39.5t22.5 -34t34 -19.5t47.5 -8t47.5 8t34 19.5t22.5 34t14 39.5t7 49t2.5 50.5t0.5 55.5v384q0 37 -0.5 55.5t-2.5 50.5t-7 49t-14 39.5t-22.5 34t-34 19.5t-47.5 8z" />
<glyph unicode="&#xf5;" horiz-adv-x="954" d="M610 1400q-60 0 -148 43.5t-136 43.5t-48 -67h-154q0 116 57.5 194.5t162.5 78.5q58 0 145 -43t136 -43q51 0 51 69h154q0 -117 -57.5 -196.5t-162.5 -79.5zM477 -18q-206 0 -295 120t-89 346v384q0 226 89 346t295 120t295 -120t89 -346v-384q0 -226 -89 -346t-295 -120 zM477 1088q-27 0 -47.5 -8t-34 -19.5t-22.5 -34t-14 -39.5t-7 -49t-2.5 -50.5t-0.5 -55.5v-384q0 -37 0.5 -55.5t2.5 -50.5t7 -49t14 -39.5t22.5 -34t34 -19.5t47.5 -8t47.5 8t34 19.5t22.5 34t14 39.5t7 49t2.5 50.5t0.5 55.5v384q0 37 -0.5 55.5t-2.5 50.5t-7 49t-14 39.5 t-22.5 34t-34 19.5t-47.5 8z" />
<glyph unicode="&#xf6;" horiz-adv-x="954" d="M157 1656h256v-256h-256v256zM541 1656h256v-256h-256v256zM477 -18q-206 0 -295 120t-89 346v384q0 226 89 346t295 120t295 -120t89 -346v-384q0 -226 -89 -346t-295 -120zM477 1088q-27 0 -47.5 -8t-34 -19.5t-22.5 -34t-14 -39.5t-7 -49t-2.5 -50.5t-0.5 -55.5v-384 q0 -37 0.5 -55.5t2.5 -50.5t7 -49t14 -39.5t22.5 -34t34 -19.5t47.5 -8t47.5 8t34 19.5t22.5 34t14 39.5t7 49t2.5 50.5t0.5 55.5v384q0 37 -0.5 55.5t-2.5 50.5t-7 49t-14 39.5t-22.5 34t-34 19.5t-47.5 8z" />
<glyph unicode="&#xf7;" horiz-adv-x="640" d="M0 768h640v-192h-640v192zM192 1135h256v-256h-256v256zM192 489h256v-256h-256v256z" />
<glyph unicode="&#xf8;" horiz-adv-x="1024" d="M512 1088q-27 0 -47.5 -8t-34 -19.5t-22.5 -34t-14 -39.5t-7 -49t-2.5 -50.5t-0.5 -55.5v-486l238 669q-28 73 -110 73zM280 43q-152 98 -152 405v384q0 110 20 193t64 145.5t119.5 95t180.5 32.5q107 0 195 -40l82 233l87 -29l-92 -257q112 -112 112 -373v-384 q0 -226 -89 -346t-295 -120q-94 0 -158 24l-82 -228l-76 26zM512 192q27 0 47.5 8t34 19.5t22.5 34t14 39.5t7 49t2.5 50.5t0.5 55.5v355l-209 -583q33 -28 81 -28z" />
<glyph unicode="&#xf9;" d="M171 1784h256l128 -384h-128zM619 138q-38 -33 -55.5 -48t-53.5 -40.5t-63.5 -37t-68.5 -21t-85 -9.5q-84 0 -135 59.5t-51 147.5v1091h256v-1013q0 -40 24.5 -65t63.5 -25q21 0 41 5t39.5 17.5t30.5 20t31.5 25.5t25.5 22v1013h256v-1280h-256v138z" />
<glyph unicode="&#xfa;" d="M555 1400h-128l128 384h256zM619 138q-38 -33 -55.5 -48t-53.5 -40.5t-63.5 -37t-68.5 -21t-85 -9.5q-84 0 -135 59.5t-51 147.5v1091h256v-1013q0 -40 24.5 -65t63.5 -25q21 0 41 5t39.5 17.5t30.5 20t31.5 25.5t25.5 22v1013h256v-1280h-256v138z" />
<glyph unicode="&#xfb;" d="M491 1656l-128 -256h-192l192 384h256l192 -384h-192zM619 138q-38 -33 -55.5 -48t-53.5 -40.5t-63.5 -37t-68.5 -21t-85 -9.5q-84 0 -135 59.5t-51 147.5v1091h256v-1013q0 -40 24.5 -65t63.5 -25q21 0 41 5t39.5 17.5t30.5 20t31.5 25.5t25.5 22v1013h256v-1280h-256 v138z" />
<glyph unicode="&#xfc;" d="M171 1656h256v-256h-256v256zM555 1656h256v-256h-256v256zM619 138q-38 -33 -55.5 -48t-53.5 -40.5t-63.5 -37t-68.5 -21t-85 -9.5q-84 0 -135 59.5t-51 147.5v1091h256v-1013q0 -40 24.5 -65t63.5 -25q21 0 41 5t39.5 17.5t30.5 20t31.5 25.5t25.5 22v1013h256v-1280 h-256v138z" />
<glyph unicode="&#xfd;" horiz-adv-x="842" d="M490 1400h-128l128 384h256zM74 -128q104 0 165 46t61 140l-290 1222h256q149 -823 161 -896q21 135 47.5 284.5t60 330t51.5 281.5h256l-320 -1344q-33 -142 -142.5 -199t-305.5 -57v192z" />
<glyph unicode="&#xfe;" horiz-adv-x="1056" d="M706 823q0 45 -2.5 78.5t-10 70.5t-21.5 61t-38 39.5t-58 15.5q-106 0 -192 -51v-805q99 -40 192 -40q41 0 68.5 30t40 85.5t17 110.5t4.5 128v277zM644 1298q65 0 116 -23.5t84 -56.5t56 -94.5t34.5 -111.5t17.5 -135t7 -137.5t1 -145.5q0 -87 -8 -166.5t-29.5 -163.5 t-56 -144.5t-93 -99t-133.5 -38.5q-78 0 -138 37t-118 97v-526h-256v2201h256v-638q36 38 54 55t52.5 43t71.5 36.5t82 10.5z" />
<glyph unicode="&#xff;" horiz-adv-x="842" d="M106 1656h256v-256h-256v256zM490 1656h256v-256h-256v256zM74 -128q104 0 165 46t61 140l-290 1222h256q149 -823 161 -896q21 135 47.5 284.5t60 330t51.5 281.5h256l-320 -1344q-33 -142 -142.5 -199t-305.5 -57v192z" />
<glyph unicode="&#x100;" horiz-adv-x="1038" d="M302 2064h434v-152h-434v152zM359 448l-96 -448h-256l384 1792h256l384 -1792h-256l-96 448h-320zM647 640l-128 768l-128 -768h256z" />
<glyph unicode="&#x101;" horiz-adv-x="922" d="M238 1552h434v-152h-434v152zM439 1298q179 0 281.5 -110.5t102.5 -291.5v-576q0 -200 33 -320h-255l-34 192q-20 -40 -32.5 -62t-36.5 -54.5t-48 -50t-60 -30.5t-79 -13q-107 0 -181.5 92.5t-74.5 208.5q0 93 31.5 169t66.5 121.5t117 94t124 67t146 58.5q18 7 27 11v92 q0 97 -27 150.5t-101 53.5q-50 0 -79.5 -29t-39 -71t-9.5 -104h-256q2 184 103 293t281 109zM567 640q-16 -11 -53 -34t-59 -37.5t-53 -40t-48 -49t-30 -57.5t-13 -71q0 -159 128 -159q27 0 52.5 16t39 31.5t31.5 39.5q3 5 5 7v354z" />
<glyph unicode="&#x102;" horiz-adv-x="1038" d="M839 2296q0 -200 -69.5 -292t-250.5 -92q-179 0 -249.5 93t-70.5 291h192q0 -102 24.5 -147t103.5 -45t103.5 45.5t24.5 146.5h192zM359 448l-96 -448h-256l384 1792h256l384 -1792h-256l-96 448h-320zM647 640l-128 768l-128 -768h256z" />
<glyph unicode="&#x103;" horiz-adv-x="922" d="M776 1784q0 -99 -15 -167.5t-51 -119t-98.5 -74t-155.5 -23.5q-92 0 -154.5 24t-99 74t-51.5 119t-15 167h192q0 -40 2 -67t9.5 -52.5t21.5 -40t37.5 -23.5t57.5 -9q33 0 56.5 9t37 23.5t21.5 40.5t10.5 52.5t2.5 66.5h192zM439 1298q179 0 281.5 -110.5t102.5 -291.5 v-576q0 -200 33 -320h-255l-34 192q-20 -40 -32.5 -62t-36.5 -54.5t-48 -50t-60 -30.5t-79 -13q-107 0 -181.5 92.5t-74.5 208.5q0 93 31.5 169t66.5 121.5t117 94t124 67t146 58.5q18 7 27 11v92q0 97 -27 150.5t-101 53.5q-50 0 -79.5 -29t-39 -71t-9.5 -104h-256 q2 184 103 293t281 109zM567 640q-16 -11 -53 -34t-59 -37.5t-53 -40t-48 -49t-30 -57.5t-13 -71q0 -159 128 -159q27 0 52.5 16t39 31.5t31.5 39.5q3 5 5 7v354z" />
<glyph unicode="&#x104;" horiz-adv-x="1038" d="M521 -330q0 55 23.5 110.5t60.5 99t82.5 76t89.5 44.5h128q-10 -13 -29.5 -36t-35.5 -43t-36 -46t-35 -50t-28.5 -49.5t-20.5 -51.5t-7 -50q0 -23 12.5 -38.5t35.5 -22.5t45 -10t51 -3q19 0 58.5 3t53.5 3v-128h-45q-47 0 -76.5 0.5t-69 2.5t-64 6t-54.5 10.5t-48.5 16.5 t-37.5 24t-29.5 33t-17 44t-6.5 55zM359 448l-96 -448h-256l384 1792h256l384 -1792h-256l-96 448h-320zM647 640l-128 768l-128 -768h256z" />
<glyph unicode="&#x105;" horiz-adv-x="922" d="M346 -330q0 55 23.5 110.5t60.5 99t82 76t90 44.5h128q-11 -13 -30 -36t-35.5 -43t-36 -46t-35 -50t-28.5 -49.5t-20 -51.5t-7 -50q0 -23 12.5 -38.5t35 -22.5t45 -10t51.5 -3q18 0 57.5 3t54.5 3v-128h-46q-46 0 -75.5 0.5t-69 2.5t-64.5 6t-55 10.5t-48.5 16.5 t-37.5 24t-29 33t-16.5 44t-6.5 55zM439 1298q179 0 281.5 -110.5t102.5 -291.5v-576q0 -200 33 -320h-255l-34 192q-20 -40 -32.5 -62t-36.5 -54.5t-48 -50t-60 -30.5t-79 -13q-107 0 -181.5 92.5t-74.5 208.5q0 93 31.5 169t66.5 121.5t117 94t124 67t146 58.5q18 7 27 11 v92q0 97 -27 150.5t-101 53.5q-50 0 -79.5 -29t-39 -71t-9.5 -104h-256q2 184 103 293t281 109zM567 640q-16 -11 -53 -34t-59 -37.5t-53 -40t-48 -49t-30 -57.5t-13 -71q0 -159 128 -159q27 0 52.5 16t39 31.5t31.5 39.5q3 5 5 7v354z" />
<glyph unicode="&#x106;" horiz-adv-x="1107" d="M644 1912h-128l128 384h256zM1065 576q0 -139 -24.5 -244t-79 -185.5t-148 -122.5t-225.5 -42q-113 0 -199 32t-141 88.5t-89.5 141t-48.5 180.5t-14 217v511q0 121 14 217t48.5 180.5t89.5 140.5t141 88t199 32q132 0 226 -41.5t148.5 -121.5t78.5 -185.5t24 -245.5 h-256q0 43 -0.5 71t-2.5 65t-6.5 61t-12.5 52.5t-19 46.5t-27.5 36.5t-38 28.5t-50.5 16.5t-64 6.5q-62 0 -106.5 -20t-69.5 -51.5t-38.5 -84.5t-17.5 -103.5t-4 -124.5v-640q0 -64 5.5 -116t21.5 -103.5t41.5 -86.5t68 -56.5t99.5 -21.5t98 22t64.5 56t37 87t17.5 103 t4 116v64h256v-64z" />
<glyph unicode="&#x107;" horiz-adv-x="901" d="M541 1400h-128l128 384h256zM349 640q0 -20 -1 -57.5t-1 -64.5t0.5 -65t3.5 -66.5t8 -60.5t15 -54t23.5 -41.5t34 -29t45.5 -9.5q27 0 47.5 8t34 19.5t22.5 34t14 39.5t7 49t2.5 50.5t0.5 55.5h256q0 -224 -90 -345t-294 -121q-73 0 -130.5 19t-97.5 50.5t-69 81.5 t-45.5 102t-26 124t-12.5 135t-3 146t3 146t12.5 135t26 124t45.5 102t69 81.5t97.5 50.5t130.5 19q108 0 183.5 -31t119 -93.5t62.5 -145.5t19 -196h-256q0 43 -2 74.5t-9.5 70.5t-20.5 63.5t-37.5 41.5t-58.5 17q-25 0 -45 -10t-33.5 -30t-23 -42.5t-15 -56t-8.5 -62 t-4 -68t-0.5 -66.5t1 -66t0.5 -58z" />
<glyph unicode="&#x108;" horiz-adv-x="1107" d="M580 2168l-128 -256h-192l192 384h256l192 -384h-192zM1065 576q0 -139 -24.5 -244t-79 -185.5t-148 -122.5t-225.5 -42q-113 0 -199 32t-141 88.5t-89.5 141t-48.5 180.5t-14 217v511q0 121 14 217t48.5 180.5t89.5 140.5t141 88t199 32q132 0 226 -41.5t148.5 -121.5 t78.5 -185.5t24 -245.5h-256q0 43 -0.5 71t-2.5 65t-6.5 61t-12.5 52.5t-19 46.5t-27.5 36.5t-38 28.5t-50.5 16.5t-64 6.5q-62 0 -106.5 -20t-69.5 -51.5t-38.5 -84.5t-17.5 -103.5t-4 -124.5v-640q0 -64 5.5 -116t21.5 -103.5t41.5 -86.5t68 -56.5t99.5 -21.5t98 22 t64.5 56t37 87t17.5 103t4 116v64h256v-64z" />
<glyph unicode="&#x109;" horiz-adv-x="901" d="M477 1656l-128 -256h-192l192 384h256l192 -384h-192zM349 640q0 -20 -1 -57.5t-1 -64.5t0.5 -65t3.5 -66.5t8 -60.5t15 -54t23.5 -41.5t34 -29t45.5 -9.5q27 0 47.5 8t34 19.5t22.5 34t14 39.5t7 49t2.5 50.5t0.5 55.5h256q0 -224 -90 -345t-294 -121q-73 0 -130.5 19 t-97.5 50.5t-69 81.5t-45.5 102t-26 124t-12.5 135t-3 146t3 146t12.5 135t26 124t45.5 102t69 81.5t97.5 50.5t130.5 19q108 0 183.5 -31t119 -93.5t62.5 -145.5t19 -196h-256q0 43 -2 74.5t-9.5 70.5t-20.5 63.5t-37.5 41.5t-58.5 17q-25 0 -45 -10t-33.5 -30t-23 -42.5 t-15 -56t-8.5 -62t-4 -68t-0.5 -66.5t1 -66t0.5 -58z" />
<glyph unicode="&#x10a;" horiz-adv-x="1107" d="M452 2168h256v-256h-256v256zM1065 576q0 -139 -24.5 -244t-79 -185.5t-148 -122.5t-225.5 -42q-113 0 -199 32t-141 88.5t-89.5 141t-48.5 180.5t-14 217v511q0 121 14 217t48.5 180.5t89.5 140.5t141 88t199 32q132 0 226 -41.5t148.5 -121.5t78.5 -185.5t24 -245.5 h-256q0 43 -0.5 71t-2.5 65t-6.5 61t-12.5 52.5t-19 46.5t-27.5 36.5t-38 28.5t-50.5 16.5t-64 6.5q-62 0 -106.5 -20t-69.5 -51.5t-38.5 -84.5t-17.5 -103.5t-4 -124.5v-640q0 -64 5.5 -116t21.5 -103.5t41.5 -86.5t68 -56.5t99.5 -21.5t98 22t64.5 56t37 87t17.5 103 t4 116v64h256v-64z" />
<glyph unicode="&#x10b;" horiz-adv-x="901" d="M349 1656h256v-256h-256v256zM349 640q0 -20 -1 -57.5t-1 -64.5t0.5 -65t3.5 -66.5t8 -60.5t15 -54t23.5 -41.5t34 -29t45.5 -9.5q27 0 47.5 8t34 19.5t22.5 34t14 39.5t7 49t2.5 50.5t0.5 55.5h256q0 -224 -90 -345t-294 -121q-73 0 -130.5 19t-97.5 50.5t-69 81.5 t-45.5 102t-26 124t-12.5 135t-3 146t3 146t12.5 135t26 124t45.5 102t69 81.5t97.5 50.5t130.5 19q108 0 183.5 -31t119 -93.5t62.5 -145.5t19 -196h-256q0 43 -2 74.5t-9.5 70.5t-20.5 63.5t-37.5 41.5t-58.5 17q-25 0 -45 -10t-33.5 -30t-23 -42.5t-15 -56t-8.5 -62 t-4 -68t-0.5 -66.5t1 -66t0.5 -58z" />
<glyph unicode="&#x10c;" horiz-adv-x="1107" d="M708 2296h192l-192 -384h-256l-192 384h192l128 -256zM1065 576q0 -139 -24.5 -244t-79 -185.5t-148 -122.5t-225.5 -42q-113 0 -199 32t-141 88.5t-89.5 141t-48.5 180.5t-14 217v511q0 121 14 217t48.5 180.5t89.5 140.5t141 88t199 32q132 0 226 -41.5t148.5 -121.5 t78.5 -185.5t24 -245.5h-256q0 43 -0.5 71t-2.5 65t-6.5 61t-12.5 52.5t-19 46.5t-27.5 36.5t-38 28.5t-50.5 16.5t-64 6.5q-62 0 -106.5 -20t-69.5 -51.5t-38.5 -84.5t-17.5 -103.5t-4 -124.5v-640q0 -64 5.5 -116t21.5 -103.5t41.5 -86.5t68 -56.5t99.5 -21.5t98 22 t64.5 56t37 87t17.5 103t4 116v64h256v-64z" />
<glyph unicode="&#x10d;" horiz-adv-x="901" d="M605 1784h192l-192 -384h-256l-192 384h192l128 -256zM349 640q0 -20 -1 -57.5t-1 -64.5t0.5 -65t3.5 -66.5t8 -60.5t15 -54t23.5 -41.5t34 -29t45.5 -9.5q27 0 47.5 8t34 19.5t22.5 34t14 39.5t7 49t2.5 50.5t0.5 55.5h256q0 -224 -90 -345t-294 -121q-73 0 -130.5 19 t-97.5 50.5t-69 81.5t-45.5 102t-26 124t-12.5 135t-3 146t3 146t12.5 135t26 124t45.5 102t69 81.5t97.5 50.5t130.5 19q108 0 183.5 -31t119 -93.5t62.5 -145.5t19 -196h-256q0 43 -2 74.5t-9.5 70.5t-20.5 63.5t-37.5 41.5t-58.5 17q-25 0 -45 -10t-33.5 -30t-23 -42.5 t-15 -56t-8.5 -62t-4 -68t-0.5 -66.5t1 -66t0.5 -58z" />
<glyph unicode="&#x10e;" horiz-adv-x="1133" d="M710 2296h192l-192 -384h-256l-192 384h192l128 -256zM1037 576q0 -295 -117.5 -435.5t-396.5 -140.5h-395v1792h397q281 0 396.5 -115t115.5 -397v-704zM781 1216q0 49 -0.5 78t-3 68.5t-7.5 62.5t-14 51.5t-22.5 44.5t-33 33.5t-45 26t-59.5 14t-76 5.5h-136v-1408h141 q38 0 69.5 5t56 14.5t43.5 23t32.5 31.5t23.5 39.5t15.5 46.5t9 53.5t4.5 59.5t2 65t0 71v13v12.5v13.5v576z" />
<glyph unicode="&#x10f;" horiz-adv-x="1042" d="M1078 1791h256q0 -145 -3 -242q-2 -54 -6 -91t-16 -73.5t-32 -58t-53.5 -34.5t-81.5 -13l-64 128q69 0 98.5 30t29.5 98h-128v256zM349 705q0 -21 -0.5 -63t-1 -72.5t0 -74.5t4 -76.5t8.5 -69.5t15 -63t23.5 -48.5t33.5 -34t45 -11.5q93 0 192 40v805q-86 51 -192 51 q-24 0 -43.5 -7.5t-33 -23.5t-23.5 -33.5t-15.5 -45t-8.5 -49.5t-4 -56.5t-1 -56.5t0.5 -58t0.5 -53zM409 1298q43 0 80.5 -11.5t71.5 -36t54.5 -43.5t53.5 -54v638h256v-1791h-256v116q-58 -60 -118 -97t-138 -37q-74 0 -131.5 37.5t-92.5 96.5t-57 140t-30.5 159t-8.5 162 v12q0 96 1 146t6.5 138t17 136.5t34.5 112t56 96t84 56.5t117 24z" />
<glyph unicode="&#x110;" horiz-adv-x="1152" d="M1024 576q0 -295 -117.5 -435.5t-396.5 -140.5h-382v852h-94v152h94v788h384q281 0 396.5 -115t115.5 -397v-704zM768 1216q0 49 -0.5 78t-3 68.5t-7.5 62.5t-14 51.5t-22.5 44.5t-33 33.5t-45 26t-59.5 14t-76 5.5h-123v-596h144v-152h-144v-660h128q38 0 69.5 5 t56 14.5t43.5 23t32.5 31.5t23.5 39.5t15.5 46.5t9 53.5t4.5 59.5t2 65t0 71v13v12.5v13.5v576z" />
<glyph unicode="&#x111;" horiz-adv-x="1056" d="M412 1298q43 0 80.5 -11.5t71.5 -36t54.5 -43.5t53.5 -54v347h-260v138h260v153h256v-153h128v-138h-128v-1500h-256v116q-58 -60 -118 -97t-138 -37q-74 0 -131.5 37.5t-92.5 96.5t-57 140t-30.5 159t-8.5 162v12q0 96 1 146t6.5 138t17 136.5t34.5 112t56 96t84 56.5 t117 24zM352 705q0 -21 -0.5 -63t-1 -72.5t0 -74.5t4 -76.5t8.5 -69.5t15 -63t23.5 -48.5t33.5 -34t45 -11.5q93 0 192 40v805q-86 51 -192 51q-24 0 -43.5 -7.5t-33 -23.5t-23.5 -33.5t-15.5 -45t-8.5 -49.5t-4 -56.5t-1 -56.5t0.5 -58t0.5 -53z" />
<glyph unicode="&#x112;" horiz-adv-x="861" d="M263 2064h434v-152h-434v152zM704 832h-320v-640h448v-192h-704v1792h704v-192h-448v-576h320v-192z" />
<glyph unicode="&#x113;" horiz-adv-x="910" d="M260 1552h434v-152h-434v152zM349 576q0 -158 3 -196q23 -182 125 -188q31 0 54 9t37 30t22 39.5t11.5 54.5t4 58t0.5 65h255q0 -230 -91 -348t-294 -118q-73 0 -131 20t-97.5 52.5t-68.5 85t-45.5 106.5t-25.5 129.5t-12 141.5t-3 153q0 95 5.5 168t19.5 148.5 t41.5 128.5t69 96.5t104 65t144.5 21.5t144.5 -21.5t104 -65t69 -96.5t41.5 -128.5t19.5 -148.5t5.5 -168v-30h-512v-64zM605 768q0 156 -17 218q-28 102 -111 102q-27 0 -47.5 -11t-34 -26.5t-23 -43.5t-14 -50t-6.5 -60t-2.5 -58.5t-0.5 -59.5v-11h256z" />
<glyph unicode="&#x116;" horiz-adv-x="861" d="M352 2168h256v-256h-256v256zM704 832h-320v-640h448v-192h-704v1792h704v-192h-448v-576h320v-192z" />
<glyph unicode="&#x117;" horiz-adv-x="910" d="M349 1656h256v-256h-256v256zM349 576q0 -158 3 -196q23 -182 125 -188q31 0 54 9t37 30t22 39.5t11.5 54.5t4 58t0.5 65h255q0 -230 -91 -348t-294 -118q-73 0 -131 20t-97.5 52.5t-68.5 85t-45.5 106.5t-25.5 129.5t-12 141.5t-3 153q0 95 5.5 168t19.5 148.5 t41.5 128.5t69 96.5t104 65t144.5 21.5t144.5 -21.5t104 -65t69 -96.5t41.5 -128.5t19.5 -148.5t5.5 -168v-30h-512v-64zM605 768q0 156 -17 218q-28 102 -111 102q-27 0 -47.5 -11t-34 -26.5t-23 -43.5t-14 -50t-6.5 -60t-2.5 -58.5t-0.5 -59.5v-11h256z" />
<glyph unicode="&#x118;" horiz-adv-x="861" d="M224 -313q0 55 23.5 110.5t60.5 99t82.5 76t89.5 44.5h128q-10 -13 -29.5 -36t-35.5 -43t-36 -46t-35 -50t-28.5 -49.5t-20.5 -51.5t-7 -50q0 -18 9 -32t22.5 -22t33.5 -12.5t38.5 -6t40.5 -1.5q19 0 58.5 3t53.5 3v-128h-45q-47 0 -76.5 0.5t-69 2.5t-64 6t-54.5 10.5 t-48.5 16.5t-37.5 24t-29.5 33t-17 44t-6.5 55zM704 832h-320v-640h448v-192h-704v1792h704v-192h-448v-576h320v-192z" />
<glyph unicode="&#x119;" horiz-adv-x="910" d="M157 -331q0 55 23.5 110.5t60.5 99t82.5 76t89.5 44.5h128q-11 -14 -35 -43t-42.5 -51.5t-41 -54.5t-37.5 -59t-25.5 -58.5t-10.5 -59.5q0 -23 12.5 -38.5t35.5 -22.5t45 -10t51 -3q19 0 58.5 3t53.5 3v-128h-45q-47 0 -76.5 0.5t-69 2.5t-64 6t-54.5 10.5t-48.5 16.5 t-37.5 24t-29.5 33t-17 44t-6.5 55zM349 576q0 -158 3 -196q23 -182 125 -188q31 0 54 9t37 30t22 39.5t11.5 54.5t4 58t0.5 65h255q0 -230 -91 -348t-294 -118q-73 0 -131 20t-97.5 52.5t-68.5 85t-45.5 106.5t-25.5 129.5t-12 141.5t-3 153q0 95 5.5 168t19.5 148.5 t41.5 128.5t69 96.5t104 65t144.5 21.5t144.5 -21.5t104 -65t69 -96.5t41.5 -128.5t19.5 -148.5t5.5 -168v-30h-512v-64zM605 768q0 156 -17 218q-28 102 -111 102q-27 0 -47.5 -11t-34 -26.5t-23 -43.5t-14 -50t-6.5 -60t-2.5 -58.5t-0.5 -59.5v-11h256z" />
<glyph unicode="&#x11a;" horiz-adv-x="861" d="M608 2296h192l-192 -384h-256l-192 384h192l128 -256zM704 832h-320v-640h448v-192h-704v1792h704v-192h-448v-576h320v-192z" />
<glyph unicode="&#x11b;" horiz-adv-x="910" d="M605 1784h192l-192 -384h-256l-192 384h192l128 -256zM349 576q0 -158 3 -196q23 -182 125 -188q31 0 54 9t37 30t22 39.5t11.5 54.5t4 58t0.5 65h255q0 -230 -91 -348t-294 -118q-73 0 -131 20t-97.5 52.5t-68.5 85t-45.5 106.5t-25.5 129.5t-12 141.5t-3 153 q0 95 5.5 168t19.5 148.5t41.5 128.5t69 96.5t104 65t144.5 21.5t144.5 -21.5t104 -65t69 -96.5t41.5 -128.5t19.5 -148.5t5.5 -168v-30h-512v-64zM605 768q0 156 -17 218q-28 102 -111 102q-27 0 -47.5 -11t-34 -26.5t-23 -43.5t-14 -50t-6.5 -60t-2.5 -58.5t-0.5 -59.5 v-11h256z" />
<glyph unicode="&#x11c;" horiz-adv-x="1199" d="M608 2168l-128 -256h-192l192 384h256l192 -384h-192zM608 192q64 0 111 25t74.5 64.5t43.5 100.5t21.5 121t5.5 137v64h-256v190h512v-894h-192l-64 192q-75 -210 -256 -210q-123 0 -213.5 35t-147.5 95t-91 153t-47 196t-13 237v454q0 658 522 658q132 0 227 -41.5 t151.5 -121t82.5 -186t26 -245.5h-256q0 53 -1.5 90.5t-7 80.5t-15 72t-26.5 58t-41.5 45.5t-59.5 27t-80 10.5q-78 0 -131.5 -28.5t-82 -83t-40.5 -120t-12 -152.5v-576q0 -64 4 -115.5t13.5 -105t28 -92.5t46 -70.5t69 -48t95.5 -16.5z" />
<glyph unicode="&#x11d;" horiz-adv-x="968" d="M498 1656l-128 -256h-192l192 384h256l192 -384h-192zM82 832q0 133 42 237t130.5 166.5t211.5 62.5q71 0 124 -20t86.5 -50.5t65.5 -80.5q81 151 236 151v-210q-96 0 -160 -64q32 -94 32 -192q0 -134 -40.5 -237t-129 -165t-214.5 -62q-37 0 -81 7l-48 8 q-2 -5 -10 -17.5t-12.5 -20.5t-8.5 -20.5t-4 -23.5q0 -26 25 -44t69 -26.5t84.5 -12.5t90.5 -6.5t69 -5.5q57 -8 101.5 -18.5t91 -30.5t76.5 -48t49.5 -72t19.5 -101q0 -70 -24.5 -125t-65.5 -91t-99 -59.5t-122 -33.5t-137 -10q-48 0 -78 0.5t-82 2.5t-87 7.5t-80 14 t-74.5 22.5t-56.5 33t-40.5 46.5t-13.5 61.5q0 100 53.5 171t138.5 113q-52 14 -90 42.5t-38 69.5q0 17 4 36t9 34.5t16 35.5t17.5 31.5t21.5 32t20.5 28t21.5 27t18 22.5q-128 152 -128 384zM530 -194q27 0 48.5 1t49.5 4t48.5 9.5t39 16.5t28.5 26.5t10 37.5q0 18 -4 33 q-14 76 -201 98l-211 25q-39 -28 -66.5 -81t-27.5 -111q0 -16 11 -27.5t32.5 -17.5t44 -10t53.5 -5t53 -1t51.5 1t40.5 1zM626 832q0 55 -7 101.5t-24 91t-50 70t-79 25.5q-47 0 -80 -25.5t-49.5 -70t-23.5 -91t-7 -101.5q0 -272 160 -272t160 272z" />
<glyph unicode="&#x11e;" horiz-adv-x="1199" d="M928 2296q0 -200 -69.5 -292t-250.5 -92q-179 0 -249.5 93t-70.5 291h192q0 -102 24.5 -147t103.5 -45t103.5 45.5t24.5 146.5h192zM608 192q64 0 111 25t74.5 64.5t43.5 100.5t21.5 121t5.5 137v64h-256v190h512v-894h-192l-64 192q-75 -210 -256 -210q-123 0 -213.5 35 t-147.5 95t-91 153t-47 196t-13 237v454q0 658 522 658q132 0 227 -41.5t151.5 -121t82.5 -186t26 -245.5h-256q0 53 -1.5 90.5t-7 80.5t-15 72t-26.5 58t-41.5 45.5t-59.5 27t-80 10.5q-78 0 -131.5 -28.5t-82 -83t-40.5 -120t-12 -152.5v-576q0 -64 4 -115.5t13.5 -105 t28 -92.5t46 -70.5t69 -48t95.5 -16.5z" />
<glyph unicode="&#x11f;" horiz-adv-x="968" d="M818 1784q0 -200 -69.5 -292t-250.5 -92q-179 0 -249.5 93t-70.5 291h192q0 -102 24.5 -147t103.5 -45t103.5 45.5t24.5 146.5h192zM82 832q0 133 42 237t130.5 166.5t211.5 62.5q71 0 124 -20t86.5 -50.5t65.5 -80.5q81 151 236 151v-210q-96 0 -160 -64q32 -94 32 -192 q0 -134 -40.5 -237t-129 -165t-214.5 -62q-37 0 -81 7l-48 8q-2 -5 -10 -17.5t-12.5 -20.5t-8.5 -20.5t-4 -23.5q0 -26 25 -44t69 -26.5t84.5 -12.5t90.5 -6.5t69 -5.5q57 -8 101.5 -18.5t91 -30.5t76.5 -48t49.5 -72t19.5 -101q0 -70 -24.5 -125t-65.5 -91t-99 -59.5 t-122 -33.5t-137 -10q-48 0 -78 0.5t-82 2.5t-87 7.5t-80 14t-74.5 22.5t-56.5 33t-40.5 46.5t-13.5 61.5q0 100 53.5 171t138.5 113q-52 14 -90 42.5t-38 69.5q0 17 4 36t9 34.5t16 35.5t17.5 31.5t21.5 32t20.5 28t21.5 27t18 22.5q-128 152 -128 384zM530 -194 q27 0 48.5 1t49.5 4t48.5 9.5t39 16.5t28.5 26.5t10 37.5q0 18 -4 33q-14 76 -201 98l-211 25q-39 -28 -66.5 -81t-27.5 -111q0 -16 11 -27.5t32.5 -17.5t44 -10t53.5 -5t53 -1t51.5 1t40.5 1zM626 832q0 55 -7 101.5t-24 91t-50 70t-79 25.5q-47 0 -80 -25.5t-49.5 -70 t-23.5 -91t-7 -101.5q0 -272 160 -272t160 272z" />
<glyph unicode="&#x120;" horiz-adv-x="1199" d="M480 2168h256v-256h-256v256zM608 192q64 0 111 25t74.5 64.5t43.5 100.5t21.5 121t5.5 137v64h-256v190h512v-894h-192l-64 192q-75 -210 -256 -210q-123 0 -213.5 35t-147.5 95t-91 153t-47 196t-13 237v454q0 658 522 658q132 0 227 -41.5t151.5 -121t82.5 -186 t26 -245.5h-256q0 53 -1.5 90.5t-7 80.5t-15 72t-26.5 58t-41.5 45.5t-59.5 27t-80 10.5q-78 0 -131.5 -28.5t-82 -83t-40.5 -120t-12 -152.5v-576q0 -64 4 -115.5t13.5 -105t28 -92.5t46 -70.5t69 -48t95.5 -16.5z" />
<glyph unicode="&#x121;" horiz-adv-x="968" d="M370 1656h256v-256h-256v256zM82 832q0 133 42 237t130.5 166.5t211.5 62.5q71 0 124 -20t86.5 -50.5t65.5 -80.5q81 151 236 151v-210q-96 0 -160 -64q32 -94 32 -192q0 -134 -40.5 -237t-129 -165t-214.5 -62q-37 0 -81 7l-48 8q-2 -5 -10 -17.5t-12.5 -20.5 t-8.5 -20.5t-4 -23.5q0 -26 25 -44t69 -26.5t84.5 -12.5t90.5 -6.5t69 -5.5q57 -8 101.5 -18.5t91 -30.5t76.5 -48t49.5 -72t19.5 -101q0 -70 -24.5 -125t-65.5 -91t-99 -59.5t-122 -33.5t-137 -10q-48 0 -78 0.5t-82 2.5t-87 7.5t-80 14t-74.5 22.5t-56.5 33t-40.5 46.5 t-13.5 61.5q0 100 53.5 171t138.5 113q-52 14 -90 42.5t-38 69.5q0 17 4 36t9 34.5t16 35.5t17.5 31.5t21.5 32t20.5 28t21.5 27t18 22.5q-128 152 -128 384zM530 -194q27 0 48.5 1t49.5 4t48.5 9.5t39 16.5t28.5 26.5t10 37.5q0 18 -4 33q-14 76 -201 98l-211 25 q-39 -28 -66.5 -81t-27.5 -111q0 -16 11 -27.5t32.5 -17.5t44 -10t53.5 -5t53 -1t51.5 1t40.5 1zM626 832q0 55 -7 101.5t-24 91t-50 70t-79 25.5q-47 0 -80 -25.5t-49.5 -70t-23.5 -91t-7 -101.5q0 -272 160 -272t160 272z" />
<glyph unicode="&#x122;" horiz-adv-x="1199" d="M480 -120h256q0 -144 -3 -242q-2 -54 -6 -91t-16 -73.5t-32 -58t-53.5 -34.5t-81.5 -13l-64 128q69 0 98.5 30t29.5 98h-128v256zM608 192q64 0 111 25t74.5 64.5t43.5 100.5t21.5 121t5.5 137v64h-256v190h512v-894h-192l-64 192q-75 -210 -256 -210q-123 0 -213.5 35 t-147.5 95t-91 153t-47 196t-13 237v454q0 658 522 658q132 0 227 -41.5t151.5 -121t82.5 -186t26 -245.5h-256q0 53 -1.5 90.5t-7 80.5t-15 72t-26.5 58t-41.5 45.5t-59.5 27t-80 10.5q-78 0 -131.5 -28.5t-82 -83t-40.5 -120t-12 -152.5v-576q0 -64 4 -115.5t13.5 -105 t28 -92.5t46 -70.5t69 -48t95.5 -16.5z" />
<glyph unicode="&#x123;" horiz-adv-x="973" d="M627 1377h-256q0 30 -1 80.5t-1.5 82t0.5 76.5t5.5 74.5t12.5 64t22.5 56t35 41t50.5 28.5t68 9l64 -128q-69 0 -98.5 -30t-29.5 -98h128v-256zM97 832q0 133 42 237t130.5 166.5t211.5 62.5q71 0 124 -20t86.5 -50.5t65.5 -80.5q81 151 236 151v-210q-96 0 -160 -64 q32 -94 32 -192q0 -134 -40.5 -237t-129 -165t-214.5 -62q-37 0 -81 7h-48q-3 -6 -13.5 -20.5t-16 -27t-5.5 -26.5q0 -34 37.5 -54.5t97 -30t131.5 -17t144 -23t131.5 -40.5t97 -76t37.5 -124q0 -70 -24.5 -125t-65.5 -91t-99 -59.5t-122 -33.5t-137 -10q-48 0 -78 0.5 t-82 2.5t-87 7.5t-80 14t-74.5 22.5t-56.5 33t-40.5 46.5t-13.5 61.5q0 100 53.5 171t138.5 113q-52 14 -90 42.5t-38 69.5q0 17 4 36t9 34.5t16 35.5t17.5 31.5t21.5 32t20.5 28t21.5 27t18 22.5q-128 152 -128 384zM545 -194q27 0 48.5 1t49.5 4t48.5 9.5t39 16.5 t28.5 26.5t10 37.5q0 18 -4 33q-14 76 -201 98l-211 25q-39 -28 -66.5 -81t-27.5 -111q0 -16 11 -27.5t32.5 -17.5t44 -10t53.5 -5t53 -1t51.5 1t40.5 1zM641 832q0 55 -7 101.5t-24 91t-50 70t-79 25.5q-47 0 -80 -25.5t-49.5 -70t-23.5 -91t-7 -101.5q0 -272 160 -272 t160 272z" />
<glyph unicode="&#x124;" horiz-adv-x="1216" d="M608 2168l-128 -256h-192l192 384h256l192 -384h-192zM832 832h-448v-832h-256v1792h256v-768h448v768h256v-1792h-256v832z" />
<glyph unicode="&#x125;" d="M501 2150l-128 -256h-192l192 384h256l192 -384h-192zM373 1142q57 52 93 79.5t99.5 52t135.5 24.5q82 0 133 -60t51 -147v-1091h-256v960q0 66 -16.5 97t-71.5 31q-78 0 -168 -75v-1013h-256v1792h256v-650z" />
<glyph unicode="&#x126;" horiz-adv-x="1216" d="M832 832h-448v-832h-256v1355h-98v139h98v298h256v-298h448v298h256v-298h98v-139h-98v-1355h-256v832zM832 1355h-448v-331h448v331z" />
<glyph unicode="&#x127;" horiz-adv-x="1024" d="M384 1142q57 52 93 79.5t99.5 52t135.5 24.5q82 0 133 -60t51 -147v-1091h-256v960q0 66 -16.5 97t-71.5 31q-78 0 -168 -75v-1013h-256v1450h-129v152h129v190h256v-190h167v-152h-167v-308z" />
<glyph unicode="&#x128;" horiz-adv-x="542" d="M401 1912q-48 0 -98.5 22t-97.5 43.5t-88 21.5q-48 0 -48 -67h-154q0 116 57.5 194.5t162.5 78.5q58 0 145 -43t136 -43q51 0 51 69h154q0 -117 -57.5 -196.5t-162.5 -79.5zM140 1792h256v-1792h-256v1792z" />
<glyph unicode="&#x129;" horiz-adv-x="512" d="M389 1400q-48 0 -98.5 22t-97.5 43.5t-88 21.5q-48 0 -48 -67h-154q0 116 57.5 194.5t162.5 78.5q58 0 145 -43t136 -43q51 0 51 69h154q0 -117 -57.5 -196.5t-162.5 -79.5zM128 1280h256v-1280h-256v1280z" />
<glyph unicode="&#x12a;" horiz-adv-x="542" d="M51 2064h434v-152h-434v152zM140 1792h256v-1792h-256v1792z" />
<glyph unicode="&#x12b;" horiz-adv-x="512" d="M39 1552h434v-152h-434v152zM128 1280h256v-1280h-256v1280z" />
<glyph unicode="&#x12c;" horiz-adv-x="542" d="M588 2296q0 -200 -69.5 -292t-250.5 -92q-179 0 -249.5 93t-70.5 291h192q0 -102 24.5 -147t103.5 -45t103.5 45.5t24.5 146.5h192zM140 1792h256v-1792h-256v1792z" />
<glyph unicode="&#x12d;" horiz-adv-x="512" d="M576 1784q0 -200 -69.5 -292t-250.5 -92q-179 0 -249.5 93t-70.5 291h192q0 -102 24.5 -147t103.5 -45t103.5 45.5t24.5 146.5h192zM128 1280h256v-1280h-256v1280z" />
<glyph unicode="&#x12e;" horiz-adv-x="542" d="M-52 -313q0 55 23.5 110.5t60.5 99t82.5 76t89.5 44.5h128q-11 -13 -42.5 -51t-52.5 -66t-46 -66t-38 -74t-13 -69q0 -23 12.5 -38.5t35.5 -22.5t45 -10t51 -3q19 0 58.5 3t53.5 3v-128h-45q-47 0 -76.5 0.5t-69 2.5t-64 6t-54.5 10.5t-48.5 16.5t-37.5 24t-29.5 33 t-17 44t-6.5 55zM140 1792h256v-1792h-256v1792z" />
<glyph unicode="&#x12f;" horiz-adv-x="512" d="M-64 -313q0 55 23.5 110.5t60.5 99t82.5 76t89.5 44.5h128q-10 -13 -29.5 -36t-35.5 -43t-36 -46t-35 -50t-28.5 -49.5t-20.5 -51.5t-7 -50q0 -23 12.5 -38.5t35.5 -22.5t45 -10t51 -3q19 0 58.5 3t53.5 3v-128h-45q-47 0 -76.5 0.5t-69 2.5t-64 6t-54.5 10.5t-48.5 16.5 t-37.5 24t-29.5 33t-17 44t-6.5 55zM128 1280h256v-1280h-256v1280zM128 1728h256v-256h-256v256z" />
<glyph unicode="&#x130;" horiz-adv-x="542" d="M140 2168h256v-256h-256v256zM140 1792h256v-1792h-256v1792z" />
<glyph unicode="&#x131;" horiz-adv-x="512" d="M128 1280h256v-1280h-256v1280z" />
<glyph unicode="&#x132;" horiz-adv-x="1182" d="M542 192q83 0 129.5 9t76.5 38.5t40 77t10 131.5v1344h256v-1344q0 -122 -16 -201.5t-58.5 -137.5t-118 -83.5t-191.5 -25.5h-128v192zM140 1792h256v-1792h-256v1792z" />
<glyph unicode="&#x133;" horiz-adv-x="1049" d="M598 -320q-84 0 -128 17v182q35 -7 64 -7q128 0 128 149v1259h256v-1287q0 -148 -85.5 -230.5t-234.5 -82.5zM662 1728h256v-256h-256v256zM128 1280h256v-1280h-256v1280zM128 1728h256v-256h-256v256z" />
<glyph unicode="&#x134;" horiz-adv-x="640" d="M256 2168l-128 -256h-192l192 384h256l192 -384h-192zM0 192q83 0 129.5 9t76.5 38.5t40 77t10 131.5v1344h256v-1344q0 -122 -16 -201.5t-58.5 -137.5t-118 -83.5t-191.5 -25.5h-128v192z" />
<glyph unicode="&#x135;" horiz-adv-x="576" d="M224 1656l-128 -256h-192l192 384h256l192 -384h-192zM128 -320q-84 0 -128 17v182q35 -7 64 -7q128 0 128 149v1259h256v-1287q0 -148 -85.5 -230.5t-234.5 -82.5z" />
<glyph unicode="&#x136;" horiz-adv-x="1118" d="M512 -102h256q0 -145 -3 -242q-2 -54 -6 -91t-16 -73.5t-32 -58t-53.5 -34.5t-81.5 -13l-64 128q69 0 98.5 30t29.5 98h-128v256zM1152 0h-320l-320 832l-128 -256v-576h-256v1792h256v-768l384 768h320l-385 -704z" />
<glyph unicode="&#x137;" horiz-adv-x="943" d="M405 -102h256q0 -145 -3 -242q-2 -54 -6 -91t-16 -73.5t-32 -58t-53.5 -34.5t-81.5 -13l-64 128q69 0 98.5 30t29.5 98h-128v256zM373 1792v-985l320 473h256l-287 -447l287 -833h-256l-192 619l-128 -171v-448h-256v1792h256z" />
<glyph unicode="&#x138;" horiz-adv-x="960" d="M384 1281v-544l320 543h256l-287 -487l287 -793h-256l-202 619l-118 -181v-438h-256v1281h256z" />
<glyph unicode="&#x139;" horiz-adv-x="823" d="M544 1912h-128l128 384h256zM128 0v1792h256v-1600h448v-192h-704z" />
<glyph unicode="&#x13a;" horiz-adv-x="497" d="M314 1894h-128l128 384h256zM378 0h-256v1792h256v-1792z" />
<glyph unicode="&#x13b;" horiz-adv-x="823" d="M352 -102h256q0 -145 -3 -242q-2 -54 -6 -91t-16 -73.5t-32 -58t-53.5 -34.5t-81.5 -13l-64 128q69 0 98.5 30t29.5 98h-128v256zM128 0v1792h256v-1600h448v-192h-704z" />
<glyph unicode="&#x13c;" horiz-adv-x="497" d="M122 -102h256q0 -145 -3 -242q-2 -54 -6 -91t-16 -73.5t-32 -58t-53.5 -34.5t-81.5 -13l-64 128q69 0 98.5 30t29.5 98h-128v256zM378 0h-256v1792h256v-1792z" />
<glyph unicode="&#x13d;" horiz-adv-x="823" d="M985 1810h256q0 -145 -3 -242q-2 -54 -6 -91t-16 -73.5t-32 -58t-53.5 -34.5t-81.5 -13l-64 128q69 0 98.5 30t29.5 98h-128v256zM128 0v1792h256v-1600h448v-192h-704z" />
<glyph unicode="&#x13e;" horiz-adv-x="497" d="M531 1792h256q0 -144 -3 -242q-2 -54 -6 -91t-16 -73.5t-32 -58t-53.5 -34.5t-81.5 -13l-64 128q69 0 98.5 30t29.5 98h-128v256zM378 0h-256v1792h256v-1792z" />
<glyph unicode="&#x13f;" horiz-adv-x="896" d="M128 0v1792h256v-1600h448v-192h-704zM600 1168h256v-256h-256v256z" />
<glyph unicode="&#x140;" horiz-adv-x="889" d="M378 0h-256v1792h256v-1792z" />
<glyph unicode="&#x141;" horiz-adv-x="945" d="M177 0v858l-128 -71v206l128 71v728h256v-585l266 148v-206l-266 -148v-809h448v-192h-704z" />
<glyph unicode="&#x142;" horiz-adv-x="519" d="M142 0v1160l-130 -60v192l130 60v440h256v-323l158 73v-195l-158 -70v-1277h-256z" />
<glyph unicode="&#x143;" horiz-adv-x="1152" d="M640 1912h-128l128 384h256zM842 0l-458 1192v-1192h-256v1792h192l448 -1108v1108h256v-1792h-182z" />
<glyph unicode="&#x144;" d="M565 1400h-128l128 384h256zM373 1142q57 52 93 79.5t99.5 52t135.5 24.5q82 0 133 -60t51 -147v-1091h-256v960q0 67 -19 97.5t-77 30.5q-33 0 -65.5 -13.5t-48.5 -25t-46 -36.5v-1013h-256v1280h256v-138z" />
<glyph unicode="&#x145;" horiz-adv-x="1152" d="M448 -102h256q0 -145 -3 -242q-2 -54 -6 -91t-16 -73.5t-32 -58t-53.5 -34.5t-81.5 -13l-64 128q69 0 98.5 30t29.5 98h-128v256zM842 0l-458 1192v-1192h-256v1792h192l448 -1108v1108h256v-1792h-182z" />
<glyph unicode="&#x146;" d="M373 -102h256q0 -145 -3 -242q-2 -54 -6 -91t-16 -73.5t-32 -58t-53.5 -34.5t-81.5 -13l-64 128q69 0 98.5 30t29.5 98h-128v256zM373 1142q57 52 93 79.5t99.5 52t135.5 24.5q82 0 133 -60t51 -147v-1091h-256v960q0 67 -19 97.5t-77 30.5q-33 0 -65.5 -13.5t-48.5 -25 t-46 -36.5v-1013h-256v1280h256v-138z" />
<glyph unicode="&#x147;" horiz-adv-x="1152" d="M704 2296h192l-192 -384h-256l-192 384h192l128 -256zM842 0l-458 1192v-1192h-256v1792h192l448 -1108v1108h256v-1792h-182z" />
<glyph unicode="&#x148;" d="M629 1784h192l-192 -384h-256l-192 384h192l128 -256zM373 1142q57 52 93 79.5t99.5 52t135.5 24.5q82 0 133 -60t51 -147v-1091h-256v960q0 67 -19 97.5t-77 30.5q-33 0 -65.5 -13.5t-48.5 -25t-46 -36.5v-1013h-256v1280h256v-138z" />
<glyph unicode="&#x14c;" horiz-adv-x="1180" d="M373 2064h434v-152h-434v152zM590 1810q262 0 378 -150t116 -434v-650q0 -139 -26.5 -245.5t-83.5 -186t-153.5 -121t-230.5 -41.5q-135 0 -231.5 41t-153.5 120t-83 185.5t-26 247.5v650q0 141 26 246t83 182.5t153.5 116.5t231.5 39zM590 1600q-136 0 -187 -77 t-51 -233v-778q0 -158 51.5 -239t186.5 -81t186.5 81t51.5 239v778q0 156 -51 233t-187 77z" />
<glyph unicode="&#x14d;" horiz-adv-x="954" d="M260 1552h434v-152h-434v152zM477 -18q-206 0 -295 120t-89 346v384q0 226 89 346t295 120t295 -120t89 -346v-384q0 -226 -89 -346t-295 -120zM477 1088q-27 0 -47.5 -8t-34 -19.5t-22.5 -34t-14 -39.5t-7 -49t-2.5 -50.5t-0.5 -55.5v-384q0 -37 0.5 -55.5t2.5 -50.5 t7 -49t14 -39.5t22.5 -34t34 -19.5t47.5 -8t47.5 8t34 19.5t22.5 34t14 39.5t7 49t2.5 50.5t0.5 55.5v384q0 37 -0.5 55.5t-2.5 50.5t-7 49t-14 39.5t-22.5 34t-34 19.5t-47.5 8z" />
<glyph unicode="&#x14e;" horiz-adv-x="1180" d="M910 2296q0 -200 -69.5 -292t-250.5 -92q-179 0 -249.5 93t-70.5 291h192q0 -102 24.5 -147t103.5 -45t103.5 45.5t24.5 146.5h192zM590 1810q262 0 378 -150t116 -434v-650q0 -139 -26.5 -245.5t-83.5 -186t-153.5 -121t-230.5 -41.5q-135 0 -231.5 41t-153.5 120 t-83 185.5t-26 247.5v650q0 141 26 246t83 182.5t153.5 116.5t231.5 39zM590 1600q-136 0 -187 -77t-51 -233v-778q0 -158 51.5 -239t186.5 -81t186.5 81t51.5 239v778q0 156 -51 233t-187 77z" />
<glyph unicode="&#x14f;" horiz-adv-x="954" d="M797 1784q0 -200 -69.5 -292t-250.5 -92q-179 0 -249.5 93t-70.5 291h192q0 -102 24.5 -147t103.5 -45t103.5 45.5t24.5 146.5h192zM477 -18q-206 0 -295 120t-89 346v384q0 226 89 346t295 120t295 -120t89 -346v-384q0 -226 -89 -346t-295 -120zM477 1088 q-27 0 -47.5 -8t-34 -19.5t-22.5 -34t-14 -39.5t-7 -49t-2.5 -50.5t-0.5 -55.5v-384q0 -37 0.5 -55.5t2.5 -50.5t7 -49t14 -39.5t22.5 -34t34 -19.5t47.5 -8t47.5 8t34 19.5t22.5 34t14 39.5t7 49t2.5 50.5t0.5 55.5v384q0 37 -0.5 55.5t-2.5 50.5t-7 49t-14 39.5t-22.5 34 t-34 19.5t-47.5 8z" />
<glyph unicode="&#x150;" horiz-adv-x="1180" d="M507 1912h-128l88 384h206zM801 1912h-128l128 384h256zM590 1810q262 0 378 -150t116 -434v-650q0 -139 -26.5 -245.5t-83.5 -186t-153.5 -121t-230.5 -41.5q-135 0 -231.5 41t-153.5 120t-83 185.5t-26 247.5v650q0 141 26 246t83 182.5t153.5 116.5t231.5 39z M590 1600q-136 0 -187 -77t-51 -233v-778q0 -158 51.5 -239t186.5 -81t186.5 81t51.5 239v778q0 156 -51 233t-187 77z" />
<glyph unicode="&#x151;" horiz-adv-x="954" d="M394 1400h-128l88 384h206zM688 1400h-128l128 384h256zM477 -18q-206 0 -295 120t-89 346v384q0 226 89 346t295 120t295 -120t89 -346v-384q0 -226 -89 -346t-295 -120zM477 1088q-27 0 -47.5 -8t-34 -19.5t-22.5 -34t-14 -39.5t-7 -49t-2.5 -50.5t-0.5 -55.5v-384 q0 -37 0.5 -55.5t2.5 -50.5t7 -49t14 -39.5t22.5 -34t34 -19.5t47.5 -8t47.5 8t34 19.5t22.5 34t14 39.5t7 49t2.5 50.5t0.5 55.5v384q0 37 -0.5 55.5t-2.5 50.5t-7 49t-14 39.5t-22.5 34t-34 19.5t-47.5 8z" />
<glyph unicode="&#x152;" horiz-adv-x="1664" d="M640 1810q176 0 256 -146v128h704v-192h-448v-576h320v-192h-320v-640h448v-192h-704v128q-76 -146 -256 -146q-512 0 -512 594v640q0 594 512 594zM640 1600q-137 0 -196.5 -83t-59.5 -237v-768q0 -154 59.5 -237t196.5 -83t196.5 83t59.5 237v782q-2 147 -62 226.5 t-194 79.5z" />
<glyph unicode="&#x153;" horiz-adv-x="1536" d="M896 576q0 -158 3 -196q23 -182 125 -188q27 0 48 8.5t34.5 19t22.5 33.5t13.5 38.5t7 49.5t2.5 51v56h256q0 -230 -90.5 -348t-293.5 -118q-180 0 -256 146q-76 -146 -256 -146q-206 0 -295 120t-89 346v384q0 226 89 346t295 120q176 0 256 -146q74 146 257 146 q81 0 143.5 -21.5t104 -65t69 -97t41.5 -129t19.5 -148.5t5.5 -167v-30h-512v-64zM512 1088q-27 0 -47.5 -8t-34 -19.5t-22.5 -34t-14 -39.5t-7 -49t-2.5 -50.5t-0.5 -55.5v-384q0 -37 0.5 -55.5t2.5 -50.5t7 -49t14 -39.5t22.5 -34t34 -19.5t47.5 -8t47.5 8t34 19.5 t22.5 34t14 39.5t7 49t2.5 50.5t0.5 55.5v384q0 37 -0.5 55.5t-2.5 50.5t-7 49t-14 39.5t-22.5 34t-34 19.5t-47.5 8zM1152 768q0 154 -15 214q-29 105 -112 106q-24 0 -43 -7.5t-32 -23.5t-22.5 -32t-15.5 -44t-9.5 -47.5t-4.5 -53.5t-1.5 -52t-0.5 -51v-9h256z" />
<glyph unicode="&#x154;" horiz-adv-x="1108" d="M672 1912h-128l128 384h256zM1024 1312q0 -160 -57 -268t-167 -148l288 -896h-254l-258 832h-192v-832h-256v1792h320q286 0 431 -111t145 -369zM768 1312q0 153 -80 220.5t-240 67.5h-64v-576h64q160 0 240 67.5t80 220.5z" />
<glyph unicode="&#x155;" horiz-adv-x="680" d="M469 1400h-128l128 384h256zM373 1109q39 76 113.5 132.5t165.5 56.5q3 0 41 -4v-283q-71 28 -142 28q-80 0 -129 -48t-49 -127v-864h-256v1280h256v-171z" />
<glyph unicode="&#x156;" horiz-adv-x="1108" d="M480 -102h256q0 -145 -3 -242q-2 -54 -6 -91t-16 -73.5t-32 -58t-53.5 -34.5t-81.5 -13l-64 128q69 0 98.5 30t29.5 98h-128v256zM1024 1312q0 -160 -57 -268t-167 -148l288 -896h-254l-258 832h-192v-832h-256v1792h320q286 0 431 -111t145 -369zM768 1312 q0 153 -80 220.5t-240 67.5h-64v-576h64q160 0 240 67.5t80 220.5z" />
<glyph unicode="&#x157;" horiz-adv-x="680" d="M277 -102h256q0 -145 -3 -242q-2 -54 -6 -91t-16 -73.5t-32 -58t-53.5 -34.5t-81.5 -13l-64 128q69 0 98.5 30t29.5 98h-128v256zM373 1109q39 76 113.5 132.5t165.5 56.5q3 0 41 -4v-283q-71 28 -142 28q-80 0 -129 -48t-49 -127v-864h-256v1280h256v-171z" />
<glyph unicode="&#x158;" horiz-adv-x="1108" d="M736 2296h192l-192 -384h-256l-192 384h192l128 -256zM1024 1312q0 -160 -57 -268t-167 -148l288 -896h-254l-258 832h-192v-832h-256v1792h320q286 0 431 -111t145 -369zM768 1312q0 153 -80 220.5t-240 67.5h-64v-576h64q160 0 240 67.5t80 220.5z" />
<glyph unicode="&#x159;" horiz-adv-x="680" d="M533 1784h192l-192 -384h-256l-192 384h192l128 -256zM373 1109q39 76 113.5 132.5t165.5 56.5q3 0 41 -4v-283q-71 28 -142 28q-80 0 -129 -48t-49 -127v-864h-256v1280h256v-171z" />
<glyph unicode="&#x15a;" horiz-adv-x="1102" d="M626 1912h-128l128 384h256zM787 1280q-4 67 -19.5 122t-44.5 101t-78 71.5t-114 25.5q-92 0 -142 -51.5t-50 -143.5q0 -151 128 -253l320 -256q256 -207 256 -495q0 -197 -121.5 -308t-326.5 -111q-242 0 -369.5 142t-142.5 388l256 64q19 -384 256 -384q192 0 192 192 q0 57 -15.5 105.5t-47.5 89t-58 65t-71 60.5l-320 256q-88 69 -140.5 175.5t-52.5 242.5q0 198 123 315t326 117q234 0 364 -122t148 -344z" />
<glyph unicode="&#x15b;" horiz-adv-x="872" d="M504 1400h-128l128 384h256zM632 896q-14 38 -28 65.5t-37.5 59.5t-55.5 49.5t-71 17.5q-61 0 -94.5 -33.5t-33.5 -94.5q0 -60 64 -108l256 -192q43 -34 73.5 -65.5t59.5 -73t44 -92.5t15 -109q0 -164 -104.5 -251t-279.5 -87q-158 0 -253.5 94t-130.5 244l192 64 q69 -192 192 -192q61 0 94.5 33.5t33.5 94.5q0 89 -64 148l-256 192q-43 29 -72 54.5t-59 62.5t-45.5 83t-15.5 100q0 164 104.5 251t279.5 87q83 0 150 -26.5t112.5 -74.5t75 -106.5t46.5 -130.5z" />
<glyph unicode="&#x15c;" horiz-adv-x="1102" d="M562 2168l-128 -256h-192l192 384h256l192 -384h-192zM787 1280q-4 67 -19.5 122t-44.5 101t-78 71.5t-114 25.5q-92 0 -142 -51.5t-50 -143.5q0 -151 128 -253l320 -256q256 -207 256 -495q0 -197 -121.5 -308t-326.5 -111q-242 0 -369.5 142t-142.5 388l256 64 q19 -384 256 -384q192 0 192 192q0 57 -15.5 105.5t-47.5 89t-58 65t-71 60.5l-320 256q-88 69 -140.5 175.5t-52.5 242.5q0 198 123 315t326 117q234 0 364 -122t148 -344z" />
<glyph unicode="&#x15d;" horiz-adv-x="872" d="M440 1656l-128 -256h-192l192 384h256l192 -384h-192zM632 896q-14 38 -28 65.5t-37.5 59.5t-55.5 49.5t-71 17.5q-61 0 -94.5 -33.5t-33.5 -94.5q0 -60 64 -108l256 -192q43 -34 73.5 -65.5t59.5 -73t44 -92.5t15 -109q0 -164 -104.5 -251t-279.5 -87q-158 0 -253.5 94 t-130.5 244l192 64q69 -192 192 -192q61 0 94.5 33.5t33.5 94.5q0 89 -64 148l-256 192q-43 29 -72 54.5t-59 62.5t-45.5 83t-15.5 100q0 164 104.5 251t279.5 87q83 0 150 -26.5t112.5 -74.5t75 -106.5t46.5 -130.5z" />
<glyph unicode="&#x15e;" horiz-adv-x="1102" d="M626 -129q30 -8 53 -15.5t55.5 -20t56 -27.5t46 -33.5t34 -43t11.5 -52.5q0 -26 -4.5 -49t-15 -40.5t-23.5 -31.5t-31.5 -24.5t-37 -18t-43.5 -12.5t-47.5 -8.5t-52 -5t-53 -2t-54.5 -0.5h-86v128q15 0 52 -1t56 -1q33 0 56.5 2.5t46 9t34 20.5t11.5 34q0 14 -7 27 t-22 24.5t-29 20.5t-36 18.5t-35.5 15t-35 13t-27.5 9.5v192h128v-128zM787 1280q-4 67 -19.5 122t-44.5 101t-78 71.5t-114 25.5q-92 0 -142 -51.5t-50 -143.5q0 -151 128 -253l320 -256q256 -207 256 -495q0 -197 -121.5 -308t-326.5 -111q-242 0 -369.5 142t-142.5 388 l256 64q19 -384 256 -384q192 0 192 192q0 57 -15.5 105.5t-47.5 89t-58 65t-71 60.5l-320 256q-88 69 -140.5 175.5t-52.5 242.5q0 198 123 315t326 117q234 0 364 -122t148 -344z" />
<glyph unicode="&#x15f;" horiz-adv-x="872" d="M504 -129q36 -10 63.5 -19t66.5 -26.5t64 -36.5t43.5 -48t18.5 -62q0 -38 -11 -67.5t-28.5 -49.5t-46 -34t-56.5 -22t-69 -12.5t-73.5 -5.5t-78.5 -1h-85v128q15 0 51.5 -1t56.5 -1q32 0 55.5 2.5t46 9t34.5 20.5t12 34q0 14 -7.5 27t-22 24.5t-29 20.5t-36.5 18.5 t-35 15t-35 13t-27 9.5v192h128v-128zM632 896q-14 38 -28 65.5t-37.5 59.5t-55.5 49.5t-71 17.5q-61 0 -94.5 -33.5t-33.5 -94.5q0 -60 64 -108l256 -192q43 -34 73.5 -65.5t59.5 -73t44 -92.5t15 -109q0 -164 -104.5 -251t-279.5 -87q-158 0 -253.5 94t-130.5 244l192 64 q69 -192 192 -192q61 0 94.5 33.5t33.5 94.5q0 89 -64 148l-256 192q-43 29 -72 54.5t-59 62.5t-45.5 83t-15.5 100q0 164 104.5 251t279.5 87q83 0 150 -26.5t112.5 -74.5t75 -106.5t46.5 -130.5z" />
<glyph unicode="&#x160;" horiz-adv-x="1102" d="M690 2296h192l-192 -384h-256l-192 384h192l128 -256zM787 1280q-4 67 -19.5 122t-44.5 101t-78 71.5t-114 25.5q-92 0 -142 -51.5t-50 -143.5q0 -151 128 -253l320 -256q256 -207 256 -495q0 -197 -121.5 -308t-326.5 -111q-242 0 -369.5 142t-142.5 388l256 64 q19 -384 256 -384q192 0 192 192q0 57 -15.5 105.5t-47.5 89t-58 65t-71 60.5l-320 256q-88 69 -140.5 175.5t-52.5 242.5q0 198 123 315t326 117q234 0 364 -122t148 -344z" />
<glyph unicode="&#x161;" horiz-adv-x="872" d="M568 1784h192l-192 -384h-256l-192 384h192l128 -256zM632 896q-14 38 -28 65.5t-37.5 59.5t-55.5 49.5t-71 17.5q-61 0 -94.5 -33.5t-33.5 -94.5q0 -60 64 -108l256 -192q43 -34 73.5 -65.5t59.5 -73t44 -92.5t15 -109q0 -164 -104.5 -251t-279.5 -87q-158 0 -253.5 94 t-130.5 244l192 64q69 -192 192 -192q61 0 94.5 33.5t33.5 94.5q0 89 -64 148l-256 192q-43 29 -72 54.5t-59 62.5t-45.5 83t-15.5 100q0 164 104.5 251t279.5 87q83 0 150 -26.5t112.5 -74.5t75 -106.5t46.5 -130.5z" />
<glyph unicode="&#x162;" horiz-adv-x="888" d="M508 -111q36 -10 63.5 -19t66.5 -26.5t64 -36.5t43.5 -48t18.5 -62q0 -38 -11 -67.5t-28.5 -49.5t-46 -34t-56.5 -22t-69 -12.5t-73.5 -5.5t-78.5 -1h-85v128q15 0 51.5 -1t56.5 -1q32 0 55.5 2.5t46 9t34.5 20.5t12 34q0 14 -7.5 27t-22 24.5t-29 20.5t-36.5 18.5 t-35 15t-35 13t-27 9.5v192h128v-128zM892 1792v-228h-320v-1564h-256v1564h-320v228h896z" />
<glyph unicode="&#x163;" horiz-adv-x="658" d="M393 -129q25 -7 44.5 -13t47 -16.5t49 -21t44 -26t37.5 -32t24.5 -38t9.5 -45.5q0 -38 -11 -67.5t-28.5 -49.5t-46 -34t-56.5 -22t-69 -12.5t-73.5 -5.5t-78.5 -1h-85v128q15 0 51.5 -1t56.5 -1q32 0 55.5 2.5t46 9t34.5 20.5t12 34q0 14 -7.5 27t-22 24.5t-29 20.5 t-36.5 18.5t-35 15t-35 13t-27 9.5v192h128v-128zM617 -6q-96 -12 -158 -12q-151 0 -219.5 77t-70.5 233v796h-128v192h128v448h256v-448h192v-192h-192v-747q0 -77 21 -113t85 -36q29 0 86 10v-208z" />
<glyph unicode="&#x164;" horiz-adv-x="888" d="M572 2296h192l-192 -384h-256l-192 384h192l128 -256zM892 1792v-228h-320v-1564h-256v1564h-320v228h896z" />
<glyph unicode="&#x165;" horiz-adv-x="658" d="M770 1728h256q0 -144 -3 -242q-2 -54 -6 -91t-16 -73.5t-32 -58t-53.5 -34.5t-81.5 -13l-64 128q69 0 98.5 30t29.5 98h-128v256zM617 -6q-96 -12 -158 -12q-151 0 -219.5 77t-70.5 233v796h-128v192h128v448h256v-448h192v-192h-192v-747q0 -77 21 -113t85 -36 q29 0 86 10v-208z" />
<glyph unicode="&#x168;" horiz-adv-x="1252" d="M759 1912q-48 0 -98.5 22t-97.5 43.5t-88 21.5q-48 0 -48 -67h-154q0 116 57.5 194.5t162.5 78.5q58 0 145 -43t136 -43q51 0 51 69h154q0 -117 -57.5 -196.5t-162.5 -79.5zM1138 640q0 -123 -15 -220.5t-51 -181.5t-93.5 -139.5t-146.5 -86.5t-206 -31t-206 31 t-146.5 86.5t-93.5 139.5t-51 181.5t-15 220.5v1152h256v-1152q0 -83 3.5 -139t18.5 -119.5t41.5 -101.5t75 -63t117.5 -25t117.5 25t75 63t41.5 101.5t18.5 119.5t3.5 139v1152h256v-1152z" />
<glyph unicode="&#x169;" d="M624 1400q-60 0 -148 43.5t-136 43.5t-48 -67h-154q0 116 57.5 194.5t162.5 78.5q58 0 145 -43t136 -43q51 0 51 69h154q0 -117 -57.5 -196.5t-162.5 -79.5zM619 138q-38 -33 -55.5 -48t-53.5 -40.5t-63.5 -37t-68.5 -21t-85 -9.5q-84 0 -135 59.5t-51 147.5v1091h256 v-1013q0 -40 24.5 -65t63.5 -25q21 0 41 5t39.5 17.5t30.5 20t31.5 25.5t25.5 22v1013h256v-1280h-256v138z" />
<glyph unicode="&#x16a;" horiz-adv-x="1252" d="M409 2064h434v-152h-434v152zM1138 640q0 -123 -15 -220.5t-51 -181.5t-93.5 -139.5t-146.5 -86.5t-206 -31t-206 31t-146.5 86.5t-93.5 139.5t-51 181.5t-15 220.5v1152h256v-1152q0 -83 3.5 -139t18.5 -119.5t41.5 -101.5t75 -63t117.5 -25t117.5 25t75 63t41.5 101.5 t18.5 119.5t3.5 139v1152h256v-1152z" />
<glyph unicode="&#x16b;" d="M274 1552h434v-152h-434v152zM619 138q-38 -33 -55.5 -48t-53.5 -40.5t-63.5 -37t-68.5 -21t-85 -9.5q-84 0 -135 59.5t-51 147.5v1091h256v-1013q0 -40 24.5 -65t63.5 -25q21 0 41 5t39.5 17.5t30.5 20t31.5 25.5t25.5 22v1013h256v-1280h-256v138z" />
<glyph unicode="&#x16c;" horiz-adv-x="1252" d="M946 2296q0 -200 -69.5 -292t-250.5 -92q-179 0 -249.5 93t-70.5 291h192q0 -102 24.5 -147t103.5 -45t103.5 45.5t24.5 146.5h192zM1138 640q0 -123 -15 -220.5t-51 -181.5t-93.5 -139.5t-146.5 -86.5t-206 -31t-206 31t-146.5 86.5t-93.5 139.5t-51 181.5t-15 220.5 v1152h256v-1152q0 -83 3.5 -139t18.5 -119.5t41.5 -101.5t75 -63t117.5 -25t117.5 25t75 63t41.5 101.5t18.5 119.5t3.5 139v1152h256v-1152z" />
<glyph unicode="&#x16d;" d="M811 1784q0 -200 -69.5 -292t-250.5 -92q-179 0 -249.5 93t-70.5 291h192q0 -102 24.5 -147t103.5 -45t103.5 45.5t24.5 146.5h192zM619 138q-38 -33 -55.5 -48t-53.5 -40.5t-63.5 -37t-68.5 -21t-85 -9.5q-84 0 -135 59.5t-51 147.5v1091h256v-1013q0 -40 24.5 -65 t63.5 -25q21 0 41 5t39.5 17.5t30.5 20t31.5 25.5t25.5 22v1013h256v-1280h-256v138z" />
<glyph unicode="&#x16e;" horiz-adv-x="1252" d="M754 2168q0 59 -34 93.5t-94 34.5t-94 -34t-34 -94t34 -94t94 -34t94 34.5t34 93.5zM370 2168q0 116 69.5 186t186.5 70t186.5 -70t69.5 -186t-69.5 -186t-186.5 -70t-186.5 70t-69.5 186zM1138 640q0 -123 -15 -220.5t-51 -181.5t-93.5 -139.5t-146.5 -86.5t-206 -31 t-206 31t-146.5 86.5t-93.5 139.5t-51 181.5t-15 220.5v1152h256v-1152q0 -83 3.5 -139t18.5 -119.5t41.5 -101.5t75 -63t117.5 -25t117.5 25t75 63t41.5 101.5t18.5 119.5t3.5 139v1152h256v-1152z" />
<glyph unicode="&#x16f;" d="M619 1656q0 59 -34 93.5t-94 34.5t-94 -34t-34 -94t34 -94t94 -34t94 34.5t34 93.5zM235 1656q0 116 69.5 186t186.5 70t186.5 -70t69.5 -186t-69.5 -186t-186.5 -70t-186.5 70t-69.5 186zM619 138q-38 -33 -55.5 -48t-53.5 -40.5t-63.5 -37t-68.5 -21t-85 -9.5 q-84 0 -135 59.5t-51 147.5v1091h256v-1013q0 -40 24.5 -65t63.5 -25q21 0 41 5t39.5 17.5t30.5 20t31.5 25.5t25.5 22v1013h256v-1280h-256v138z" />
<glyph unicode="&#x170;" horiz-adv-x="1252" d="M543 1912h-128l88 384h206zM837 1912h-128l128 384h256zM1138 640q0 -123 -15 -220.5t-51 -181.5t-93.5 -139.5t-146.5 -86.5t-206 -31t-206 31t-146.5 86.5t-93.5 139.5t-51 181.5t-15 220.5v1152h256v-1152q0 -83 3.5 -139t18.5 -119.5t41.5 -101.5t75 -63t117.5 -25 t117.5 25t75 63t41.5 101.5t18.5 119.5t3.5 139v1152h256v-1152z" />
<glyph unicode="&#x171;" d="M408 1400h-128l88 384h206zM702 1400h-128l128 384h256zM619 138q-38 -33 -55.5 -48t-53.5 -40.5t-63.5 -37t-68.5 -21t-85 -9.5q-84 0 -135 59.5t-51 147.5v1091h256v-1013q0 -40 24.5 -65t63.5 -25q21 0 41 5t39.5 17.5t30.5 20t31.5 25.5t25.5 22v1013h256v-1280h-256 v138z" />
<glyph unicode="&#x172;" horiz-adv-x="1252" d="M306 -332q0 55 23.5 110.5t60.5 99t82.5 76t89.5 44.5h128q-11 -14 -35 -43t-42.5 -51.5t-41 -54.5t-37.5 -59t-25.5 -58.5t-10.5 -59.5q0 -23 12.5 -38.5t35.5 -22.5t45 -10t51 -3q19 0 58.5 3t53.5 3v-128h-45q-47 0 -76.5 0.5t-69 2.5t-64 6t-54.5 10.5t-48.5 16.5 t-37.5 24t-29.5 33t-17 44t-6.5 55zM1138 640q0 -123 -15 -220.5t-51 -181.5t-93.5 -139.5t-146.5 -86.5t-206 -31t-206 31t-146.5 86.5t-93.5 139.5t-51 181.5t-15 220.5v1152h256v-1152q0 -83 3.5 -139t18.5 -119.5t41.5 -101.5t75 -63t117.5 -25t117.5 25t75 63 t41.5 101.5t18.5 119.5t3.5 139v1152h256v-1152z" />
<glyph unicode="&#x173;" d="M372 -330q0 55 23.5 110.5t60.5 99t82.5 76t89.5 44.5h128q-10 -13 -29.5 -36t-35.5 -43t-36 -46t-35 -50t-28.5 -49.5t-20.5 -51.5t-7 -50q0 -23 12.5 -38.5t35.5 -22.5t45 -10t51 -3q19 0 58.5 3t53.5 3v-128h-45q-47 0 -76.5 0.5t-69 2.5t-64 6t-54.5 10.5t-48.5 16.5 t-37.5 24t-29.5 33t-17 44t-6.5 55zM619 138q-38 -33 -55.5 -48t-53.5 -40.5t-63.5 -37t-68.5 -21t-85 -9.5q-84 0 -135 59.5t-51 147.5v1091h256v-1013q0 -40 24.5 -65t63.5 -25q21 0 41 5t39.5 17.5t30.5 20t31.5 25.5t25.5 22v1013h256v-1280h-256v138z" />
<glyph unicode="&#x174;" horiz-adv-x="1558" d="M779 2168l-128 -256h-192l192 384h256l192 -384h-192zM907 1792l128 -832l63 -512l65 512l128 832h256l-320 -1792h-256l-128 832l-64 512l-64 -512l-128 -832h-256l-320 1792h256l128 -832l65 -512l63 512l128 832h256z" />
<glyph unicode="&#x175;" horiz-adv-x="1269" d="M634 1656l-128 -256h-192l192 384h256l192 -384h-192zM635 882l-138 -882h-246l-237 1280h227l142 -972l134 972h234l136 -962l140 962h228l-248 -1280h-236z" />
<glyph unicode="&#x176;" horiz-adv-x="1018" d="M509 2168l-128 -256h-192l192 384h256l192 -384h-192zM381 0v576l-384 1216h256l256 -896l256 896h256l-384 -1216v-576h-256z" />
<glyph unicode="&#x177;" horiz-adv-x="842" d="M426 1656l-128 -256h-192l192 384h256l192 -384h-192zM74 -128q104 0 165 46t61 140l-290 1222h256q149 -823 161 -896q21 135 47.5 284.5t60 330t51.5 281.5h256l-320 -1344q-33 -142 -142.5 -199t-305.5 -57v192z" />
<glyph unicode="&#x178;" horiz-adv-x="1018" d="M189 2168h256v-256h-256v256zM573 2168h256v-256h-256v256zM381 0v576l-384 1216h256l256 -896l256 896h256l-384 -1216v-576h-256z" />
<glyph unicode="&#x179;" horiz-adv-x="951" d="M542 1912h-128l128 384h256zM318 192h576v-192h-832v192l576 1408h-512v192h768v-192z" />
<glyph unicode="&#x17a;" horiz-adv-x="782" d="M457 1400h-128l128 384h256zM489 1088h-384v192h640v-192l-448 -896h448v-192h-704v192z" />
<glyph unicode="&#x17b;" horiz-adv-x="951" d="M350 2168h256v-256h-256v256zM318 192h576v-192h-832v192l576 1408h-512v192h768v-192z" />
<glyph unicode="&#x17c;" horiz-adv-x="782" d="M265 1656h256v-256h-256v256zM489 1088h-384v192h640v-192l-448 -896h448v-192h-704v192z" />
<glyph unicode="&#x17d;" horiz-adv-x="951" d="M606 2296h192l-192 -384h-256l-192 384h192l128 -256zM318 192h576v-192h-832v192l576 1408h-512v192h768v-192z" />
<glyph unicode="&#x17e;" horiz-adv-x="782" d="M521 1784h192l-192 -384h-256l-192 384h192l128 -256zM489 1088h-384v192h640v-192l-448 -896h448v-192h-704v192z" />
<glyph unicode="&#x192;" horiz-adv-x="704" d="M448 128q0 -79 -6.5 -134.5t-24.5 -105.5t-50 -80t-84 -47t-125 -17q-62 0 -158 12v190q60 -10 86 -10q64 0 85 40.5t21 119.5v992h-128v192h128v64q0 78 6.5 133.5t25 105.5t50.5 80t83.5 47.5t124.5 17.5q62 0 158 -12v-190q-10 1 -41 5.5t-45 4.5q-64 0 -85 -40.5 t-21 -119.5v-96h128v-192h-128v-960z" />
<glyph unicode="&#x1c4;" horiz-adv-x="2080" d="M1037 576q0 -295 -117.5 -435.5t-396.5 -140.5h-395v1792h397q281 0 396.5 -115t115.5 -397v-704zM781 1216q0 49 -0.5 78t-3 68.5t-7.5 62.5t-14 51.5t-22.5 44.5t-33 33.5t-45 26t-59.5 14t-76 5.5h-136v-1408h141q38 0 69.5 5t56 14.5t43.5 23t32.5 31.5t23.5 39.5 t15.5 46.5t9 53.5t4.5 59.5t2 65t0 71v13v12.5v13.5v576zM1726 2296h192l-192 -384h-256l-192 384h192l128 -256zM1438 192h576v-192h-832v192l576 1408h-512v192h768v-192z" />
<glyph unicode="&#x1c5;" horiz-adv-x="1950" d="M1037 576q0 -295 -117.5 -435.5t-396.5 -140.5h-395v1792h397q281 0 396.5 -115t115.5 -397v-704zM781 1216q0 49 -0.5 78t-3 68.5t-7.5 62.5t-14 51.5t-22.5 44.5t-33 33.5t-45 26t-59.5 14t-76 5.5h-136v-1408h141q38 0 69.5 5t56 14.5t43.5 23t32.5 31.5t23.5 39.5 t15.5 46.5t9 53.5t4.5 59.5t2 65t0 71v13v12.5v13.5v576zM1641 1784h192l-192 -384h-256l-192 384h192l128 -256zM1609 1088h-384v192h640v-192l-448 -896h448v-192h-704v192z" />
<glyph unicode="&#x1c6;" horiz-adv-x="1886" d="M349 705q0 -21 -0.5 -63t-1 -72.5t0 -74.5t4 -76.5t8.5 -69.5t15 -63t23.5 -48.5t33.5 -34t45 -11.5q93 0 192 40v805q-86 51 -192 51q-24 0 -43.5 -7.5t-33 -23.5t-23.5 -33.5t-15.5 -45t-8.5 -49.5t-4 -56.5t-1 -56.5t0.5 -58t0.5 -53zM409 1298q43 0 80.5 -11.5 t71.5 -36t54.5 -43.5t53.5 -54v638h256v-1791h-256v116q-58 -60 -118 -97t-138 -37q-74 0 -131.5 37.5t-92.5 96.5t-57 140t-30.5 159t-8.5 162v12q0 96 1 146t6.5 138t17 136.5t34.5 112t56 96t84 56.5t117 24zM1577 1784h192l-192 -384h-256l-192 384h192l128 -256z M1545 1088h-384v192h640v-192l-448 -896h448v-192h-704v192z" />
<glyph unicode="&#x1c7;" horiz-adv-x="1536" d="M896 192q83 0 129.5 9t76.5 38.5t40 77t10 131.5v1344h256v-1344q0 -122 -16 -201.5t-58.5 -137.5t-118 -83.5t-191.5 -25.5h-128v192zM128 0v1792h256v-1600h448v-192h-704z" />
<glyph unicode="&#x1c8;" horiz-adv-x="1433" d="M982 -320q-84 0 -128 17v182q35 -7 64 -7q128 0 128 149v1259h256v-1287q0 -148 -85.5 -230.5t-234.5 -82.5zM1046 1728h256v-256h-256v256zM128 0v1792h256v-1600h448v-192h-704z" />
<glyph unicode="&#x1c9;" horiz-adv-x="1042" d="M591 -320q-84 0 -128 17v182q35 -7 64 -7q128 0 128 149v1259h256v-1287q0 -148 -85.5 -230.5t-234.5 -82.5zM655 1728h256v-256h-256v256zM378 0h-256v1792h256v-1792z" />
<glyph unicode="&#x1ca;" horiz-adv-x="1792" d="M1152 192q83 0 129.5 9t76.5 38.5t40 77t10 131.5v1344h256v-1344q0 -122 -16 -201.5t-58.5 -137.5t-118 -83.5t-191.5 -25.5h-128v192zM842 0l-458 1192v-1192h-256v1792h192l448 -1108v1108h256v-1792h-182z" />
<glyph unicode="&#x1cb;" horiz-adv-x="1689" d="M1238 -320q-84 0 -128 17v182q35 -7 64 -7q128 0 128 149v1259h256v-1287q0 -148 -85.5 -230.5t-234.5 -82.5zM1302 1728h256v-256h-256v256zM842 0l-458 1192v-1192h-256v1792h192l448 -1108v1108h256v-1792h-182z" />
<glyph unicode="&#x1cc;" horiz-adv-x="1529" d="M1078 -320q-84 0 -128 17v182q35 -7 64 -7q128 0 128 149v1259h256v-1287q0 -148 -85.5 -230.5t-234.5 -82.5zM1142 1728h256v-256h-256v256zM373 1142q57 52 93 79.5t99.5 52t135.5 24.5q82 0 133 -60t51 -147v-1091h-256v960q0 67 -19 97.5t-77 30.5q-33 0 -65.5 -13.5 t-48.5 -25t-46 -36.5v-1013h-256v1280h256v-138z" />
<glyph unicode="&#x1f1;" horiz-adv-x="2080" d="M1037 576q0 -295 -117.5 -435.5t-396.5 -140.5h-395v1792h397q281 0 396.5 -115t115.5 -397v-704zM781 1216q0 49 -0.5 78t-3 68.5t-7.5 62.5t-14 51.5t-22.5 44.5t-33 33.5t-45 26t-59.5 14t-76 5.5h-136v-1408h141q38 0 69.5 5t56 14.5t43.5 23t32.5 31.5t23.5 39.5 t15.5 46.5t9 53.5t4.5 59.5t2 65t0 71v13v12.5v13.5v576zM1438 192h576v-192h-832v192l576 1408h-512v192h768v-192z" />
<glyph unicode="&#x1f2;" horiz-adv-x="1950" d="M1037 576q0 -295 -117.5 -435.5t-396.5 -140.5h-395v1792h397q281 0 396.5 -115t115.5 -397v-704zM781 1216q0 49 -0.5 78t-3 68.5t-7.5 62.5t-14 51.5t-22.5 44.5t-33 33.5t-45 26t-59.5 14t-76 5.5h-136v-1408h141q38 0 69.5 5t56 14.5t43.5 23t32.5 31.5t23.5 39.5 t15.5 46.5t9 53.5t4.5 59.5t2 65t0 71v13v12.5v13.5v576zM1609 1088h-384v192h640v-192l-448 -896h448v-192h-704v192z" />
<glyph unicode="&#x1f3;" horiz-adv-x="1886" d="M349 705q0 -21 -0.5 -63t-1 -72.5t0 -74.5t4 -76.5t8.5 -69.5t15 -63t23.5 -48.5t33.5 -34t45 -11.5q93 0 192 40v805q-86 51 -192 51q-24 0 -43.5 -7.5t-33 -23.5t-23.5 -33.5t-15.5 -45t-8.5 -49.5t-4 -56.5t-1 -56.5t0.5 -58t0.5 -53zM409 1298q43 0 80.5 -11.5 t71.5 -36t54.5 -43.5t53.5 -54v638h256v-1791h-256v116q-58 -60 -118 -97t-138 -37q-74 0 -131.5 37.5t-92.5 96.5t-57 140t-30.5 159t-8.5 162v12q0 96 1 146t6.5 138t17 136.5t34.5 112t56 96t84 56.5t117 24zM1545 1088h-384v192h640v-192l-448 -896h448v-192h-704v192z " />
<glyph unicode="&#x1f4;" horiz-adv-x="1216" d="M608 192q64 0 111 25t74.5 64.5t43.5 100.5t21.5 121t5.5 137v64h-256v190h512v-894h-192l-64 192q-75 -210 -256 -210q-123 0 -213.5 35t-147.5 95t-91 153t-47 196t-13 237v454q0 658 522 658q132 0 227 -41.5t151.5 -121t82.5 -186t26 -245.5h-256q0 53 -1.5 90.5 t-7 80.5t-15 72t-26.5 58t-41.5 45.5t-59.5 27t-80 10.5q-78 0 -131.5 -28.5t-82 -83t-40.5 -120t-12 -152.5v-576q0 -64 4 -115.5t13.5 -105t28 -92.5t46 -70.5t69 -48t95.5 -16.5zM672 1912h-128l128 384h256z" />
<glyph unicode="&#x1f5;" horiz-adv-x="973" d="M82 832q0 133 42 237t130.5 166.5t211.5 62.5q71 0 124 -20t86.5 -50.5t65.5 -80.5q81 151 236 151v-210q-96 0 -160 -64q32 -94 32 -192q0 -134 -40.5 -237t-129 -165t-214.5 -62q-37 0 -81 7l-48 8q-2 -5 -10 -17.5t-12.5 -20.5t-8.5 -20.5t-4 -23.5q0 -26 25 -44 t69 -26.5t84.5 -12.5t90.5 -6.5t69 -5.5q57 -8 101.5 -18.5t91 -30.5t76.5 -48t49.5 -72t19.5 -101q0 -70 -24.5 -125t-65.5 -91t-99 -59.5t-122 -33.5t-137 -10q-48 0 -78 0.5t-82 2.5t-87 7.5t-80 14t-74.5 22.5t-56.5 33t-40.5 46.5t-13.5 61.5q0 100 53.5 171t138.5 113 q-52 14 -90 42.5t-38 69.5q0 17 4 36t9 34.5t16 35.5t17.5 31.5t21.5 32t20.5 28t21.5 27t18 22.5q-128 152 -128 384zM530 -194q27 0 48.5 1t49.5 4t48.5 9.5t39 16.5t28.5 26.5t10 37.5q0 18 -4 33q-14 76 -201 98l-211 25q-39 -28 -66.5 -81t-27.5 -111q0 -16 11 -27.5 t32.5 -17.5t44 -10t53.5 -5t53 -1t51.5 1t40.5 1zM626 832q0 55 -7 101.5t-24 91t-50 70t-79 25.5q-47 0 -80 -25.5t-49.5 -70t-23.5 -91t-7 -101.5q0 -272 160 -272t160 272zM577 1400h-128l128 384h256z" />
<glyph unicode="&#x200;" horiz-adv-x="1140" d="M359 448l-96 -448h-256l384 1792h256l384 -1792h-256l-96 448h-320zM647 640l-128 768l-128 -768h256zM487 2296h206l88 -384h-128zM103 2296h256l128 -384h-128z" />
<glyph unicode="&#x201;" horiz-adv-x="973" d="M439 1298q179 0 281.5 -110.5t102.5 -291.5v-576q0 -200 33 -320h-255l-34 192q-20 -40 -32.5 -62t-36.5 -54.5t-48 -50t-60 -30.5t-79 -13q-107 0 -181.5 92.5t-74.5 208.5q0 93 31.5 169t66.5 121.5t117 94t124 67t146 58.5q18 7 27 11v92q0 97 -27 150.5t-101 53.5 q-50 0 -79.5 -29t-39 -71t-9.5 -104h-256q2 184 103 293t281 109zM567 640q-16 -11 -53 -34t-59 -37.5t-53 -40t-48 -49t-30 -57.5t-13 -71q0 -159 128 -159q27 0 52.5 16t39 31.5t31.5 39.5q3 5 5 7v354zM414 1784h206l88 -384h-128zM30 1784h256l128 -384h-128z" />
<glyph unicode="&#x202;" horiz-adv-x="1140" d="M359 448l-96 -448h-256l384 1792h256l384 -1792h-256l-96 448h-320zM647 640l-128 768l-128 -768h256zM250 1912q0 200 69.5 292t250.5 92q179 0 249.5 -93t70.5 -291h-192q0 102 -24.5 147t-103.5 45t-103.5 -45.5t-24.5 -146.5h-192z" />
<glyph unicode="&#x203;" horiz-adv-x="973" d="M439 1298q179 0 281.5 -110.5t102.5 -291.5v-576q0 -200 33 -320h-255l-34 192q-20 -40 -32.5 -62t-36.5 -54.5t-48 -50t-60 -30.5t-79 -13q-107 0 -181.5 92.5t-74.5 208.5q0 93 31.5 169t66.5 121.5t117 94t124 67t146 58.5q18 7 27 11v92q0 97 -27 150.5t-101 53.5 q-50 0 -79.5 -29t-39 -71t-9.5 -104h-256q2 184 103 293t281 109zM567 640q-16 -11 -53 -34t-59 -37.5t-53 -40t-48 -49t-30 -57.5t-13 -71q0 -159 128 -159q27 0 52.5 16t39 31.5t31.5 39.5q3 5 5 7v354zM176 1400q0 200 69.5 292t250.5 92q179 0 249.5 -93t70.5 -291h-192 q0 102 -24.5 147t-103.5 45t-103.5 -45.5t-24.5 -146.5h-192z" />
<glyph unicode="&#x204;" horiz-adv-x="896" d="M704 832h-320v-640h448v-192h-704v1792h704v-192h-448v-576h320v-192zM397 2296h206l88 -384h-128zM13 2296h256l128 -384h-128z" />
<glyph unicode="&#x205;" horiz-adv-x="950" d="M349 576q0 -158 3 -196q23 -182 125 -188q31 0 54 9t37 30t22 39.5t11.5 54.5t4 58t0.5 65h255q0 -230 -91 -348t-294 -118q-73 0 -131 20t-97.5 52.5t-68.5 85t-45.5 106.5t-25.5 129.5t-12 141.5t-3 153q0 95 5.5 168t19.5 148.5t41.5 128.5t69 96.5t104 65t144.5 21.5 t144.5 -21.5t104 -65t69 -96.5t41.5 -128.5t19.5 -148.5t5.5 -168v-30h-512v-64zM605 768q0 156 -17 218q-28 102 -111 102q-27 0 -47.5 -11t-34 -26.5t-23 -43.5t-14 -50t-6.5 -60t-2.5 -58.5t-0.5 -59.5v-11h256zM397 1784h206l88 -384h-128zM13 1784h256l128 -384h-128z " />
<glyph unicode="&#x206;" horiz-adv-x="896" d="M704 832h-320v-640h448v-192h-704v1792h704v-192h-448v-576h320v-192zM160 1912q0 200 69.5 292t250.5 92q179 0 249.5 -93t70.5 -291h-192q0 102 -24.5 147t-103.5 45t-103.5 -45.5t-24.5 -146.5h-192z" />
<glyph unicode="&#x207;" horiz-adv-x="950" d="M349 576q0 -158 3 -196q23 -182 125 -188q31 0 54 9t37 30t22 39.5t11.5 54.5t4 58t0.5 65h255q0 -230 -91 -348t-294 -118q-73 0 -131 20t-97.5 52.5t-68.5 85t-45.5 106.5t-25.5 129.5t-12 141.5t-3 153q0 95 5.5 168t19.5 148.5t41.5 128.5t69 96.5t104 65t144.5 21.5 t144.5 -21.5t104 -65t69 -96.5t41.5 -128.5t19.5 -148.5t5.5 -168v-30h-512v-64zM605 768q0 156 -17 218q-28 102 -111 102q-27 0 -47.5 -11t-34 -26.5t-23 -43.5t-14 -50t-6.5 -60t-2.5 -58.5t-0.5 -59.5v-11h256zM160 1400q0 200 69.5 292t250.5 92q179 0 249.5 -93 t70.5 -291h-192q0 102 -24.5 147t-103.5 45t-103.5 -45.5t-24.5 -146.5h-192z" />
<glyph unicode="&#x208;" horiz-adv-x="542" d="M140 1792h256v-1792h-256v1792zM185 2296h206l88 -384h-128zM-199 2296h256l128 -384h-128z" />
<glyph unicode="&#x209;" horiz-adv-x="512" d="M128 1280h256v-1280h-256v1280zM173 1784h206l88 -384h-128zM-211 1784h256l128 -384h-128z" />
<glyph unicode="&#x20a;" horiz-adv-x="542" d="M140 1792h256v-1792h-256v1792zM-52 1912q0 200 69.5 292t250.5 92q179 0 249.5 -93t70.5 -291h-192q0 102 -24.5 147t-103.5 45t-103.5 -45.5t-24.5 -146.5h-192z" />
<glyph unicode="&#x20b;" horiz-adv-x="512" d="M128 1280h256v-1280h-256v1280zM-64 1400q0 200 69.5 292t250.5 92q179 0 249.5 -93t70.5 -291h-192q0 102 -24.5 147t-103.5 45t-103.5 -45.5t-24.5 -146.5h-192z" />
<glyph unicode="&#x20c;" horiz-adv-x="1216" d="M590 1810q262 0 378 -150t116 -434v-650q0 -139 -26.5 -245.5t-83.5 -186t-153.5 -121t-230.5 -41.5q-135 0 -231.5 41t-153.5 120t-83 185.5t-26 247.5v650q0 141 26 246t83 182.5t153.5 116.5t231.5 39zM590 1600q-136 0 -187 -77t-51 -233v-778q0 -158 51.5 -239 t186.5 -81t186.5 81t51.5 239v778q0 156 -51 233t-187 77zM525 2296h206l88 -384h-128zM141 2296h256l128 -384h-128z" />
<glyph unicode="&#x20d;" horiz-adv-x="960" d="M477 -18q-206 0 -295 120t-89 346v384q0 226 89 346t295 120t295 -120t89 -346v-384q0 -226 -89 -346t-295 -120zM477 1088q-27 0 -47.5 -8t-34 -19.5t-22.5 -34t-14 -39.5t-7 -49t-2.5 -50.5t-0.5 -55.5v-384q0 -37 0.5 -55.5t2.5 -50.5t7 -49t14 -39.5t22.5 -34 t34 -19.5t47.5 -8t47.5 8t34 19.5t22.5 34t14 39.5t7 49t2.5 50.5t0.5 55.5v384q0 37 -0.5 55.5t-2.5 50.5t-7 49t-14 39.5t-22.5 34t-34 19.5t-47.5 8zM397 1784h206l88 -384h-128zM13 1784h256l128 -384h-128z" />
<glyph unicode="&#x20e;" horiz-adv-x="1216" d="M590 1810q262 0 378 -150t116 -434v-650q0 -139 -26.5 -245.5t-83.5 -186t-153.5 -121t-230.5 -41.5q-135 0 -231.5 41t-153.5 120t-83 185.5t-26 247.5v650q0 141 26 246t83 182.5t153.5 116.5t231.5 39zM590 1600q-136 0 -187 -77t-51 -233v-778q0 -158 51.5 -239 t186.5 -81t186.5 81t51.5 239v778q0 156 -51 233t-187 77zM288 1912q0 200 69.5 292t250.5 92q179 0 249.5 -93t70.5 -291h-192q0 102 -24.5 147t-103.5 45t-103.5 -45.5t-24.5 -146.5h-192z" />
<glyph unicode="&#x20f;" horiz-adv-x="960" d="M477 -18q-206 0 -295 120t-89 346v384q0 226 89 346t295 120t295 -120t89 -346v-384q0 -226 -89 -346t-295 -120zM477 1088q-27 0 -47.5 -8t-34 -19.5t-22.5 -34t-14 -39.5t-7 -49t-2.5 -50.5t-0.5 -55.5v-384q0 -37 0.5 -55.5t2.5 -50.5t7 -49t14 -39.5t22.5 -34 t34 -19.5t47.5 -8t47.5 8t34 19.5t22.5 34t14 39.5t7 49t2.5 50.5t0.5 55.5v384q0 37 -0.5 55.5t-2.5 50.5t-7 49t-14 39.5t-22.5 34t-34 19.5t-47.5 8zM160 1400q0 200 69.5 292t250.5 92q179 0 249.5 -93t70.5 -291h-192q0 102 -24.5 147t-103.5 45t-103.5 -45.5 t-24.5 -146.5h-192z" />
<glyph unicode="&#x210;" horiz-adv-x="1152" d="M1024 1312q0 -160 -57 -268t-167 -148l288 -896h-254l-258 832h-192v-832h-256v1792h320q286 0 431 -111t145 -369zM768 1312q0 153 -80 220.5t-240 67.5h-64v-576h64q160 0 240 67.5t80 220.5zM507 2296h206l88 -384h-128zM123 2296h256l128 -384h-128z" />
<glyph unicode="&#x211;" horiz-adv-x="680" d="M322 1784h206l88 -384h-128zM-62 1784h256l128 -384h-128zM373 1109q39 76 113.5 132.5t165.5 56.5q3 0 41 -4v-283q-71 28 -142 28q-80 0 -129 -48t-49 -127v-864h-256v1280h256v-171z" />
<glyph unicode="&#x212;" horiz-adv-x="1108" d="M288 1912q0 200 69.5 292t250.5 92q179 0 249.5 -93t70.5 -291h-192q0 102 -24.5 147t-103.5 45t-103.5 -45.5t-24.5 -146.5h-192zM1024 1312q0 -160 -57 -268t-167 -148l288 -896h-254l-258 832h-192v-832h-256v1792h320q286 0 431 -111t145 -369zM768 1312 q0 153 -80 220.5t-240 67.5h-64v-576h64q160 0 240 67.5t80 220.5z" />
<glyph unicode="&#x213;" horiz-adv-x="680" d="M85 1400q0 200 69.5 292t250.5 92q179 0 249.5 -93t70.5 -291h-192q0 102 -24.5 147t-103.5 45t-103.5 -45.5t-24.5 -146.5h-192zM373 1109q39 76 113.5 132.5t165.5 56.5q3 0 41 -4v-283q-71 28 -142 28q-80 0 -129 -48t-49 -127v-864h-256v1280h256v-171z" />
<glyph unicode="&#x214;" horiz-adv-x="1252" d="M543 2296h206l88 -384h-128zM159 2296h256l128 -384h-128zM1138 640q0 -123 -15 -220.5t-51 -181.5t-93.5 -139.5t-146.5 -86.5t-206 -31t-206 31t-146.5 86.5t-93.5 139.5t-51 181.5t-15 220.5v1152h256v-1152q0 -83 3.5 -139t18.5 -119.5t41.5 -101.5t75 -63t117.5 -25 t117.5 25t75 63t41.5 101.5t18.5 119.5t3.5 139v1152h256v-1152z" />
<glyph unicode="&#x215;" d="M408 1784h206l88 -384h-128zM24 1784h256l128 -384h-128zM619 138q-38 -33 -55.5 -48t-53.5 -40.5t-63.5 -37t-68.5 -21t-85 -9.5q-84 0 -135 59.5t-51 147.5v1091h256v-1013q0 -40 24.5 -65t63.5 -25q21 0 41 5t39.5 17.5t30.5 20t31.5 25.5t25.5 22v1013h256v-1280 h-256v138z" />
<glyph unicode="&#x216;" horiz-adv-x="1252" d="M306 1912q0 200 69.5 292t250.5 92q179 0 249.5 -93t70.5 -291h-192q0 102 -24.5 147t-103.5 45t-103.5 -45.5t-24.5 -146.5h-192zM1138 640q0 -123 -15 -220.5t-51 -181.5t-93.5 -139.5t-146.5 -86.5t-206 -31t-206 31t-146.5 86.5t-93.5 139.5t-51 181.5t-15 220.5 v1152h256v-1152q0 -83 3.5 -139t18.5 -119.5t41.5 -101.5t75 -63t117.5 -25t117.5 25t75 63t41.5 101.5t18.5 119.5t3.5 139v1152h256v-1152z" />
<glyph unicode="&#x217;" d="M171 1400q0 200 69.5 292t250.5 92q179 0 249.5 -93t70.5 -291h-192q0 102 -24.5 147t-103.5 45t-103.5 -45.5t-24.5 -146.5h-192zM619 138q-38 -33 -55.5 -48t-53.5 -40.5t-63.5 -37t-68.5 -21t-85 -9.5q-84 0 -135 59.5t-51 147.5v1091h256v-1013q0 -40 24.5 -65 t63.5 -25q21 0 41 5t39.5 17.5t30.5 20t31.5 25.5t25.5 22v1013h256v-1280h-256v138z" />
<glyph unicode="&#x218;" horiz-adv-x="1102" d="M434 -120h256q0 -144 -2 -242q-2 -54 -6.5 -91t-16 -73.5t-31.5 -58t-54 -34.5t-82 -13l-64 128q69 0 98.5 30t29.5 98h-128v256zM787 1280q-4 67 -19.5 122t-44.5 101t-78 71.5t-114 25.5q-92 0 -142 -51.5t-50 -143.5q0 -151 128 -253l320 -256q256 -207 256 -495 q0 -197 -121.5 -308t-326.5 -111q-242 0 -369.5 142t-142.5 388l256 64q19 -384 256 -384q192 0 192 192q0 57 -15.5 105.5t-47.5 89t-58 65t-71 60.5l-320 256q-88 69 -140.5 175.5t-52.5 242.5q0 198 123 315t326 117q234 0 364 -122t148 -344z" />
<glyph unicode="&#x219;" horiz-adv-x="872" d="M312 -120h256q0 -144 -3 -242q-2 -54 -6 -91t-16 -73.5t-32 -58t-53.5 -34.5t-81.5 -13l-64 128q69 0 98.5 30t29.5 98h-128v256zM632 896q-14 38 -28 65.5t-37.5 59.5t-55.5 49.5t-71 17.5q-61 0 -94.5 -33.5t-33.5 -94.5q0 -60 64 -108l256 -192q43 -34 73.5 -65.5 t59.5 -73t44 -92.5t15 -109q0 -164 -104.5 -251t-279.5 -87q-158 0 -253.5 94t-130.5 244l192 64q69 -192 192 -192q61 0 94.5 33.5t33.5 94.5q0 89 -64 148l-256 192q-43 29 -72 54.5t-59 62.5t-45.5 83t-15.5 100q0 164 104.5 251t279.5 87q83 0 150 -26.5t112.5 -74.5 t75 -106.5t46.5 -130.5z" />
<glyph unicode="&#x21a;" horiz-adv-x="888" d="M316 -102h256q0 -145 -3 -242q-2 -54 -6 -91t-16 -73.5t-32 -58t-53.5 -34.5t-81.5 -13l-64 128q69 0 98.5 30t29.5 98h-128v256zM892 1792v-228h-320v-1564h-256v1564h-320v228h896z" />
<glyph unicode="&#x21b;" horiz-adv-x="658" d="M201 -120h256q0 -144 -3 -242q-2 -54 -6 -91t-16 -73.5t-32 -58t-53.5 -34.5t-81.5 -13l-64 128q69 0 98.5 30t29.5 98h-128v256zM617 -6q-96 -12 -158 -12q-151 0 -219.5 77t-70.5 233v796h-128v192h128v448h256v-448h192v-192h-192v-747q0 -77 21 -113t85 -36 q29 0 86 10v-208z" />
<glyph unicode="&#x237;" horiz-adv-x="576" d="M128 -320q-84 0 -128 17v182q35 -7 64 -7q128 0 128 149v1259h256v-1287q0 -148 -85.5 -230.5t-234.5 -82.5z" />
<glyph unicode="&#x2c6;" horiz-adv-x="768" d="M384 1664l-128 -256h-192l192 384h256l192 -384h-192z" />
<glyph unicode="&#x2c7;" horiz-adv-x="768" d="M512 1792h192l-192 -384h-256l-192 384h192l128 -256z" />
<glyph unicode="&#x2d8;" horiz-adv-x="768" d="M704 1792q0 -200 -69.5 -292t-250.5 -92q-179 0 -249.5 93t-70.5 291h192q0 -102 24.5 -147t103.5 -45t103.5 45.5t24.5 146.5h192z" />
<glyph unicode="&#x2d9;" horiz-adv-x="384" d="M64 1702h256v-256h-256v256z" />
<glyph unicode="&#x2da;" horiz-adv-x="640" d="M448 1664q0 59 -34 93.5t-94 34.5t-94 -34t-34 -94t34 -94t94 -34t94 34.5t34 93.5zM64 1664q0 116 69.5 186t186.5 70t186.5 -70t69.5 -186t-69.5 -186t-186.5 -70t-186.5 70t-69.5 186z" />
<glyph unicode="&#x2db;" horiz-adv-x="537" d="M-46 -321q0 108 81 205.5t175 124.5h128q-6 -8 -53 -65t-69 -88t-46 -82t-24 -91q0 -74 144 -74q19 0 58.5 3t53.5 3v-128h-45q-47 0 -76.5 0.5t-69 2.5t-64 5.5t-54.5 10.5t-48.5 16.5t-37.5 24t-29.5 33t-17 43.5t-6.5 56z" />
<glyph unicode="&#x2dc;" horiz-adv-x="960" d="M613 1452q-48 0 -98.5 22t-97.5 43.5t-88 21.5q-48 0 -48 -67h-154q0 116 57.5 194.5t162.5 78.5q58 0 145 -43t136 -43q51 0 51 69h154q0 -117 -57.5 -196.5t-162.5 -79.5z" />
<glyph unicode="&#x2dd;" horiz-adv-x="640" d="M346 1408h-128l88 384h206zM640 1408h-128l128 384h256z" />
<glyph unicode="&#x307;" horiz-adv-x="384" d="M64 1702h256v-256h-256v256z" />
<glyph unicode="&#x30f;" horiz-adv-x="640" d="M392 1792h206l88 -384h-128zM8 1792h256l128 -384h-128z" />
<glyph unicode="&#x311;" horiz-adv-x="768" d="M64 1408q0 200 69.5 292t250.5 92q179 0 249.5 -93t70.5 -291h-192q0 102 -24.5 147t-103.5 45t-103.5 -45.5t-24.5 -146.5h-192z" />
<glyph unicode="&#x326;" horiz-adv-x="330" d="M37 -79h256q0 -145 -3 -242q-2 -54 -6 -91t-16 -73.5t-32 -58t-53.5 -34.5t-81.5 -13l-64 128q69 0 98.5 30t29.5 98h-128v256z" />
<glyph unicode="&#x1e80;" horiz-adv-x="1558" d="M459 2296h256l128 -384h-128zM907 1792l128 -832l63 -512l65 512l128 832h256l-320 -1792h-256l-128 832l-64 512l-64 -512l-128 -832h-256l-320 1792h256l128 -832l65 -512l63 512l128 832h256z" />
<glyph unicode="&#x1e81;" horiz-adv-x="1269" d="M314 1784h256l128 -384h-128zM635 882l-138 -882h-246l-237 1280h227l142 -972l134 972h234l136 -962l140 962h228l-248 -1280h-236z" />
<glyph unicode="&#x1e82;" horiz-adv-x="1558" d="M843 1912h-128l128 384h256zM907 1792l128 -832l63 -512l65 512l128 832h256l-320 -1792h-256l-128 832l-64 512l-64 -512l-128 -832h-256l-320 1792h256l128 -832l65 -512l63 512l128 832h256z" />
<glyph unicode="&#x1e83;" horiz-adv-x="1269" d="M698 1400h-128l128 384h256zM635 882l-138 -882h-246l-237 1280h227l142 -972l134 972h234l136 -962l140 962h228l-248 -1280h-236z" />
<glyph unicode="&#x1e84;" horiz-adv-x="1558" d="M459 2168h256v-256h-256v256zM843 2168h256v-256h-256v256zM907 1792l128 -832l63 -512l65 512l128 832h256l-320 -1792h-256l-128 832l-64 512l-64 -512l-128 -832h-256l-320 1792h256l128 -832l65 -512l63 512l128 832h256z" />
<glyph unicode="&#x1e85;" horiz-adv-x="1269" d="M314 1656h256v-256h-256v256zM698 1656h256v-256h-256v256zM635 882l-138 -882h-246l-237 1280h227l142 -972l134 972h234l136 -962l140 962h228l-248 -1280h-236z" />
<glyph unicode="&#x1ef2;" horiz-adv-x="1018" d="M189 2296h256l128 -384h-128zM381 0v576l-384 1216h256l256 -896l256 896h256l-384 -1216v-576h-256z" />
<glyph unicode="&#x1ef3;" horiz-adv-x="842" d="M106 1784h256l128 -384h-128zM74 -128q104 0 165 46t61 140l-290 1222h256q149 -823 161 -896q21 135 47.5 284.5t60 330t51.5 281.5h256l-320 -1344q-33 -142 -142.5 -199t-305.5 -57v192z" />
<glyph unicode="&#x2013;" horiz-adv-x="384" d="M0 640h384v-192h-384v192z" />
<glyph unicode="&#x2014;" horiz-adv-x="384" d="M0 640h384v-192h-384v192z" />
<glyph unicode="&#x2018;" horiz-adv-x="512" d="M384 1280h-256q0 32 -1.5 95.5t-1.5 93.5q0 59 3.5 101.5t15.5 87t33 72t57 45t86 17.5l64 -128q-69 0 -98.5 -30t-29.5 -98h128v-256z" />
<glyph unicode="&#x2019;" horiz-adv-x="512" d="M128 1792h256q0 -144 -3 -242q-2 -54 -6 -91t-16 -73.5t-32 -58t-53.5 -34.5t-81.5 -13l-64 128q69 0 98.5 30t29.5 98h-128v256z" />
<glyph unicode="&#x201a;" horiz-adv-x="384" d="M62 63h256l-64 -384h-128z" />
<glyph unicode="&#x201c;" horiz-adv-x="896" d="M384 1280h-256q0 32 -1.5 95.5t-1.5 93.5q0 59 3.5 101.5t15.5 87t33 72t57 45t86 17.5l64 -128q-69 0 -98.5 -30t-29.5 -98h128v-256zM768 1280h-256q0 32 -1.5 95.5t-1.5 93.5q0 59 3.5 101.5t15.5 87t33 72t57 45t86 17.5l64 -128q-69 0 -98.5 -30t-29.5 -98h128v-256 z" />
<glyph unicode="&#x201d;" horiz-adv-x="896" d="M128 1792h256q0 -144 -3 -242q-2 -54 -6 -91t-16 -73.5t-32 -58t-53.5 -34.5t-81.5 -13l-64 128q69 0 98.5 30t29.5 98h-128v256zM512 1792h256q0 -144 -3 -242q-2 -54 -6 -91t-16 -73.5t-32 -58t-53.5 -34.5t-81.5 -13l-64 128q69 0 98.5 30t29.5 98h-128v256z" />
<glyph unicode="&#x201e;" horiz-adv-x="704" d="M62 64h256l-64 -384h-128zM385 64h256l-64 -384h-128z" />
<glyph unicode="&#x2021;" horiz-adv-x="850" d="M550 500v-500h-250v500h-200v200h200v350h-200v200h200v286h250v-286h201v-200h-201v-350h201v-200h-201z" />
<glyph unicode="&#x2022;" horiz-adv-x="960" d="M221 891q0 130 70.5 213t194.5 83q123 0 194 -83.5t71 -212.5q0 -130 -70.5 -213t-194.5 -83q-123 0 -194 83.5t-71 212.5z" />
<glyph unicode="&#x2030;" horiz-adv-x="2834" d="M444 541q-95 0 -166.5 38.5t-114.5 106.5t-64 155t-21 191q0 106 20 192t62.5 152.5t114.5 103t169 36.5q78 0 140 -24.5t104 -67.5t70 -104t40.5 -132.5t12.5 -155.5q0 -104 -21.5 -191.5t-64.5 -155.5t-114.5 -106t-166.5 -38zM578 1032q0 289 -134 289 q-133 0 -133 -289q0 -52 5 -97.5t18 -94t41 -77t69 -28.5q134 0 134 297zM2390 0q-76 0 -137.5 25.5t-104 70t-71 107t-41.5 135t-13 154.5q0 106 20.5 191.5t63 152t114.5 103t169 36.5q78 0 140 -24.5t104 -67t70 -104t40.5 -132.5t12.5 -155q0 -105 -21 -192t-64 -155.5 t-115 -106.5t-167 -38zM2523 492q0 288 -133 288t-133 -288q0 -52 5 -97.5t18 -94t41 -77t69 -28.5q133 0 133 297zM1554 0q-95 0 -166.5 38.5t-114.5 107t-64 155.5t-21 191q0 106 20.5 191.5t63 152t114 103t168.5 36.5t169 -36.5t114.5 -103t63 -152t20.5 -191.5 q0 -105 -21 -192t-64 -155.5t-115 -106.5t-167 -38zM1688 492q0 288 -134 288q-133 0 -133 -288q0 -52 5 -97t18 -94t41 -77.5t69 -28.5q134 0 134 297zM1034 1518h219l-282 -1518h-220z" />
<glyph unicode="&#x2039;" horiz-adv-x="582" d="M64 704l448 512v-320l-256 -255l256 -257v-320l-448 512v128z" />
<glyph unicode="&#x203a;" horiz-adv-x="577" d="M512 576l-448 -512v320l256 257l-256 255v320l448 -512v-128z" />
<glyph unicode="&#x2044;" horiz-adv-x="537" d="M301 1901h219l-282 -1518h-220z" />
<glyph unicode="&#x2074;" horiz-adv-x="768" d="M384 832h-320v128l340 576h172v-576h128v-128h-128v-256h-192v256zM384 960v256l-128 -256h128z" />
<glyph unicode="&#x20ac;" horiz-adv-x="971" d="M499 205q43 0 74 21t47.5 52t26.5 79t12.5 89t2.5 95h247q0 -102 -11.5 -184t-41 -155t-76 -122.5t-119 -78t-167.5 -28.5t-168 26t-120 71.5t-77.5 114t-44 146.5t-16.5 177h-68v166h68v153h-68v166h70q3 99 16 177t42.5 148.5t75.5 117t117.5 73.5t165.5 27 q114 0 195.5 -37t128.5 -107.5t69 -162t23 -211.5h-250q0 291 -161 291q-25 0 -45.5 -4t-36 -13.5t-28 -19t-21.5 -27t-15.5 -31t-10.5 -38.5t-6.5 -41t-4 -45.5t-2 -46.5t-0.5 -50h196v-166h-196v-153h196v-166h-194q2 -48 4.5 -78t9 -69.5t18 -63.5t30 -47.5t47 -34 t66.5 -10.5z" />
<glyph unicode="&#x2122;" horiz-adv-x="2204" d="M649 1518v-154h-164v-678h-170v678h-163v154h497zM1139 686h-103l-137 555v-555h-158v832h242l104 -453l107 453h242v-832h-160v555z" />
<glyph unicode="&#x2206;" horiz-adv-x="1024" d="M664 192l-152 1216l-151 -1216h303zM64 0l297 1792h303l298 -1792h-898z" />
<glyph unicode="&#x220f;" horiz-adv-x="1216" d="M1088 1792v-1792h-256v1600h-448v-1600h-256v1792h960z" />
<glyph unicode="&#x2212;" horiz-adv-x="768" d="M0 699h750v-151h-750v151z" />
<glyph unicode="&#x222b;" horiz-adv-x="704" d="M192 1344q0 78 6.5 133.5t25 105.5t50.5 80t83.5 47.5t124.5 17.5q62 0 158 -12v-190q-10 1 -41 5.5t-45 4.5q-64 0 -85 -40.5t-21 -119.5v-1248q0 -79 -6.5 -134.5t-24.5 -105.5t-50 -80t-84 -47t-125 -17q-62 0 -158 12v190q60 -10 86 -10q64 0 85 40.5t21 119.5v1248z " />
<glyph unicode="&#x25ca;" horiz-adv-x="896" d="M320 1536h258l252 -768l-252 -768h-258l-254 767zM448 256l126 511l-126 513l-126 -512z" />
<glyph unicode="&#x25fc;" horiz-adv-x="1280" d="M0 1280h1280v-1280h-1280v1280z" />
<glyph horiz-adv-x="0" />
<glyph horiz-adv-x="0" />
<glyph horiz-adv-x="1362" d="M221 277l168 542l-459 338l572 11l178 542l188 -542h572l-461 -349l170 -542l-469 327z" />
</font>
</defs>
</svg>
